STARTFONT 2.3
FONT -FontForge-Roboto Medium-Medium-R-Normal--9-90-72-72-P-50-ISO10646-1
SIZE 9 72 72  4
FONTBOUNDINGBOX 18 15 -7 -3
COMMENT "Generated by fontforge, http://fontforge.sourceforge.net"
COMMENT "Copyright 2011 Google Inc. All Rights Reserved."
STARTPROPERTIES 42
FOUNDRY "FontForge"
FAMILY_NAME "Roboto Medium"
WEIGHT_NAME "Medium"
SLANT "R"
SETWIDTH_NAME "Normal"
ADD_STYLE_NAME ""
PIXEL_SIZE 9
POINT_SIZE 90
RESOLUTION_X 72
RESOLUTION_Y 72
SPACING "P"
AVERAGE_WIDTH 50
CHARSET_REGISTRY "ISO10646"
CHARSET_ENCODING "1"
FONTNAME_REGISTRY ""
CHARSET_COLLECTIONS "ISO8859-2 ISO8859-5 ISO8859-7 ISO8859-9 ISO8859-4 ISO10646-1"
BITS_PER_PIXEL 4
FONT_NAME "Roboto-Medium"
FACE_NAME "Roboto Medium"
COPYRIGHT "Copyright 2011 Google Inc. All Rights Reserved."
FONT_VERSION "2.137; 2017"
FONT_ASCENT 7
FONT_DESCENT 2
UNDERLINE_POSITION -1
UNDERLINE_THICKNESS 1
X_HEIGHT 4
CAP_HEIGHT 6
DEFAULT_CHAR 1
RAW_ASCENT 750
RAW_DESCENT 250
NORM_SPACE 2
RELATIVE_WEIGHT 50
RELATIVE_SETWIDTH 50
SUPERSCRIPT_X 0
SUPERSCRIPT_Y 4
SUPERSCRIPT_SIZE 5
SUBSCRIPT_X 0
SUBSCRIPT_Y 1
SUBSCRIPT_SIZE 5
FIGURE_WIDTH 5
AVG_LOWERCASE_WIDTH 50
AVG_UPPERCASE_WIDTH 59
ENDPROPERTIES
CHARS 1296
STARTCHAR glyph1.dup1
ENCODING 0
SWIDTH 0 0
DWIDTH 0 0
BBX 1 1 0 0
BITMAP
00
ENDCHAR
STARTCHAR uni0002
ENCODING 2
SWIDTH 0 0
DWIDTH 0 0
BBX 1 1 0 0
BITMAP
00
ENDCHAR
STARTCHAR uni000D
ENCODING 13
SWIDTH 249 0
DWIDTH 2 0
BBX 1 1 0 0
BITMAP
00
ENDCHAR
STARTCHAR space
ENCODING 32
SWIDTH 249 0
DWIDTH 2 0
BBX 1 1 0 0
BITMAP
00
ENDCHAR
STARTCHAR exclam
ENCODING 33
SWIDTH 268 0
DWIDTH 2 0
BBX 2 7 0 0
BITMAP
5C
5B
4B
4B
4A
01
4B
ENDCHAR
STARTCHAR quotedbl
ENCODING 34
SWIDTH 324 0
DWIDTH 3 0
BBX 3 2 0 5
BITMAP
8680
8560
ENDCHAR
STARTCHAR numbersign
ENCODING 35
SWIDTH 610 0
DWIDTH 6 0
BBX 6 7 0 0
BITMAP
00B1A0
00B470
4FFFF5
057920
9FFFF0
0A1B00
0B1A00
ENDCHAR
STARTCHAR dollar
ENCODING 36
SWIDTH 568 0
DWIDTH 5 0
BBX 5 9 0 -1
BITMAP
00A000
0AFC20
4D1A80
3E2120
06EA10
111B80
7B1990
1BFC20
009000
ENDCHAR
STARTCHAR percent
ENCODING 37
SWIDTH 734 0
DWIDTH 7 0
BBX 7 7 0 0
BITMAP
4EB00000
85B29000
4EB48000
000A1000
0059EC10
00B76A30
0543EC10
ENDCHAR
STARTCHAR ampersand
ENCODING 38
SWIDTH 639 0
DWIDTH 6 0
BBX 6 7 0 0
BITMAP
08EA00
1F2D20
0D8C00
0BF231
7A7BB3
8A1CE0
2CFCD5
ENDCHAR
STARTCHAR quotesingle
ENCODING 39
SWIDTH 168 0
DWIDTH 2 0
BBX 2 2 0 5
BITMAP
A2
A1
ENDCHAR
STARTCHAR parenleft
ENCODING 40
SWIDTH 348 0
DWIDTH 3 0
BBX 3 9 0 -2
BITMAP
0190
0940
2C00
5900
6800
5900
2C00
0940
0190
ENDCHAR
STARTCHAR parenright
ENCODING 41
SWIDTH 352 0
DWIDTH 3 0
BBX 3 9 0 -2
BITMAP
8200
2B00
0A40
0770
0690
0780
0A40
2C00
8200
ENDCHAR
STARTCHAR asterisk
ENCODING 42
SWIDTH 441 0
DWIDTH 4 0
BBX 4 4 0 3
BITMAP
0560
8998
3CC3
3892
ENDCHAR
STARTCHAR plus
ENCODING 43
SWIDTH 557 0
DWIDTH 5 0
BBX 5 5 0 1
BITMAP
00C000
00F000
BFFFA0
00F000
00E000
ENDCHAR
STARTCHAR comma
ENCODING 44
SWIDTH 219 0
DWIDTH 2 0
BBX 2 3 0 -2
BITMAP
68
95
30
ENDCHAR
STARTCHAR hyphen
ENCODING 45
SWIDTH 328 0
DWIDTH 3 0
BBX 3 1 0 2
BITMAP
AF90
ENDCHAR
STARTCHAR period
ENCODING 46
SWIDTH 279 0
DWIDTH 3 0
BBX 2 2 0 0
BITMAP
01
4B
ENDCHAR
STARTCHAR slash
ENCODING 47
SWIDTH 395 0
DWIDTH 4 0
BBX 4 8 0 -1
BITMAP
0093
00C0
0490
0940
0C00
3900
8500
C100
ENDCHAR
STARTCHAR zero
ENCODING 48
SWIDTH 568 0
DWIDTH 5 0
BBX 5 7 0 0
BITMAP
0AEB10
5C1B70
780790
8806A0
780790
5C1B60
0AEB10
ENDCHAR
STARTCHAR one
ENCODING 49
SWIDTH 568 0
DWIDTH 5 0
BBX 4 7 0 0
BITMAP
05B5
4BD6
00A6
00A6
00A6
00A6
00A6
ENDCHAR
STARTCHAR two
ENCODING 50
SWIDTH 568 0
DWIDTH 5 0
BBX 5 7 0 0
BITMAP
1AEB10
8A1B70
210A60
004D10
02D300
1C4000
7FFFC0
ENDCHAR
STARTCHAR three
ENCODING 51
SWIDTH 568 0
DWIDTH 5 0
BBX 5 7 0 0
BITMAP
1BEB10
791B60
001B50
04FD00
000A70
891A80
1BEB10
ENDCHAR
STARTCHAR four
ENCODING 52
SWIDTH 568 0
DWIDTH 5 0
BBX 5 7 0 0
BITMAP
005F10
01DF10
0A6F10
4A0F10
BFFFD0
000F10
000F10
ENDCHAR
STARTCHAR five
ENCODING 53
SWIDTH 568 0
DWIDTH 5 0
BBX 5 7 0 0
BITMAP
0EFF80
1E0000
2EEC20
151990
1105B0
4D1990
09EC20
ENDCHAR
STARTCHAR six
ENCODING 54
SWIDTH 568 0
DWIDTH 5 0
BBX 5 7 0 0
BITMAP
03CC00
0D5000
5DEC20
7C1990
7905B0
4D1980
08EB10
ENDCHAR
STARTCHAR seven
ENCODING 55
SWIDTH 568 0
DWIDTH 5 0
BBX 5 7 0 0
BITMAP
BFFFB0
000960
001E10
007900
00D300
05C000
0B6000
ENDCHAR
STARTCHAR eight
ENCODING 56
SWIDTH 568 0
DWIDTH 5 0
BBX 5 7 0 0
BITMAP
0AEB10
5D1B70
4D1B50
0CFD00
6B1980
7B1990
1BEC20
ENDCHAR
STARTCHAR nine
ENCODING 57
SWIDTH 568 0
DWIDTH 5 0
BBX 5 7 0 0
BITMAP
1BE900
7A1B50
8A1A80
2CED80
000A60
005E10
09C400
ENDCHAR
STARTCHAR colon
ENCODING 58
SWIDTH 265 0
DWIDTH 2 0
BBX 2 6 0 0
BITMAP
01
5A
00
00
01
5A
ENDCHAR
STARTCHAR semicolon
ENCODING 59
SWIDTH 237 0
DWIDTH 2 0
BBX 2 8 0 -2
BITMAP
01
69
00
00
00
59
86
30
ENDCHAR
STARTCHAR less
ENCODING 60
SWIDTH 508 0
DWIDTH 5 0
BBX 4 4 0 1
BITMAP
005B
6DA4
7D72
017D
ENDCHAR
STARTCHAR equal
ENCODING 61
SWIDTH 559 0
DWIDTH 5 0
BBX 5 3 0 1
BITMAP
5FFF60
000000
5FFF60
ENDCHAR
STARTCHAR greater
ENCODING 62
SWIDTH 520 0
DWIDTH 5 0
BBX 5 4 0 1
BITMAP
692000
16BB20
04AC30
6B4000
ENDCHAR
STARTCHAR question
ENCODING 63
SWIDTH 486 0
DWIDTH 4 0
BBX 4 7 0 0
BITMAP
3DE7
873F
004D
01D4
0690
0000
0680
ENDCHAR
STARTCHAR at
ENCODING 64
SWIDTH 894 0
DWIDTH 8 0
BBX 8 8 0 -2
BITMAP
008DEC40
0A8214C2
3A0BE738
7568481A
84957748
675EADC1
1D511200
03BED500
ENDCHAR
STARTCHAR A
ENCODING 65
SWIDTH 665 0
DWIDTH 6 0
BBX 6 7 0 0
BITMAP
00AA00
01EE10
069950
0B44B0
1FFFF1
6900A6
B5006B
ENDCHAR
STARTCHAR B
ENCODING 66
SWIDTH 630 0
DWIDTH 6 0
BBX 6 7 0 0
BITMAP
5FFE60
5C04F0
5C04E0
5FFF70
5C02E2
5C03F2
5FFE80
ENDCHAR
STARTCHAR C
ENCODING 67
SWIDTH 652 0
DWIDTH 6 0
BBX 6 7 0 0
BITMAP
06EE80
3E31D4
7A0032
890000
7A0022
3E31D5
07EE80
ENDCHAR
STARTCHAR D
ENCODING 68
SWIDTH 653 0
DWIDTH 6 0
BBX 6 7 0 0
BITMAP
5FFC30
5C05E1
5C00C5
5C00B6
5C00C5
5C06E1
5FFC30
ENDCHAR
STARTCHAR E
ENCODING 69
SWIDTH 565 0
DWIDTH 5 0
BBX 5 7 0 0
BITMAP
5FFFC0
5C0000
5C0000
5FFF60
5C0000
5C0000
5FFFC0
ENDCHAR
STARTCHAR F
ENCODING 70
SWIDTH 549 0
DWIDTH 5 0
BBX 5 7 0 0
BITMAP
5FFFB0
5C0000
5C0000
5FFF50
5C0000
5C0000
5C0000
ENDCHAR
STARTCHAR G
ENCODING 71
SWIDTH 680 0
DWIDTH 6 0
BBX 6 7 0 0
BITMAP
06DE90
2E31C5
7A0011
890DF8
7A0088
2E41A8
05DFB2
ENDCHAR
STARTCHAR H
ENCODING 72
SWIDTH 710 0
DWIDTH 6 0
BBX 6 7 0 0
BITMAP
5C006B
5C006B
5C006B
5FFFFB
5C006B
5C006B
5C006B
ENDCHAR
STARTCHAR I
ENCODING 73
SWIDTH 282 0
DWIDTH 3 0
BBX 2 7 0 0
BITMAP
4C
4C
4C
4C
4C
4C
4C
ENDCHAR
STARTCHAR J
ENCODING 74
SWIDTH 555 0
DWIDTH 5 0
BBX 5 7 0 0
BITMAP
000B60
000B60
000B60
000B60
000B60
B81D40
3DE900
ENDCHAR
STARTCHAR K
ENCODING 75
SWIDTH 630 0
DWIDTH 6 0
BBX 6 7 0 0
BITMAP
5C03E3
5C1D70
5CAA00
5FF700
5E5E20
5C08B0
5C01D6
ENDCHAR
STARTCHAR L
ENCODING 76
SWIDTH 541 0
DWIDTH 5 0
BBX 5 7 0 0
BITMAP
5C0000
5C0000
5C0000
5C0000
5C0000
5C0000
5FFFA0
ENDCHAR
STARTCHAR M
ENCODING 77
SWIDTH 875 0
DWIDTH 8 0
BBX 8 7 0 0
BITMAP
5F4006F3
5F900BF3
5BE01DC3
5BB468D3
5B5AC3D3
5C1ED0D3
5C0A80D3
ENDCHAR
STARTCHAR N
ENCODING 78
SWIDTH 709 0
DWIDTH 6 0
BBX 6 7 0 0
BITMAP
5E106B
5F906B
5CE36B
5C6C6B
5C0CBB
5C04FB
5C00AB
ENDCHAR
STARTCHAR O
ENCODING 79
SWIDTH 690 0
DWIDTH 6 0
BBX 6 7 0 0
BITMAP
06DE80
2E32D5
7A007A
89006B
7A007A
2E32D5
06DE80
ENDCHAR
STARTCHAR P
ENCODING 80
SWIDTH 639 0
DWIDTH 6 0
BBX 6 7 0 0
BITMAP
5FFE90
5C01D5
5C01D5
5FFEA0
5C0000
5C0000
5C0000
ENDCHAR
STARTCHAR Q
ENCODING 81
SWIDTH 690 0
DWIDTH 6 0
BBX 6 8 0 -1
BITMAP
06EE80
3E32D5
7A007A
98006B
7A007A
3E32D5
06EFD1
000096
ENDCHAR
STARTCHAR R
ENCODING 82
SWIDTH 624 0
DWIDTH 6 0
BBX 6 7 0 0
BITMAP
5FFE70
5C02F2
5C02F2
5FFF60
5C0C60
5C05C0
5C00E4
ENDCHAR
STARTCHAR S
ENCODING 83
SWIDTH 603 0
DWIDTH 5 0
BBX 6 7 0 0
BITMAP
0AED40
6C14E0
5D3010
07EC30
2106E0
8A13F1
1AEE60
ENDCHAR
STARTCHAR T
ENCODING 84
SWIDTH 606 0
DWIDTH 5 0
BBX 6 7 0 0
BITMAP
CFFFF4
00C400
00C400
00C400
00C400
00C400
00C400
ENDCHAR
STARTCHAR U
ENCODING 85
SWIDTH 651 0
DWIDTH 6 0
BBX 6 7 0 0
BITMAP
7A00C5
7A00C5
7A00C5
7A00C5
7A00C5
4D22E2
08EE60
ENDCHAR
STARTCHAR V
ENCODING 86
SWIDTH 646 0
DWIDTH 6 0
BBX 6 7 0 0
BITMAP
B70099
6B00E4
2F13E0
0C5890
079C40
02EE00
00C900
ENDCHAR
STARTCHAR W
ENCODING 87
SWIDTH 879 0
DWIDTH 8 0
BBX 8 7 0 0
BITMAP
A609907A
790CC097
4C1DD1C3
1E4994E0
0DA56AC0
09F22F90
06D00E60
ENDCHAR
STARTCHAR X
ENCODING 88
SWIDTH 632 0
DWIDTH 6 0
BBX 6 7 0 0
BITMAP
8C01E3
1E59A0
06DE20
00EA00
06DE20
1E49A0
8B01E4
ENDCHAR
STARTCHAR Y
ENCODING 89
SWIDTH 609 0
DWIDTH 5 0
BBX 6 7 0 0
BITMAP
B701E3
4E07B0
0B6D30
04EB00
00D500
00C400
00C400
ENDCHAR
STARTCHAR Z
ENCODING 90
SWIDTH 602 0
DWIDTH 5 0
BBX 6 7 0 0
BITMAP
9FFFF0
000A80
004D10
01D400
09A000
3E1000
9FFFF2
ENDCHAR
STARTCHAR bracketleft
ENCODING 91
SWIDTH 273 0
DWIDTH 2 0
BBX 3 8 0 -1
BITMAP
6F60
6A00
6A00
6A00
6A00
6A00
6A00
6F60
ENDCHAR
STARTCHAR backslash
ENCODING 92
SWIDTH 417 0
DWIDTH 4 0
BBX 4 8 0 -1
BITMAP
B500
6A00
1E00
0B50
06A0
01E0
00B5
006A
ENDCHAR
STARTCHAR bracketright
ENCODING 93
SWIDTH 273 0
DWIDTH 2 0
BBX 2 8 0 -1
BITMAP
ED
3D
3D
3D
3D
3D
3D
ED
ENDCHAR
STARTCHAR asciicircum
ENCODING 94
SWIDTH 427 0
DWIDTH 4 0
BBX 4 3 0 4
BITMAP
0A80
2CC0
8586
ENDCHAR
STARTCHAR underscore
ENCODING 95
SWIDTH 451 0
DWIDTH 4 0
BBX 5 1 0 -1
BITMAP
FFFF10
ENDCHAR
STARTCHAR grave
ENCODING 96
SWIDTH 322 0
DWIDTH 3 0
BBX 3 2 0 6
BITMAP
7B00
0B10
ENDCHAR
STARTCHAR a
ENCODING 97
SWIDTH 541 0
DWIDTH 5 0
BBX 5 5 0 0
BITMAP
3CEA00
001D40
3CFF40
8A1D40
3DDD60
ENDCHAR
STARTCHAR b
ENCODING 98
SWIDTH 562 0
DWIDTH 5 0
BBX 5 7 0 0
BITMAP
790000
790000
7DEC20
7B1980
7906A0
7B1980
7CEC20
ENDCHAR
STARTCHAR c
ENCODING 99
SWIDTH 523 0
DWIDTH 5 0
BBX 5 5 0 0
BITMAP
1BEB10
7A1940
970000
7A1830
1BEA10
ENDCHAR
STARTCHAR d
ENCODING 100
SWIDTH 564 0
DWIDTH 5 0
BBX 5 7 0 0
BITMAP
000880
000880
1CED80
8B1A80
970880
7A1A80
1CEC80
ENDCHAR
STARTCHAR e
ENCODING 101
SWIDTH 536 0
DWIDTH 5 0
BBX 5 5 0 0
BITMAP
0AEA00
7B1B60
9FFF80
7A1310
1AEC20
ENDCHAR
STARTCHAR f
ENCODING 102
SWIDTH 354 0
DWIDTH 3 0
BBX 4 7 0 0
BITMAP
09E2
1F20
CFE0
1F00
1F00
1F00
1F00
ENDCHAR
STARTCHAR g
ENCODING 103
SWIDTH 566 0
DWIDTH 5 0
BBX 5 7 0 -2
BITMAP
1BEC80
7B1A80
970880
7B1A80
1BED80
151B60
1BEB10
ENDCHAR
STARTCHAR h
ENCODING 104
SWIDTH 555 0
DWIDTH 5 0
BBX 5 7 0 0
BITMAP
790000
790000
7CED20
7B1B60
790970
790970
790970
ENDCHAR
STARTCHAR i
ENCODING 105
SWIDTH 255 0
DWIDTH 2 0
BBX 2 8 0 0
BITMAP
01
59
00
6A
6A
6A
6A
6A
ENDCHAR
STARTCHAR j
ENCODING 106
SWIDTH 250 0
DWIDTH 2 0
BBX 3 10 -1 -2
BITMAP
0010
0690
0000
06A0
06A0
06A0
06A0
06A0
07A0
5E40
ENDCHAR
STARTCHAR k
ENCODING 107
SWIDTH 521 0
DWIDTH 5 0
BBX 5 7 0 0
BITMAP
790000
790000
793E30
7BD400
7FE200
7A7B00
790C60
ENDCHAR
STARTCHAR l
ENCODING 108
SWIDTH 255 0
DWIDTH 2 0
BBX 2 7 0 0
BITMAP
6A
6A
6A
6A
6A
6A
6A
ENDCHAR
STARTCHAR m
ENCODING 109
SWIDTH 870 0
DWIDTH 8 0
BBX 8 5 0 0
BITMAP
7CED8EB0
7B1C91D4
790970C4
790970C4
790970C4
ENDCHAR
STARTCHAR n
ENCODING 110
SWIDTH 556 0
DWIDTH 5 0
BBX 5 5 0 0
BITMAP
7CDD20
7B1B60
790970
790970
790970
ENDCHAR
STARTCHAR o
ENCODING 111
SWIDTH 569 0
DWIDTH 5 0
BBX 5 5 0 0
BITMAP
1AEB10
7B1990
9705B0
7B1990
1AEB10
ENDCHAR
STARTCHAR p
ENCODING 112
SWIDTH 562 0
DWIDTH 5 0
BBX 5 7 0 -2
BITMAP
7CEC20
7B1A80
7906A0
7B1A80
7DEC20
790000
790000
ENDCHAR
STARTCHAR q
ENCODING 113
SWIDTH 567 0
DWIDTH 5 0
BBX 5 7 0 -2
BITMAP
1CEC80
8B1A80
970880
7B1A80
1CED80
000880
000880
ENDCHAR
STARTCHAR r
ENCODING 114
SWIDTH 351 0
DWIDTH 3 0
BBX 4 5 0 0
BITMAP
7CE1
7B10
7900
7900
7900
ENDCHAR
STARTCHAR s
ENCODING 115
SWIDTH 516 0
DWIDTH 5 0
BBX 5 5 0 0
BITMAP
2CFC10
7B0000
1AD800
001E30
5DFA00
ENDCHAR
STARTCHAR t
ENCODING 116
SWIDTH 332 0
DWIDTH 3 0
BBX 3 6 0 0
BITMAP
3D00
FFB0
3D00
3D00
3E00
1DB0
ENDCHAR
STARTCHAR u
ENCODING 117
SWIDTH 555 0
DWIDTH 5 0
BBX 5 5 0 0
BITMAP
790970
790970
790970
7B1B70
2DEC70
ENDCHAR
STARTCHAR v
ENCODING 118
SWIDTH 494 0
DWIDTH 4 0
BBX 5 5 0 0
BITMAP
B50E20
693D00
1D7800
0BE300
06D000
ENDCHAR
STARTCHAR w
ENCODING 119
SWIDTH 743 0
DWIDTH 7 0
BBX 7 5 0 0
BITMAP
B43D0960
787E2D20
3BC78D00
0DB2E900
0A70C500
ENDCHAR
STARTCHAR x
ENCODING 120
SWIDTH 502 0
DWIDTH 5 0
BBX 5 5 0 0
BITMAP
892E10
1DC700
08F100
1DB800
892E20
ENDCHAR
STARTCHAR y
ENCODING 121
SWIDTH 486 0
DWIDTH 4 0
BBX 5 7 0 -2
BITMAP
C50E20
7A4C00
2E8700
0BE200
06C000
097000
8D1000
ENDCHAR
STARTCHAR z
ENCODING 122
SWIDTH 502 0
DWIDTH 5 0
BBX 5 5 0 0
BITMAP
9FFF20
009900
06C000
2D2000
9FFF30
ENDCHAR
STARTCHAR braceleft
ENCODING 123
SWIDTH 335 0
DWIDTH 3 0
BBX 3 9 0 -2
BITMAP
04A0
0C30
0E10
1E00
B900
1E00
0E10
0C30
04A0
ENDCHAR
STARTCHAR bar
ENCODING 124
SWIDTH 250 0
DWIDTH 2 0
BBX 2 8 0 -1
BITMAP
48
48
48
48
48
48
48
48
ENDCHAR
STARTCHAR braceright
ENCODING 125
SWIDTH 335 0
DWIDTH 3 0
BBX 3 9 0 -2
BITMAP
A400
3C00
1E00
0E10
08C0
0E10
1E00
3C00
A400
ENDCHAR
STARTCHAR asciitilde
ENCODING 126
SWIDTH 664 0
DWIDTH 6 0
BBX 6 2 0 2
BITMAP
2DD375
574DD1
ENDCHAR
STARTCHAR uni00A0
ENCODING 160
SWIDTH 249 0
DWIDTH 2 0
BBX 1 1 0 0
BITMAP
00
ENDCHAR
STARTCHAR exclamdown
ENCODING 161
SWIDTH 264 0
DWIDTH 2 0
BBX 2 7 0 -2
BITMAP
4A
01
4A
4A
5B
5B
5B
ENDCHAR
STARTCHAR cent
ENCODING 162
SWIDTH 561 0
DWIDTH 5 0
BBX 5 7 0 -1
BITMAP
00D000
0AFC10
6B1960
880000
6B1750
1AFC10
00D000
ENDCHAR
STARTCHAR sterling
ENCODING 163
SWIDTH 588 0
DWIDTH 5 0
BBX 6 7 0 0
BITMAP
05EE50
0D65C0
0E3000
9FF900
0D4000
0E2000
8FFFF1
ENDCHAR
STARTCHAR currency
ENCODING 164
SWIDTH 701 0
DWIDTH 6 0
BBX 6 6 0 0
BITMAP
5BDE9B
2E31B7
67002B
67002B
2E31B8
5ADE9A
ENDCHAR
STARTCHAR yen
ENCODING 165
SWIDTH 531 0
DWIDTH 5 0
BBX 5 7 0 0
BITMAP
B70A80
6C1F30
1EAC00
09F600
8FFF40
8FFF40
03E000
ENDCHAR
STARTCHAR brokenbar
ENCODING 166
SWIDTH 248 0
DWIDTH 2 0
BBX 2 8 0 -1
BITMAP
69
69
69
69
00
69
69
69
ENDCHAR
STARTCHAR section
ENCODING 167
SWIDTH 621 0
DWIDTH 6 0
BBX 6 9 0 -2
BITMAP
1AED50
5C14E0
3E7200
4CAE80
8902F1
2DC9C0
005BB0
8A15D0
1BED50
ENDCHAR
STARTCHAR dieresis
ENCODING 168
SWIDTH 439 0
DWIDTH 4 0
BBX 4 1 0 6
BITMAP
7676
ENDCHAR
STARTCHAR copyright
ENCODING 169
SWIDTH 783 0
DWIDTH 7 0
BBX 7 7 0 0
BITMAP
03CEC300
1C303C10
73AF9370
81B11080
73AF9370
2C303C10
03CFC300
ENDCHAR
STARTCHAR ordfeminine
ENCODING 170
SWIDTH 445 0
DWIDTH 4 0
BBX 4 4 0 3
BITMAP
2CD1
0085
3EF5
3ED6
ENDCHAR
STARTCHAR guillemotleft
ENCODING 171
SWIDTH 485 0
DWIDTH 4 0
BBX 4 3 0 1
BITMAP
0A58
77C1
0A59
ENDCHAR
STARTCHAR logicalnot
ENCODING 172
SWIDTH 553 0
DWIDTH 5 0
BBX 5 2 0 2
BITMAP
7FFF40
000A40
ENDCHAR
STARTCHAR uni00AD
ENCODING 173
SWIDTH 328 0
DWIDTH 3 0
BBX 3 1 0 2
BITMAP
AF90
ENDCHAR
STARTCHAR registered
ENCODING 174
SWIDTH 783 0
DWIDTH 7 0
BBX 7 7 0 0
BITMAP
03CEC300
1C303C10
73CF9370
80CFA080
73A0B370
2C303C10
03CFC300
ENDCHAR
STARTCHAR macron
ENCODING 175
SWIDTH 481 0
DWIDTH 4 0
BBX 4 1 0 5
BITMAP
5FFB
ENDCHAR
STARTCHAR degree
ENCODING 176
SWIDTH 379 0
DWIDTH 3 0
BBX 3 3 0 4
BITMAP
2D70
65A0
2E70
ENDCHAR
STARTCHAR plusminus
ENCODING 177
SWIDTH 536 0
DWIDTH 5 0
BBX 5 6 0 0
BITMAP
009000
00E000
9FFF70
00E000
001000
7FFF40
ENDCHAR
STARTCHAR uni00B2
ENCODING 178
SWIDTH 370 0
DWIDTH 3 0
BBX 3 4 0 3
BITMAP
6E90
42C0
1A30
AFF0
ENDCHAR
STARTCHAR uni00B3
ENCODING 179
SWIDTH 370 0
DWIDTH 3 0
BBX 3 4 0 3
BITMAP
4DB0
0CA0
21D0
7E90
ENDCHAR
STARTCHAR acute
ENCODING 180
SWIDTH 325 0
DWIDTH 3 0
BBX 3 2 0 6
BITMAP
1D40
4900
ENDCHAR
STARTCHAR mu
ENCODING 181
SWIDTH 591 0
DWIDTH 5 0
BBX 5 7 0 -2
BITMAP
5B07A0
5B07A0
5B07A0
5D19A0
5EEDA0
5B0000
5B0000
ENDCHAR
STARTCHAR paragraph
ENCODING 182
SWIDTH 490 0
DWIDTH 4 0
BBX 4 7 0 0
BITMAP
1BFB
8FFB
AFFB
5FFB
049B
003B
003B
ENDCHAR
STARTCHAR periodcentered
ENCODING 183
SWIDTH 282 0
DWIDTH 3 0
BBX 2 2 0 2
BITMAP
4B
01
ENDCHAR
STARTCHAR cedilla
ENCODING 184
SWIDTH 257 0
DWIDTH 2 0
BBX 2 2 0 -2
BITMAP
3B
6B
ENDCHAR
STARTCHAR uni00B9
ENCODING 185
SWIDTH 370 0
DWIDTH 3 0
BBX 3 4 0 3
BITMAP
3B40
4B40
0840
0840
ENDCHAR
STARTCHAR ordmasculine
ENCODING 186
SWIDTH 456 0
DWIDTH 4 0
BBX 4 4 0 3
BITMAP
2DD2
7768
7768
1DD2
ENDCHAR
STARTCHAR guillemotright
ENCODING 187
SWIDTH 485 0
DWIDTH 4 0
BBX 4 3 0 1
BITMAP
3984
0A5C
3984
ENDCHAR
STARTCHAR onequarter
ENCODING 188
SWIDTH 726 0
DWIDTH 7 0
BBX 7 7 0 0
BITMAP
2A100000
9E109000
0B147000
0B1A7C00
0058AC00
00BAFF30
05401C00
ENDCHAR
STARTCHAR onehalf
ENCODING 189
SWIDTH 770 0
DWIDTH 7 0
BBX 7 7 0 0
BITMAP
2B100000
9E109000
0C175000
0C2BCE20
00844950
02906900
0722FF80
ENDCHAR
STARTCHAR threequarters
ENCODING 190
SWIDTH 792 0
DWIDTH 7 0
BBX 7 7 0 0
BITMAP
4ED10000
09D02700
33B29200
3EC49D50
000A9B50
0058FFB0
00900850
ENDCHAR
STARTCHAR questiondown
ENCODING 191
SWIDTH 486 0
DWIDTH 4 0
BBX 4 7 0 -2
BITMAP
04B0
0010
05A0
1D40
8900
A83D
3DE7
ENDCHAR
STARTCHAR Agrave
ENCODING 192
SWIDTH 665 0
DWIDTH 6 0
BBX 6 10 0 0
BITMAP
03E100
009500
000000
00AA00
01EE10
069950
0B44B0
1FFFF1
6900A6
B5006B
ENDCHAR
STARTCHAR Aacute
ENCODING 193
SWIDTH 665 0
DWIDTH 6 0
BBX 6 10 0 0
BITMAP
001E40
004900
000000
00AA00
01EE10
069950
0B44B0
1FFFF1
6900A6
B5006B
ENDCHAR
STARTCHAR Acircumflex
ENCODING 194
SWIDTH 665 0
DWIDTH 6 0
BBX 6 10 0 0
BITMAP
00BB00
039940
000000
00AA00
01EE10
069950
0B44B0
1FFFF1
6900A6
B5006B
ENDCHAR
STARTCHAR Atilde
ENCODING 195
SWIDTH 665 0
DWIDTH 6 0
BBX 6 10 0 0
BITMAP
04D480
084D40
000000
00AA00
01EE10
069950
0B44B0
1FFFF1
6900A6
B5006B
ENDCHAR
STARTCHAR Adieresis
ENCODING 196
SWIDTH 665 0
DWIDTH 6 0
BBX 6 9 0 0
BITMAP
066660
000000
00AA00
01EE10
069950
0B44B0
1FFFF1
6900A6
B5006B
ENDCHAR
STARTCHAR Aring
ENCODING 197
SWIDTH 665 0
DWIDTH 6 0
BBX 6 10 0 0
BITMAP
00BB00
00BC00
000000
00AA00
01EE10
069950
0B44B0
1FFFF1
6900A6
B5006B
ENDCHAR
STARTCHAR AE
ENCODING 198
SWIDTH 939 0
DWIDTH 8 0
BBX 9 7 0 0
BITMAP
000AFFFF00
003DE20000
00A6D30000
03C0CFF900
0BFFF40000
4D00B50000
C700BFFF40
ENDCHAR
STARTCHAR Ccedilla
ENCODING 199
SWIDTH 652 0
DWIDTH 6 0
BBX 6 9 0 -2
BITMAP
06EE80
3E31D4
7A0032
890000
7A0022
3E31D5
07EE80
003B00
006B00
ENDCHAR
STARTCHAR Egrave
ENCODING 200
SWIDTH 565 0
DWIDTH 5 0
BBX 5 10 0 0
BITMAP
07B000
00B200
000000
5FFFC0
5C0000
5C0000
5FFF60
5C0000
5C0000
5FFFC0
ENDCHAR
STARTCHAR Eacute
ENCODING 201
SWIDTH 565 0
DWIDTH 5 0
BBX 5 10 0 0
BITMAP
003E10
008500
000000
5FFFC0
5C0000
5C0000
5FFF60
5C0000
5C0000
5FFFC0
ENDCHAR
STARTCHAR Ecircumflex
ENCODING 202
SWIDTH 565 0
DWIDTH 5 0
BBX 5 10 0 0
BITMAP
01D700
076B10
000000
5FFFC0
5C0000
5C0000
5FFF60
5C0000
5C0000
5FFFC0
ENDCHAR
STARTCHAR Edieresis
ENCODING 203
SWIDTH 565 0
DWIDTH 5 0
BBX 5 9 0 0
BITMAP
0A2A30
000000
5FFFC0
5C0000
5C0000
5FFF60
5C0000
5C0000
5FFFC0
ENDCHAR
STARTCHAR Igrave
ENCODING 204
SWIDTH 282 0
DWIDTH 3 0
BBX 3 10 -1 0
BITMAP
1E40
0580
0000
04C0
04C0
04C0
04C0
04C0
04C0
04C0
ENDCHAR
STARTCHAR Iacute
ENCODING 205
SWIDTH 282 0
DWIDTH 3 0
BBX 3 10 0 0
BITMAP
0B70
1B00
0000
4C00
4C00
4C00
4C00
4C00
4C00
4C00
ENDCHAR
STARTCHAR Icircumflex
ENCODING 206
SWIDTH 282 0
DWIDTH 3 0
BBX 4 10 -1 0
BITMAP
07D2
1B67
0000
04C0
04C0
04C0
04C0
04C0
04C0
04C0
ENDCHAR
STARTCHAR Idieresis
ENCODING 207
SWIDTH 282 0
DWIDTH 3 0
BBX 4 9 -1 0
BITMAP
2A2A
0000
04C0
04C0
04C0
04C0
04C0
04C0
04C0
ENDCHAR
STARTCHAR Eth
ENCODING 208
SWIDTH 667 0
DWIDTH 6 0
BBX 7 7 -1 0
BITMAP
03FFD400
03D04E20
03D00A70
1FFE0980
03D00A70
03D04E20
03FFD500
ENDCHAR
STARTCHAR Ntilde
ENCODING 209
SWIDTH 709 0
DWIDTH 6 0
BBX 6 10 0 0
BITMAP
02D3A0
055B60
000000
5E106B
5F906B
5CE36B
5C6C6B
5C0CBB
5C04FB
5C00AB
ENDCHAR
STARTCHAR Ograve
ENCODING 210
SWIDTH 690 0
DWIDTH 6 0
BBX 6 10 0 0
BITMAP
02E200
008600
000000
06DE80
2E32D5
7A007A
89006B
7A007A
2E32D5
06DE80
ENDCHAR
STARTCHAR Oacute
ENCODING 211
SWIDTH 690 0
DWIDTH 6 0
BBX 6 10 0 0
BITMAP
000D50
003A00
000000
06DE80
2E32D5
7A007A
89006B
7A007A
2E32D5
06DE80
ENDCHAR
STARTCHAR Ocircumflex
ENCODING 212
SWIDTH 690 0
DWIDTH 6 0
BBX 6 10 0 0
BITMAP
009C10
02A850
000000
06DE80
2E32D5
7A007A
89006B
7A007A
2E32D5
06DE80
ENDCHAR
STARTCHAR Otilde
ENCODING 213
SWIDTH 690 0
DWIDTH 6 0
BBX 6 10 0 0
BITMAP
02D3A0
075C50
000000
06DE80
2E32D5
7A007A
89006B
7A007A
2E32D5
06DE80
ENDCHAR
STARTCHAR Odieresis
ENCODING 214
SWIDTH 690 0
DWIDTH 6 0
BBX 6 9 0 0
BITMAP
058580
000000
06DE80
2E32D5
7A007A
89006B
7A007A
2E32D5
06DE80
ENDCHAR
STARTCHAR multiply
ENCODING 215
SWIDTH 533 0
DWIDTH 5 0
BBX 5 4 0 1
BITMAP
670A20
1BD800
1BD800
670A20
ENDCHAR
STARTCHAR Oslash
ENCODING 216
SWIDTH 689 0
DWIDTH 6 0
BBX 6 9 0 -1
BITMAP
000002
06DEB5
2E32F5
7A08AA
89295C
6A917A
2E92C6
0CDE80
130000
ENDCHAR
STARTCHAR Ugrave
ENCODING 217
SWIDTH 651 0
DWIDTH 6 0
BBX 6 10 0 0
BITMAP
04D100
00A400
000000
7A00C5
7A00C5
7A00C5
7A00C5
7A00C5
4D22E2
08EE60
ENDCHAR
STARTCHAR Uacute
ENCODING 218
SWIDTH 651 0
DWIDTH 6 0
BBX 6 10 0 0
BITMAP
001E30
005800
000000
7A00C5
7A00C5
7A00C5
7A00C5
7A00C5
4D22E2
08EE60
ENDCHAR
STARTCHAR Ucircumflex
ENCODING 219
SWIDTH 651 0
DWIDTH 6 0
BBX 6 10 0 0
BITMAP
00BA00
048A30
000000
7A00C5
7A00C5
7A00C5
7A00C5
7A00C5
4D22E2
08EE60
ENDCHAR
STARTCHAR Udieresis
ENCODING 220
SWIDTH 651 0
DWIDTH 6 0
BBX 6 9 0 0
BITMAP
075750
000000
7A00C5
7A00C5
7A00C5
7A00C5
7A00C5
4D22E2
08EE60
ENDCHAR
STARTCHAR Yacute
ENCODING 221
SWIDTH 609 0
DWIDTH 5 0
BBX 6 10 0 0
BITMAP
003E10
008500
000000
B701E3
4E07B0
0B6D30
04EB00
00D500
00C400
00C400
ENDCHAR
STARTCHAR Thorn
ENCODING 222
SWIDTH 598 0
DWIDTH 5 0
BBX 5 7 0 0
BITMAP
5B0000
5FFD30
5B06D0
5B01F0
5B05D0
5FFD40
5B0000
ENDCHAR
STARTCHAR germandbls
ENCODING 223
SWIDTH 612 0
DWIDTH 6 0
BBX 6 7 0 0
BITMAP
0BEB00
5C1D40
6A1D10
6A4D00
6A09B0
6A21E2
6ABFA0
ENDCHAR
STARTCHAR agrave
ENCODING 224
SWIDTH 541 0
DWIDTH 5 0
BBX 5 8 0 0
BITMAP
0B7000
02B000
000000
3CEA00
001D40
3CFF40
8A1D40
3DDD60
ENDCHAR
STARTCHAR aacute
ENCODING 225
SWIDTH 541 0
DWIDTH 5 0
BBX 5 8 0 0
BITMAP
007B00
00B200
000000
3CEA00
001D40
3CFF40
8A1D40
3DDD60
ENDCHAR
STARTCHAR acircumflex
ENCODING 226
SWIDTH 541 0
DWIDTH 5 0
BBX 5 8 0 0
BITMAP
04E400
0A5B00
000000
3CEA00
001D40
3CFF40
8A1D40
3DDD60
ENDCHAR
STARTCHAR atilde
ENCODING 227
SWIDTH 541 0
DWIDTH 5 0
BBX 5 8 0 0
BITMAP
0B7A10
198B00
000000
3CEA00
001D40
3CFF40
8A1D40
3DDD60
ENDCHAR
STARTCHAR adieresis
ENCODING 228
SWIDTH 541 0
DWIDTH 5 0
BBX 5 7 0 0
BITMAP
0C0C00
000000
3CEA00
001D40
3CFF40
8A1D40
3DDD60
ENDCHAR
STARTCHAR aring
ENCODING 229
SWIDTH 541 0
DWIDTH 5 0
BBX 5 8 0 0
BITMAP
04E400
04E400
000000
3CEA00
001D40
3CFF40
8A1D40
3DDD60
ENDCHAR
STARTCHAR ae
ENCODING 230
SWIDTH 844 0
DWIDTH 8 0
BBX 8 5 0 0
BITMAP
2CEACE90
471D91D3
4DFFFFF5
A91D8130
4EE8BEC1
ENDCHAR
STARTCHAR ccedilla
ENCODING 231
SWIDTH 523 0
DWIDTH 5 0
BBX 5 7 0 -2
BITMAP
1BEB10
7A1940
970000
7A1830
1BEA10
00B300
01E300
ENDCHAR
STARTCHAR egrave
ENCODING 232
SWIDTH 536 0
DWIDTH 5 0
BBX 5 8 0 0
BITMAP
0C6000
03A000
000000
0AEA00
7B1B60
9FFF80
7A1310
1AEC20
ENDCHAR
STARTCHAR eacute
ENCODING 233
SWIDTH 536 0
DWIDTH 5 0
BBX 5 8 0 0
BITMAP
008A00
00B200
000000
0AEA00
7B1B60
9FFF80
7A1310
1AEC20
ENDCHAR
STARTCHAR ecircumflex
ENCODING 234
SWIDTH 536 0
DWIDTH 5 0
BBX 5 8 0 0
BITMAP
04E300
0B5A00
000000
0AEA00
7B1B60
9FFF80
7A1310
1AEC20
ENDCHAR
STARTCHAR edieresis
ENCODING 235
SWIDTH 536 0
DWIDTH 5 0
BBX 5 7 0 0
BITMAP
1C0C00
000000
0AEA00
7B1B60
9FFF80
7A1310
1AEC20
ENDCHAR
STARTCHAR igrave
ENCODING 236
SWIDTH 262 0
DWIDTH 2 0
BBX 3 8 -1 0
BITMAP
1E30
0670
0000
06B0
06B0
06B0
06B0
06B0
ENDCHAR
STARTCHAR iacute
ENCODING 237
SWIDTH 262 0
DWIDTH 2 0
BBX 3 8 0 0
BITMAP
0C60
2B00
0000
6B00
6B00
6B00
6B00
6B00
ENDCHAR
STARTCHAR icircumflex
ENCODING 238
SWIDTH 262 0
DWIDTH 2 0
BBX 4 8 -1 0
BITMAP
08D1
2B76
0000
06B0
06B0
06B0
06B0
06B0
ENDCHAR
STARTCHAR idieresis
ENCODING 239
SWIDTH 262 0
DWIDTH 2 0
BBX 4 7 -1 0
BITMAP
4939
0000
06B0
06B0
06B0
06B0
06B0
ENDCHAR
STARTCHAR eth
ENCODING 240
SWIDTH 581 0
DWIDTH 5 0
BBX 5 7 0 0
BITMAP
0B9620
03ED10
034C70
1BEEB0
6B16C0
7B1890
1AEB10
ENDCHAR
STARTCHAR ntilde
ENCODING 241
SWIDTH 556 0
DWIDTH 5 0
BBX 5 8 0 0
BITMAP
0B7910
1A7B00
000000
7CDD20
7B1B60
790970
790970
790970
ENDCHAR
STARTCHAR ograve
ENCODING 242
SWIDTH 569 0
DWIDTH 5 0
BBX 5 8 0 0
BITMAP
0A8000
02B000
000000
1AEB10
7B1990
9705B0
7B1990
1AEB10
ENDCHAR
STARTCHAR oacute
ENCODING 243
SWIDTH 569 0
DWIDTH 5 0
BBX 5 8 0 0
BITMAP
007B00
00A300
000000
1AEB10
7B1990
9705B0
7B1990
1AEB10
ENDCHAR
STARTCHAR ocircumflex
ENCODING 244
SWIDTH 569 0
DWIDTH 5 0
BBX 5 8 0 0
BITMAP
03E400
0A5B00
000000
1AEB10
7B1990
9705B0
7B1990
1AEB10
ENDCHAR
STARTCHAR otilde
ENCODING 245
SWIDTH 569 0
DWIDTH 5 0
BBX 5 8 0 0
BITMAP
0A8910
0A7B00
000000
1AEB10
7B1990
9705B0
7B1990
1AEB10
ENDCHAR
STARTCHAR odieresis
ENCODING 246
SWIDTH 569 0
DWIDTH 5 0
BBX 5 7 0 0
BITMAP
0C0C00
000000
1AEB10
7B1990
9705B0
7B1990
1AEB10
ENDCHAR
STARTCHAR divide
ENCODING 247
SWIDTH 570 0
DWIDTH 5 0
BBX 5 7 0 -1
BITMAP
001000
00E100
000000
BFFFB0
000000
00D100
001000
ENDCHAR
STARTCHAR oslash
ENCODING 248
SWIDTH 566 0
DWIDTH 5 0
BBX 5 7 0 -1
BITMAP
000320
1AEE10
7B4D80
9795B0
7C7990
0DEB10
140000
ENDCHAR
STARTCHAR ugrave
ENCODING 249
SWIDTH 555 0
DWIDTH 5 0
BBX 5 8 0 0
BITMAP
0B7000
02B000
000000
790970
790970
790970
7B1B70
2DEC70
ENDCHAR
STARTCHAR uacute
ENCODING 250
SWIDTH 555 0
DWIDTH 5 0
BBX 5 8 0 0
BITMAP
007B00
00B200
000000
790970
790970
790970
7B1B70
2DEC70
ENDCHAR
STARTCHAR ucircumflex
ENCODING 251
SWIDTH 555 0
DWIDTH 5 0
BBX 5 8 0 0
BITMAP
04E400
0A5B00
000000
790970
790970
790970
7B1B70
2DEC70
ENDCHAR
STARTCHAR udieresis
ENCODING 252
SWIDTH 555 0
DWIDTH 5 0
BBX 5 7 0 0
BITMAP
0C0C00
000000
790970
790970
790970
7B1B70
2DEC70
ENDCHAR
STARTCHAR yacute
ENCODING 253
SWIDTH 486 0
DWIDTH 4 0
BBX 5 10 0 -2
BITMAP
00B700
01B000
000000
C50E20
7A4C00
2E8700
0BE200
06C000
097000
8D1000
ENDCHAR
STARTCHAR thorn
ENCODING 254
SWIDTH 573 0
DWIDTH 5 0
BBX 5 9 0 -2
BITMAP
6A0000
6A0000
6DEC20
6B1990
6A05B0
6B1990
6DEC20
6A0000
6A0000
ENDCHAR
STARTCHAR ydieresis
ENCODING 255
SWIDTH 486 0
DWIDTH 4 0
BBX 5 9 0 -2
BITMAP
3A2A00
000000
C50E20
7A4C00
2E8700
0BE200
06C000
097000
8D1000
ENDCHAR
STARTCHAR Amacron
ENCODING 256
SWIDTH 665 0
DWIDTH 6 0
BBX 6 7 0 0
BITMAP
07FF80
01EE10
069950
0B44B0
1FFFF1
6900A6
B5006B
ENDCHAR
STARTCHAR amacron
ENCODING 257
SWIDTH 541 0
DWIDTH 5 0
BBX 5 7 0 0
BITMAP
0FFF00
000000
3CEA00
001D40
3CFF40
8A1D40
3DDD60
ENDCHAR
STARTCHAR Abreve
ENCODING 258
SWIDTH 665 0
DWIDTH 6 0
BBX 6 10 0 0
BITMAP
058860
01CC10
000000
00AA00
01EE10
069950
0B44B0
1FFFF1
6900A6
B5006B
ENDCHAR
STARTCHAR abreve
ENCODING 259
SWIDTH 541 0
DWIDTH 5 0
BBX 5 8 0 0
BITMAP
0C2C00
06E600
000000
3CEA00
001D40
3CFF40
8A1D40
3DDD60
ENDCHAR
STARTCHAR Aogonek
ENCODING 260
SWIDTH 665 0
DWIDTH 6 0
BBX 6 9 0 -2
BITMAP
00AA00
01EE10
069950
0B44B0
1FFFF1
6900A6
B5006B
0000A3
0000AA
ENDCHAR
STARTCHAR aogonek
ENCODING 261
SWIDTH 541 0
DWIDTH 5 0
BBX 5 7 0 -2
BITMAP
3CEA00
001D40
3CFF40
8A1D40
3DDD60
001B10
002E40
ENDCHAR
STARTCHAR Cacute
ENCODING 262
SWIDTH 652 0
DWIDTH 6 0
BBX 6 10 0 0
BITMAP
001E30
004900
000000
06EE80
3E31D4
7A0032
890000
7A0022
3E31D5
07EE80
ENDCHAR
STARTCHAR cacute
ENCODING 263
SWIDTH 523 0
DWIDTH 5 0
BBX 5 8 0 0
BITMAP
009900
01C100
000000
1BEB10
7A1940
970000
7A1830
1BEA10
ENDCHAR
STARTCHAR Ccircumflex
ENCODING 264
SWIDTH 652 0
DWIDTH 6 0
BBX 6 10 0 0
BITMAP
00BB00
049940
000000
06EE80
3E31D4
7A0032
890000
7A0022
3E31D5
07EE80
ENDCHAR
STARTCHAR ccircumflex
ENCODING 265
SWIDTH 523 0
DWIDTH 5 0
BBX 5 8 0 0
BITMAP
06E200
0B6800
000000
1BEB10
7A1940
970000
7A1830
1BEA10
ENDCHAR
STARTCHAR Cdotaccent
ENCODING 266
SWIDTH 652 0
DWIDTH 6 0
BBX 6 9 0 0
BITMAP
007700
000000
06EE80
3E31D4
7A0032
890000
7A0022
3E31D5
07EE80
ENDCHAR
STARTCHAR cdotaccent
ENCODING 267
SWIDTH 523 0
DWIDTH 5 0
BBX 5 7 0 0
BITMAP
02B000
000000
1BEB10
7A1940
970000
7A1830
1BEA10
ENDCHAR
STARTCHAR Ccaron
ENCODING 268
SWIDTH 652 0
DWIDTH 6 0
BBX 6 10 0 0
BITMAP
04AA40
00AA00
000000
06EE80
3E31D4
7A0032
890000
7A0022
3E31D5
07EE80
ENDCHAR
STARTCHAR ccaron
ENCODING 269
SWIDTH 523 0
DWIDTH 5 0
BBX 5 8 0 0
BITMAP
1C6900
05E100
000000
1BEB10
7A1940
970000
7A1830
1BEA10
ENDCHAR
STARTCHAR Dcaron
ENCODING 270
SWIDTH 653 0
DWIDTH 6 0
BBX 6 10 0 0
BITMAP
0B5B00
03E300
000000
5FFC30
5C05E1
5C00C5
5C00B6
5C00C5
5C06E1
5FFC30
ENDCHAR
STARTCHAR dcaron
ENCODING 271
SWIDTH 637 0
DWIDTH 6 0
BBX 6 7 0 0
BITMAP
00088D
000899
1CED80
8B1A80
970880
7A1A80
1CEC80
ENDCHAR
STARTCHAR Dcroat
ENCODING 272
SWIDTH 667 0
DWIDTH 6 0
BBX 7 7 -1 0
BITMAP
03FFD400
03D04E20
03D00A70
1FFE0980
03D00A70
03D04E20
03FFD500
ENDCHAR
STARTCHAR dcroat
ENCODING 273
SWIDTH 615 0
DWIDTH 6 0
BBX 6 8 0 0
BITMAP
000880
00AFF4
000880
1CED80
8B1A80
970880
7A1A80
1CEC80
ENDCHAR
STARTCHAR Emacron
ENCODING 274
SWIDTH 565 0
DWIDTH 5 0
BBX 5 7 0 0
BITMAP
5FFFF0
5C0000
5C0000
5FFF60
5C0000
5C0000
5FFFC0
ENDCHAR
STARTCHAR emacron
ENCODING 275
SWIDTH 536 0
DWIDTH 5 0
BBX 5 7 0 0
BITMAP
1FFF00
000000
0AEA00
7B1B60
9FFF80
7A1310
1AEC20
ENDCHAR
STARTCHAR Ebreve
ENCODING 276
SWIDTH 565 0
DWIDTH 5 0
BBX 5 10 0 0
BITMAP
094C20
03EA00
000000
5FFFC0
5C0000
5C0000
5FFF60
5C0000
5C0000
5FFFC0
ENDCHAR
STARTCHAR ebreve
ENCODING 277
SWIDTH 536 0
DWIDTH 5 0
BBX 5 8 0 0
BITMAP
0D2C00
07E600
000000
0AEA00
7B1B60
9FFF80
7A1310
1AEC20
ENDCHAR
STARTCHAR Edotaccent
ENCODING 278
SWIDTH 565 0
DWIDTH 5 0
BBX 5 9 0 0
BITMAP
00A300
000000
5FFFC0
5C0000
5C0000
5FFF60
5C0000
5C0000
5FFFC0
ENDCHAR
STARTCHAR edotaccent
ENCODING 279
SWIDTH 536 0
DWIDTH 5 0
BBX 5 7 0 0
BITMAP
01D000
000000
0AEA00
7B1B60
9FFF80
7A1310
1AEC20
ENDCHAR
STARTCHAR Eogonek
ENCODING 280
SWIDTH 565 0
DWIDTH 5 0
BBX 5 9 0 -2
BITMAP
5FFFC0
5C0000
5C0000
5FFF60
5C0000
5C0000
5FFFC0
001B10
001D50
ENDCHAR
STARTCHAR eogonek
ENCODING 281
SWIDTH 536 0
DWIDTH 5 0
BBX 5 7 0 -2
BITMAP
0AEA00
7B1B60
9FFF80
7A1310
1AFD20
00C200
00AA00
ENDCHAR
STARTCHAR Ecaron
ENCODING 282
SWIDTH 565 0
DWIDTH 5 0
BBX 5 10 0 0
BITMAP
087C10
01D600
000000
5FFFC0
5C0000
5C0000
5FFF60
5C0000
5C0000
5FFFC0
ENDCHAR
STARTCHAR ecaron
ENCODING 283
SWIDTH 536 0
DWIDTH 5 0
BBX 5 8 0 0
BITMAP
0C5B00
03E200
000000
0AEA00
7B1B60
9FFF80
7A1310
1AEC20
ENDCHAR
STARTCHAR Gcircumflex
ENCODING 284
SWIDTH 680 0
DWIDTH 6 0
BBX 6 10 0 0
BITMAP
00BB00
049940
000000
06DE90
2E31C5
7A0011
890DF8
7A0088
2E41A8
05DFB2
ENDCHAR
STARTCHAR gcircumflex
ENCODING 285
SWIDTH 566 0
DWIDTH 5 0
BBX 5 10 0 -2
BITMAP
04E300
0B5A00
000000
1BEC80
7B1A80
970880
7B1A80
1BED80
151B60
1BEB10
ENDCHAR
STARTCHAR Gbreve
ENCODING 286
SWIDTH 680 0
DWIDTH 6 0
BBX 6 10 0 0
BITMAP
058850
01CC10
000000
06DE90
2E31C5
7A0011
890DF8
7A0088
2E41A8
05DFB2
ENDCHAR
STARTCHAR gbreve
ENCODING 287
SWIDTH 566 0
DWIDTH 5 0
BBX 5 10 0 -2
BITMAP
0D2C00
07E500
000000
1BEC80
7B1A80
970880
7B1A80
1BED80
151B60
1BEB10
ENDCHAR
STARTCHAR Gdotaccent
ENCODING 288
SWIDTH 680 0
DWIDTH 6 0
BBX 6 9 0 0
BITMAP
007600
000000
06DE90
2E31C5
7A0011
890DF8
7A0088
2E41A8
05DFB2
ENDCHAR
STARTCHAR gdotaccent
ENCODING 289
SWIDTH 566 0
DWIDTH 5 0
BBX 5 9 0 -2
BITMAP
01D000
000000
1BEC80
7B1A80
970880
7B1A80
1BED80
151B60
1BEB10
ENDCHAR
STARTCHAR uni0122
ENCODING 290
SWIDTH 680 0
DWIDTH 6 0
BBX 6 10 0 -3
BITMAP
06DE90
2E31C5
7A0011
890DF8
7A0088
2E41A8
05DFB2
000000
004900
006400
ENDCHAR
STARTCHAR uni0123
ENCODING 291
SWIDTH 566 0
DWIDTH 5 0
BBX 5 10 0 -2
BITMAP
00A100
00D000
000000
1BEC80
7B1A80
970880
7B1A80
1BED80
151B60
1BEB10
ENDCHAR
STARTCHAR Hcircumflex
ENCODING 292
SWIDTH 710 0
DWIDTH 6 0
BBX 6 10 0 0
BITMAP
009C10
02B760
000000
5C006B
5C006B
5C006B
5FFFFB
5C006B
5C006B
5C006B
ENDCHAR
STARTCHAR hcircumflex
ENCODING 293
SWIDTH 555 0
DWIDTH 5 0
BBX 5 10 0 0
BITMAP
07D100
1B6700
000000
790000
790000
7CED20
7B1B60
790970
790970
790970
ENDCHAR
STARTCHAR Hbar
ENCODING 294
SWIDTH 710 0
DWIDTH 6 0
BBX 7 7 0 0
BITMAP
5C005B00
DFFFFF50
5C005B00
5FFFFB00
5C005B00
5C005B00
5C005B00
ENDCHAR
STARTCHAR hbar
ENCODING 295
SWIDTH 569 0
DWIDTH 5 0
BBX 6 8 -1 0
BITMAP
05B000
3FFB00
05B000
05DDE3
05D198
05B079
05B079
05B079
ENDCHAR
STARTCHAR Itilde
ENCODING 296
SWIDTH 282 0
DWIDTH 3 0
BBX 4 10 -1 0
BITMAP
1D4A
46B7
0000
04C0
04C0
04C0
04C0
04C0
04C0
04C0
ENDCHAR
STARTCHAR itilde
ENCODING 297
SWIDTH 262 0
DWIDTH 2 0
BBX 4 8 -1 0
BITMAP
2D3A
65C6
0000
06B0
06B0
06B0
06B0
06B0
ENDCHAR
STARTCHAR Imacron
ENCODING 298
SWIDTH 282 0
DWIDTH 3 0
BBX 4 7 -1 0
BITMAP
3FFC
04C0
04C0
04C0
04C0
04C0
04C0
ENDCHAR
STARTCHAR imacron
ENCODING 299
SWIDTH 262 0
DWIDTH 2 0
BBX 4 7 -1 0
BITMAP
5FFB
0000
06B0
06B0
06B0
06B0
06B0
ENDCHAR
STARTCHAR Ibreve
ENCODING 300
SWIDTH 282 0
DWIDTH 3 0
BBX 4 10 -1 0
BITMAP
1C4A
09E3
0000
04C0
04C0
04C0
04C0
04C0
04C0
04C0
ENDCHAR
STARTCHAR ibreve
ENCODING 301
SWIDTH 262 0
DWIDTH 2 0
BBX 4 8 -1 0
BITMAP
3A58
0BE2
0000
06B0
06B0
06B0
06B0
06B0
ENDCHAR
STARTCHAR Iogonek
ENCODING 302
SWIDTH 282 0
DWIDTH 3 0
BBX 2 9 0 -2
BITMAP
4C
4C
4C
4C
4C
4C
6F
C2
9A
ENDCHAR
STARTCHAR iogonek
ENCODING 303
SWIDTH 255 0
DWIDTH 2 0
BBX 2 10 0 -2
BITMAP
01
59
00
6A
6A
6A
6A
8D
C1
B8
ENDCHAR
STARTCHAR Idotaccent
ENCODING 304
SWIDTH 282 0
DWIDTH 3 0
BBX 2 9 0 0
BITMAP
3A
00
4C
4C
4C
4C
4C
4C
4C
ENDCHAR
STARTCHAR dotlessi
ENCODING 305
SWIDTH 262 0
DWIDTH 2 0
BBX 2 5 0 0
BITMAP
6B
6B
6B
6B
6B
ENDCHAR
STARTCHAR IJ
ENCODING 306
SWIDTH 837 0
DWIDTH 8 0
BBX 7 7 0 0
BITMAP
4C0003E0
4C0003E0
4C0003E0
4C0003E0
4C0003E0
4C2F26C0
4C08ED40
ENDCHAR
STARTCHAR ij
ENCODING 307
SWIDTH 505 0
DWIDTH 5 0
BBX 4 10 0 -2
BITMAP
0101
592D
0000
6A2E
6A2E
6A2E
6A2E
6A2E
003E
00E8
ENDCHAR
STARTCHAR Jcircumflex
ENCODING 308
SWIDTH 555 0
DWIDTH 5 0
BBX 6 10 0 0
BITMAP
001D70
0076B1
000000
000B60
000B60
000B60
000B60
000B60
B81D40
3DE900
ENDCHAR
STARTCHAR jcircumflex
ENCODING 309
SWIDTH 268 0
DWIDTH 2 0
BBX 4 10 -1 -2
BITMAP
08D1
1B76
0000
04C0
04C0
04C0
04C0
04C0
06B0
4E50
ENDCHAR
STARTCHAR uni0136
ENCODING 310
SWIDTH 630 0
DWIDTH 6 0
BBX 6 9 0 -2
BITMAP
5C03E3
5C1D70
5CAA00
5FF700
5E5E20
5C08B0
5C01D6
009400
009100
ENDCHAR
STARTCHAR uni0137
ENCODING 311
SWIDTH 521 0
DWIDTH 5 0
BBX 5 9 0 -2
BITMAP
790000
790000
793E30
7BD400
7FE200
7A7B00
790C60
01C000
037000
ENDCHAR
STARTCHAR kgreenlandic
ENCODING 312
SWIDTH 574 0
DWIDTH 5 0
BBX 5 5 0 0
BITMAP
6A0C70
6A9B00
6FF300
6A7C00
6A0B90
ENDCHAR
STARTCHAR Lacute
ENCODING 313
SWIDTH 541 0
DWIDTH 5 0
BBX 5 10 0 0
BITMAP
0B7000
2B0000
000000
5C0000
5C0000
5C0000
5C0000
5C0000
5C0000
5FFFA0
ENDCHAR
STARTCHAR lacute
ENCODING 314
SWIDTH 255 0
DWIDTH 2 0
BBX 3 10 0 0
BITMAP
0C60
3A00
0000
6A00
6A00
6A00
6A00
6A00
6A00
6A00
ENDCHAR
STARTCHAR uni013B
ENCODING 315
SWIDTH 541 0
DWIDTH 5 0
BBX 5 10 0 -3
BITMAP
5C0000
5C0000
5C0000
5C0000
5C0000
5C0000
5FFFA0
000000
00C100
00A000
ENDCHAR
STARTCHAR uni013C
ENCODING 316
SWIDTH 255 0
DWIDTH 2 0
BBX 2 10 0 -3
BITMAP
6A
6A
6A
6A
6A
6A
6A
00
58
64
ENDCHAR
STARTCHAR Lcaron
ENCODING 317
SWIDTH 541 0
DWIDTH 5 0
BBX 5 7 0 0
BITMAP
5C1C00
5C3700
5C0000
5C0000
5C0000
5C0000
5FFFA0
ENDCHAR
STARTCHAR lcaron
ENCODING 318
SWIDTH 328 0
DWIDTH 3 0
BBX 4 7 0 0
BITMAP
6A93
6AA0
6A00
6A00
6A00
6A00
6A00
ENDCHAR
STARTCHAR Ldot
ENCODING 319
SWIDTH 541 0
DWIDTH 5 0
BBX 5 7 0 0
BITMAP
5C0000
5C0000
5C4900
5C0000
5C0000
5C0000
5FFFA0
ENDCHAR
STARTCHAR ldot
ENCODING 320
SWIDTH 362 0
DWIDTH 3 0
BBX 4 7 0 0
BITMAP
6A00
6A00
6A00
6AB2
6A00
6A00
6A00
ENDCHAR
STARTCHAR Lslash
ENCODING 321
SWIDTH 548 0
DWIDTH 5 0
BBX 5 7 0 0
BITMAP
4C0000
4C0000
6EB000
AD2000
4C0000
4C0000
4FFFB0
ENDCHAR
STARTCHAR lslash
ENCODING 322
SWIDTH 288 0
DWIDTH 3 0
BBX 3 7 0 0
BITMAP
4C00
4C00
4C00
7E60
AD10
4C00
4C00
ENDCHAR
STARTCHAR Nacute
ENCODING 323
SWIDTH 709 0
DWIDTH 6 0
BBX 6 10 0 0
BITMAP
000C60
002B00
000000
5E106B
5F906B
5CE36B
5C6C6B
5C0CBB
5C04FB
5C00AB
ENDCHAR
STARTCHAR nacute
ENCODING 324
SWIDTH 556 0
DWIDTH 5 0
BBX 5 8 0 0
BITMAP
007B00
00B200
000000
7CDD20
7B1B60
790970
790970
790970
ENDCHAR
STARTCHAR uni0145
ENCODING 325
SWIDTH 709 0
DWIDTH 6 0
BBX 6 10 0 -3
BITMAP
5E106B
5F906B
5CE36B
5C6C6B
5C0CBB
5C04FB
5C00AB
000000
004900
006400
ENDCHAR
STARTCHAR uni0146
ENCODING 326
SWIDTH 556 0
DWIDTH 5 0
BBX 5 8 0 -3
BITMAP
7CDD20
7B1B60
790970
790970
790970
000000
00D000
028000
ENDCHAR
STARTCHAR Ncaron
ENCODING 327
SWIDTH 709 0
DWIDTH 6 0
BBX 6 10 0 0
BITMAP
02C770
007C00
000000
5E106B
5F906B
5CE36B
5C6C6B
5C0CBB
5C04FB
5C00AB
ENDCHAR
STARTCHAR ncaron
ENCODING 328
SWIDTH 556 0
DWIDTH 5 0
BBX 5 8 0 0
BITMAP
0B5C00
02E300
000000
7CDD20
7B1B60
790970
790970
790970
ENDCHAR
STARTCHAR napostrophe
ENCODING 329
SWIDTH 556 0
DWIDTH 5 0
BBX 6 7 -1 0
BITMAP
1C0000
370000
07CDD2
07B1B6
079097
079097
079097
ENDCHAR
STARTCHAR Eng
ENCODING 330
SWIDTH 696 0
DWIDTH 6 0
BBX 6 9 0 -2
BITMAP
5E107A
5F907A
5CD27A
5B6A7A
5B0DBA
5B04FA
5B00BA
000089
0007E3
ENDCHAR
STARTCHAR eng
ENCODING 331
SWIDTH 566 0
DWIDTH 5 0
BBX 5 7 0 -2
BITMAP
7BDD20
7B1B70
790880
790880
790880
000A70
008D20
ENDCHAR
STARTCHAR Omacron
ENCODING 332
SWIDTH 690 0
DWIDTH 6 0
BBX 6 7 0 0
BITMAP
0BFFF0
2E32D5
7A007A
89006B
7A007A
2E32D5
06DE80
ENDCHAR
STARTCHAR omacron
ENCODING 333
SWIDTH 569 0
DWIDTH 5 0
BBX 5 7 0 0
BITMAP
0EFF10
000000
1AEB10
7B1990
9705B0
7B1990
1AEB10
ENDCHAR
STARTCHAR Obreve
ENCODING 334
SWIDTH 690 0
DWIDTH 6 0
BBX 6 10 0 0
BITMAP
03A670
00BD20
000000
06DE80
2E32D5
7A007A
89006B
7A007A
2E32D5
06DE80
ENDCHAR
STARTCHAR obreve
ENCODING 335
SWIDTH 569 0
DWIDTH 5 0
BBX 5 8 0 0
BITMAP
0C2D00
06E700
000000
1AEB10
7B1990
9705B0
7B1990
1AEB10
ENDCHAR
STARTCHAR Ohungarumlaut
ENCODING 336
SWIDTH 690 0
DWIDTH 6 0
BBX 6 10 0 0
BITMAP
0098D1
00B760
000000
06DE80
2E32D5
7A007A
89006B
7A007A
2E32D5
06DE80
ENDCHAR
STARTCHAR ohungarumlaut
ENCODING 337
SWIDTH 569 0
DWIDTH 5 0
BBX 5 8 0 0
BITMAP
03DA70
067B00
000000
1AEB10
7B1990
9705B0
7B1990
1AEB10
ENDCHAR
STARTCHAR OE
ENCODING 338
SWIDTH 962 0
DWIDTH 9 0
BBX 9 7 0 0
BITMAP
07EFFFFF10
4D22F00000
8802F00000
8802FFF900
8802F00000
4D22F00000
07EFFFFF10
ENDCHAR
STARTCHAR oe
ENCODING 339
SWIDTH 903 0
DWIDTH 8 0
BBX 8 5 0 0
BITMAP
0AEB7ED3
6B19F27A
8705FFFC
6B19E212
0AEB7EE6
ENDCHAR
STARTCHAR Racute
ENCODING 340
SWIDTH 624 0
DWIDTH 6 0
BBX 6 10 0 0
BITMAP
005D00
009400
000000
5FFE70
5C02F2
5C02F2
5FFF60
5C0C60
5C05C0
5C00E4
ENDCHAR
STARTCHAR racute
ENCODING 341
SWIDTH 351 0
DWIDTH 3 0
BBX 4 8 0 0
BITMAP
03E1
0760
0000
7CE1
7B10
7900
7900
7900
ENDCHAR
STARTCHAR uni0156
ENCODING 342
SWIDTH 624 0
DWIDTH 6 0
BBX 6 10 0 -3
BITMAP
5FFE70
5C02F2
5C02F2
5FFF60
5C0C60
5C05C0
5C00E4
000000
00C100
00A000
ENDCHAR
STARTCHAR uni0157
ENCODING 343
SWIDTH 351 0
DWIDTH 3 0
BBX 4 8 0 -3
BITMAP
7CE1
7B10
7900
7900
7900
0000
5800
7300
ENDCHAR
STARTCHAR Rcaron
ENCODING 344
SWIDTH 624 0
DWIDTH 6 0
BBX 6 10 0 0
BITMAP
096C10
01E500
000000
5FFE70
5C02F2
5C02F2
5FFF60
5C0C60
5C05C0
5C00E4
ENDCHAR
STARTCHAR rcaron
ENCODING 345
SWIDTH 351 0
DWIDTH 3 0
BBX 4 8 0 0
BITMAP
77C2
0C70
0000
7CE1
7B10
7900
7900
7900
ENDCHAR
STARTCHAR Sacute
ENCODING 346
SWIDTH 603 0
DWIDTH 5 0
BBX 6 10 0 0
BITMAP
003E10
007600
000000
0AED40
6C14E0
5D3010
07EC30
2106E0
8A13F1
1AEE60
ENDCHAR
STARTCHAR sacute
ENCODING 347
SWIDTH 516 0
DWIDTH 5 0
BBX 5 8 0 0
BITMAP
008A00
00B100
000000
2CFC10
7B0000
1AD800
001E30
5DFA00
ENDCHAR
STARTCHAR Scircumflex
ENCODING 348
SWIDTH 603 0
DWIDTH 5 0
BBX 6 10 0 0
BITMAP
01D800
077B10
000000
0AED40
6C14E0
5D3010
07EC30
2106E0
8A13F1
1AEE60
ENDCHAR
STARTCHAR scircumflex
ENCODING 349
SWIDTH 516 0
DWIDTH 5 0
BBX 5 8 0 0
BITMAP
05E300
0B5A00
000000
2CFC10
7B0000
1AD800
001E30
5DFA00
ENDCHAR
STARTCHAR Scedilla
ENCODING 350
SWIDTH 603 0
DWIDTH 5 0
BBX 6 9 0 -2
BITMAP
0AED40
6C14E0
5D3010
07EC30
2106E0
8A13F1
1AEE60
006800
009800
ENDCHAR
STARTCHAR scedilla
ENCODING 351
SWIDTH 516 0
DWIDTH 5 0
BBX 5 7 0 -2
BITMAP
2CFC10
7B0000
1AD800
001E30
5DFA00
00B300
00E300
ENDCHAR
STARTCHAR Scaron
ENCODING 352
SWIDTH 603 0
DWIDTH 5 0
BBX 6 10 0 0
BITMAP
077C20
00D600
000000
0AED40
6C14E0
5D3010
07EC30
2106E0
8A13F1
1AEE60
ENDCHAR
STARTCHAR scaron
ENCODING 353
SWIDTH 516 0
DWIDTH 5 0
BBX 5 8 0 0
BITMAP
0C5A00
04E200
000000
2CFC10
7B0000
1AD800
001E30
5DFA00
ENDCHAR
STARTCHAR uni0162
ENCODING 354
SWIDTH 606 0
DWIDTH 5 0
BBX 6 9 0 -2
BITMAP
CFFFF4
00C400
00C400
00C400
00C400
00C400
00C400
007700
00A700
ENDCHAR
STARTCHAR uni0163
ENCODING 355
SWIDTH 332 0
DWIDTH 3 0
BBX 3 8 0 -2
BITMAP
3D00
FFB0
3D00
3D00
3E00
1DB0
04B0
07A0
ENDCHAR
STARTCHAR Tcaron
ENCODING 356
SWIDTH 606 0
DWIDTH 5 0
BBX 6 10 0 0
BITMAP
086C10
01D500
000000
CFFFF4
00C400
00C400
00C400
00C400
00C400
00C400
ENDCHAR
STARTCHAR tcaron
ENCODING 357
SWIDTH 352 0
DWIDTH 3 0
BBX 4 7 0 0
BITMAP
0058
3D73
FFB0
3D00
3D00
3E00
1DB0
ENDCHAR
STARTCHAR Tbar
ENCODING 358
SWIDTH 606 0
DWIDTH 5 0
BBX 6 7 0 0
BITMAP
CFFFF4
00C400
0BFF30
00C400
00C400
00C400
00C400
ENDCHAR
STARTCHAR tbar
ENCODING 359
SWIDTH 332 0
DWIDTH 3 0
BBX 4 6 -1 0
BITMAP
03D0
0FFB
03D0
2FFC
03E0
01DB
ENDCHAR
STARTCHAR Utilde
ENCODING 360
SWIDTH 651 0
DWIDTH 6 0
BBX 6 10 0 0
BITMAP
05C470
093D30
000000
7A00C5
7A00C5
7A00C5
7A00C5
7A00C5
4D22E2
08EE60
ENDCHAR
STARTCHAR utilde
ENCODING 361
SWIDTH 555 0
DWIDTH 5 0
BBX 5 8 0 0
BITMAP
0B7A10
197B00
000000
790970
790970
790970
7B1B70
2DEC70
ENDCHAR
STARTCHAR Umacron
ENCODING 362
SWIDTH 651 0
DWIDTH 6 0
BBX 6 7 0 0
BITMAP
7FFFF5
7A00C5
7A00C5
7A00C5
7A00C5
4D22E2
08EE60
ENDCHAR
STARTCHAR umacron
ENCODING 363
SWIDTH 555 0
DWIDTH 5 0
BBX 5 7 0 0
BITMAP
0FFF00
000000
790970
790970
790970
7B1B70
2DEC70
ENDCHAR
STARTCHAR Ubreve
ENCODING 364
SWIDTH 651 0
DWIDTH 6 0
BBX 6 10 0 0
BITMAP
067940
01DC00
000000
7A00C5
7A00C5
7A00C5
7A00C5
7A00C5
4D22E2
08EE60
ENDCHAR
STARTCHAR ubreve
ENCODING 365
SWIDTH 555 0
DWIDTH 5 0
BBX 5 8 0 0
BITMAP
0C2D00
06E600
000000
790970
790970
790970
7B1B70
2DEC70
ENDCHAR
STARTCHAR Uring
ENCODING 366
SWIDTH 651 0
DWIDTH 6 0
BBX 6 10 0 0
BITMAP
00CA00
00CA00
000000
7A00C5
7A00C5
7A00C5
7A00C5
7A00C5
4D22E2
08EE60
ENDCHAR
STARTCHAR uring
ENCODING 367
SWIDTH 555 0
DWIDTH 5 0
BBX 5 8 0 0
BITMAP
04E400
04E400
000000
790970
790970
790970
7B1B70
2DEC70
ENDCHAR
STARTCHAR Uhungarumlaut
ENCODING 368
SWIDTH 651 0
DWIDTH 6 0
BBX 6 10 0 0
BITMAP
00C7C0
02A940
000000
7A00C5
7A00C5
7A00C5
7A00C5
7A00C5
4D22E2
08EE60
ENDCHAR
STARTCHAR uhungarumlaut
ENCODING 369
SWIDTH 555 0
DWIDTH 5 0
BBX 5 8 0 0
BITMAP
03CA60
077B00
000000
790970
790970
790970
7B1B70
2DEC70
ENDCHAR
STARTCHAR Uogonek
ENCODING 370
SWIDTH 651 0
DWIDTH 6 0
BBX 6 9 0 -2
BITMAP
7A00C5
7A00C5
7A00C5
7A00C5
7A00C5
4D22E2
08EF70
003A00
001E40
ENDCHAR
STARTCHAR uogonek
ENCODING 371
SWIDTH 555 0
DWIDTH 5 0
BBX 5 7 0 -2
BITMAP
790970
790970
790970
7B1B70
2DED70
001B10
001D50
ENDCHAR
STARTCHAR Wcircumflex
ENCODING 372
SWIDTH 879 0
DWIDTH 8 0
BBX 8 10 0 0
BITMAP
000BB000
00399400
00000000
A609907A
790CC097
4C1DD1C3
1E4994E0
0DA56AC0
09F22F90
06D00E60
ENDCHAR
STARTCHAR wcircumflex
ENCODING 373
SWIDTH 743 0
DWIDTH 7 0
BBX 7 8 0 0
BITMAP
006E2000
01B68000
00000000
B43D0960
787E2D20
3BC78D00
0DB2E900
0A70C500
ENDCHAR
STARTCHAR Ycircumflex
ENCODING 374
SWIDTH 609 0
DWIDTH 5 0
BBX 6 10 0 0
BITMAP
01D700
076B10
000000
B701E3
4E07B0
0B6D30
04EB00
00D500
00C400
00C400
ENDCHAR
STARTCHAR ycircumflex
ENCODING 375
SWIDTH 486 0
DWIDTH 4 0
BBX 5 10 0 -2
BITMAP
07D100
1B6700
000000
C50E20
7A4C00
2E8700
0BE200
06C000
097000
8D1000
ENDCHAR
STARTCHAR Ydieresis
ENCODING 376
SWIDTH 609 0
DWIDTH 5 0
BBX 6 9 0 0
BITMAP
0A2A30
000000
B701E3
4E07B0
0B6D30
04EB00
00D500
00C400
00C400
ENDCHAR
STARTCHAR Zacute
ENCODING 377
SWIDTH 602 0
DWIDTH 5 0
BBX 6 10 0 0
BITMAP
004E10
008500
000000
9FFFF0
000A80
004D10
01D400
09A000
3E1000
9FFFF2
ENDCHAR
STARTCHAR zacute
ENCODING 378
SWIDTH 502 0
DWIDTH 5 0
BBX 5 8 0 0
BITMAP
00A800
01B000
000000
9FFF20
009900
06C000
2D2000
9FFF30
ENDCHAR
STARTCHAR Zdotaccent
ENCODING 379
SWIDTH 602 0
DWIDTH 5 0
BBX 6 9 0 0
BITMAP
00B300
000000
9FFFF0
000A80
004D10
01D400
09A000
3E1000
9FFFF2
ENDCHAR
STARTCHAR zdotaccent
ENCODING 380
SWIDTH 502 0
DWIDTH 5 0
BBX 5 7 0 0
BITMAP
03B000
000000
9FFF20
009900
06C000
2D2000
9FFF30
ENDCHAR
STARTCHAR Zcaron
ENCODING 381
SWIDTH 602 0
DWIDTH 5 0
BBX 6 10 0 0
BITMAP
086C10
01D600
000000
9FFFF0
000A80
004D10
01D400
09A000
3E1000
9FFFF2
ENDCHAR
STARTCHAR zcaron
ENCODING 382
SWIDTH 502 0
DWIDTH 5 0
BBX 5 8 0 0
BITMAP
1C6800
06D100
000000
9FFF20
009900
06C000
2D2000
9FFF30
ENDCHAR
STARTCHAR longs
ENCODING 383
SWIDTH 255 0
DWIDTH 2 0
BBX 3 7 0 0
BITMAP
1CC0
5C10
6A00
6A00
6A00
6A00
6A00
ENDCHAR
STARTCHAR uni018F
ENCODING 399
SWIDTH 691 0
DWIDTH 6 0
BBX 6 7 0 0
BITMAP
0CFD70
0313D5
00007A
AFFFFB
88007A
4D22D5
07DE70
ENDCHAR
STARTCHAR florin
ENCODING 402
SWIDTH 351 0
DWIDTH 3 0
BBX 5 9 -1 -2
BITMAP
00AE20
01F100
0DFC00
02E000
02E000
02E000
02E000
03E000
1E8000
ENDCHAR
STARTCHAR Ohorn
ENCODING 416
SWIDTH 692 0
DWIDTH 6 0
BBX 7 8 0 0
BITMAP
00000110
06ED5A40
3E32DC00
89008700
98006A00
89008A00
3E32D600
06EE8000
ENDCHAR
STARTCHAR ohorn
ENCODING 417
SWIDTH 577 0
DWIDTH 5 0
BBX 6 5 0 0
BITMAP
1BE983
7B19D0
9705A0
7A19A0
1AEC20
ENDCHAR
STARTCHAR Uhorn
ENCODING 431
SWIDTH 705 0
DWIDTH 6 0
BBX 7 8 0 0
BITMAP
00000040
7A00C6C0
7A00CE60
7A00C500
7A00C500
7A00C500
4D22E200
08EE7000
ENDCHAR
STARTCHAR uhorn
ENCODING 432
SWIDTH 618 0
DWIDTH 6 0
BBX 6 5 0 0
BITMAP
79098A
7909E5
790970
7B1B70
2DED70
ENDCHAR
STARTCHAR uni01F0
ENCODING 496
SWIDTH 268 0
DWIDTH 2 0
BBX 4 10 -1 -2
BITMAP
2C77
07C0
0000
04C0
04C0
04C0
04C0
04C0
06B0
4E50
ENDCHAR
STARTCHAR Aringacute
ENCODING 506
SWIDTH 665 0
DWIDTH 6 0
BBX 6 10 0 0
BITMAP
000B30
001900
009900
00FF00
01EE10
069950
0B44B0
1FFFF1
6900A6
B5006B
ENDCHAR
STARTCHAR aringacute
ENCODING 507
SWIDTH 541 0
DWIDTH 5 0
BBX 5 9 0 0
BITMAP
004B00
008300
02E200
02E200
3CEA00
001D40
3CFF40
8A1D40
3DDD60
ENDCHAR
STARTCHAR AEacute
ENCODING 508
SWIDTH 939 0
DWIDTH 8 0
BBX 9 10 0 0
BITMAP
0000D50000
0003A00000
0000000000
000AFFFF00
003DE20000
00A6D30000
03C0CFF900
0BFFF40000
4D00B50000
C700BFFF40
ENDCHAR
STARTCHAR aeacute
ENCODING 509
SWIDTH 844 0
DWIDTH 8 0
BBX 8 8 0 0
BITMAP
0003E100
00076000
00000000
2CEACE90
471D91D3
4DFFFFF5
A91D8130
4EE8BEC1
ENDCHAR
STARTCHAR Oslashacute
ENCODING 510
SWIDTH 689 0
DWIDTH 6 0
BBX 6 11 0 -1
BITMAP
000C60
003A00
000002
06DEB5
2E32F5
7A08AA
89295C
6A917A
2E92C6
0CDE80
130000
ENDCHAR
STARTCHAR oslashacute
ENCODING 511
SWIDTH 566 0
DWIDTH 5 0
BBX 5 9 0 -1
BITMAP
009900
00C100
000320
1AEE10
7B4D80
9795B0
7C7990
0DEB10
140000
ENDCHAR
STARTCHAR uni0218
ENCODING 536
SWIDTH 603 0
DWIDTH 5 0
BBX 6 10 0 -3
BITMAP
0AED40
6C14E0
5D3010
07EC30
2106E0
8A13F1
1AEE60
000000
00A300
00A000
ENDCHAR
STARTCHAR uni0219
ENCODING 537
SWIDTH 516 0
DWIDTH 5 0
BBX 5 8 0 -3
BITMAP
2CFC10
7B0000
1AD800
001E30
5DFA00
000000
01C000
037000
ENDCHAR
STARTCHAR uni021A
ENCODING 538
SWIDTH 606 0
DWIDTH 5 0
BBX 6 10 0 -3
BITMAP
CFFFF4
00C400
00C400
00C400
00C400
00C400
00C400
000000
00B200
00A000
ENDCHAR
STARTCHAR uni021B
ENCODING 539
SWIDTH 332 0
DWIDTH 3 0
BBX 3 9 0 -3
BITMAP
3D00
FFB0
3D00
3D00
3E00
1DB0
0000
0850
0910
ENDCHAR
STARTCHAR uni0237
ENCODING 567
SWIDTH 268 0
DWIDTH 2 0
BBX 3 7 -1 -2
BITMAP
04C0
04C0
04C0
04C0
04C0
06B0
4E50
ENDCHAR
STARTCHAR uni0259
ENCODING 601
SWIDTH 529 0
DWIDTH 5 0
BBX 5 5 0 0
BITMAP
3DE900
121C40
9FFF70
7A1D40
1BE800
ENDCHAR
STARTCHAR uni02BC
ENCODING 700
SWIDTH 216 0
DWIDTH 2 0
BBX 2 2 0 5
BITMAP
68
83
ENDCHAR
STARTCHAR circumflex
ENCODING 710
SWIDTH 487 0
DWIDTH 4 0
BBX 4 2 0 6
BITMAP
09C1
2B76
ENDCHAR
STARTCHAR caron
ENCODING 711
SWIDTH 460 0
DWIDTH 4 0
BBX 4 2 0 6
BITMAP
3A95
09A0
ENDCHAR
STARTCHAR uni02C9
ENCODING 713
SWIDTH 482 0
DWIDTH 4 0
BBX 4 1 0 5
BITMAP
5FFB
ENDCHAR
STARTCHAR breve
ENCODING 728
SWIDTH 435 0
DWIDTH 4 0
BBX 4 2 0 6
BITMAP
6794
1DC0
ENDCHAR
STARTCHAR dotaccent
ENCODING 729
SWIDTH 255 0
DWIDTH 2 0
BBX 2 1 0 6
BITMAP
59
ENDCHAR
STARTCHAR ring
ENCODING 730
SWIDTH 336 0
DWIDTH 3 0
BBX 3 2 0 6
BITMAP
4E40
4E40
ENDCHAR
STARTCHAR ogonek
ENCODING 731
SWIDTH 287 0
DWIDTH 3 0
BBX 2 3 0 -2
BITMAP
13
B3
8B
ENDCHAR
STARTCHAR tilde
ENCODING 732
SWIDTH 480 0
DWIDTH 4 0
BBX 4 2 0 6
BITMAP
2D3A
65C6
ENDCHAR
STARTCHAR hungarumlaut
ENCODING 733
SWIDTH 390 0
DWIDTH 4 0
BBX 4 2 0 6
BITMAP
3DA7
67B0
ENDCHAR
STARTCHAR uni02F3
ENCODING 755
SWIDTH 302 0
DWIDTH 3 0
BBX 3 2 0 -3
BITMAP
4D00
4E10
ENDCHAR
STARTCHAR gravecomb
ENCODING 768
SWIDTH 0 0
DWIDTH 0 0
BBX 3 2 -4 6
BITMAP
9900
1C10
ENDCHAR
STARTCHAR acutecomb
ENCODING 769
SWIDTH 0 0
DWIDTH 0 0
BBX 2 2 -3 6
BITMAP
6C
A3
ENDCHAR
STARTCHAR tildecomb
ENCODING 771
SWIDTH 0 0
DWIDTH 0 0
BBX 4 2 -4 6
BITMAP
9983
A6C0
ENDCHAR
STARTCHAR hookabovecomb
ENCODING 777
SWIDTH 0 0
DWIDTH 0 0
BBX 3 2 -4 6
BITMAP
1E30
0B30
ENDCHAR
STARTCHAR uni030F
ENCODING 783
SWIDTH 0 0
DWIDTH 0 0
BBX 4 2 -5 6
BITMAP
2EA8
078B
ENDCHAR
STARTCHAR dotbelowcomb
ENCODING 803
SWIDTH 0 0
DWIDTH 0 0
BBX 2 1 -4 -2
BITMAP
2C
ENDCHAR
STARTCHAR tonos
ENCODING 900
SWIDTH 295 0
DWIDTH 3 0
BBX 2 2 0 6
BITMAP
0D
18
ENDCHAR
STARTCHAR dieresistonos
ENCODING 901
SWIDTH 529 0
DWIDTH 5 0
BBX 5 3 0 5
BITMAP
00D100
009000
660B10
ENDCHAR
STARTCHAR Alphatonos
ENCODING 902
SWIDTH 665 0
DWIDTH 6 0
BBX 6 8 0 0
BITMAP
3A0000
45AA00
01EE10
069950
0B44B0
1FFFF1
6900A6
B5006B
ENDCHAR
STARTCHAR anoteleia
ENCODING 903
SWIDTH 282 0
DWIDTH 3 0
BBX 2 2 0 2
BITMAP
4B
01
ENDCHAR
STARTCHAR Epsilontonos
ENCODING 904
SWIDTH 565 0
DWIDTH 5 0
BBX 7 8 -2 0
BITMAP
1D000000
275FFFC0
005C0000
005C0000
005FFF60
005C0000
005C0000
005FFFC0
ENDCHAR
STARTCHAR Etatonos
ENCODING 905
SWIDTH 710 0
DWIDTH 6 0
BBX 8 8 -2 0
BITMAP
0D000000
185C006B
005C006B
005C006B
005FFFFB
005C006B
005C006B
005C006B
ENDCHAR
STARTCHAR Iotatonos
ENCODING 906
SWIDTH 282 0
DWIDTH 3 0
BBX 4 8 -2 0
BITMAP
0D00
184C
004C
004C
004C
004C
004C
004C
ENDCHAR
STARTCHAR Omicrontonos
ENCODING 908
SWIDTH 700 0
DWIDTH 6 0
BBX 7 8 -1 0
BITMAP
3B000000
465DE900
01E41C70
05B006B0
07A004D0
06B005B0
01E41C70
005DE900
ENDCHAR
STARTCHAR Upsilontonos
ENCODING 910
SWIDTH 658 0
DWIDTH 6 0
BBX 8 8 -2 0
BITMAP
1D000000
274E009A
000C61E2
0005C7A0
0000CE30
00006C00
00006B00
00006B00
ENDCHAR
STARTCHAR Omegatonos
ENCODING 911
SWIDTH 679 0
DWIDTH 6 0
BBX 7 8 -1 0
BITMAP
3B000000
366EE700
02F32E40
06C00A80
06B00A80
04D00B60
00B43C00
06FCAF80
ENDCHAR
STARTCHAR iotadieresistonos
ENCODING 912
SWIDTH 333 0
DWIDTH 3 0
BBX 5 9 -1 0
BITMAP
00D100
009000
660B10
000000
04C000
04C000
04C000
04D000
01DA00
ENDCHAR
STARTCHAR Alpha
ENCODING 913
SWIDTH 665 0
DWIDTH 6 0
BBX 6 7 0 0
BITMAP
00AA00
01EE10
069950
0B44B0
1FFFF1
6900A6
B5006B
ENDCHAR
STARTCHAR Beta
ENCODING 914
SWIDTH 630 0
DWIDTH 6 0
BBX 6 7 0 0
BITMAP
5FFE60
5C04F0
5C04E0
5FFF70
5C02E2
5C03F2
5FFE80
ENDCHAR
STARTCHAR Gamma
ENCODING 915
SWIDTH 557 0
DWIDTH 5 0
BBX 5 7 0 0
BITMAP
5FFFB0
5C0000
5C0000
5C0000
5C0000
5C0000
5C0000
ENDCHAR
STARTCHAR uni0394
ENCODING 916
SWIDTH 718 0
DWIDTH 6 0
BBX 7 7 0 0
BITMAP
007E1000
00CD5000
03D6B000
0981E100
0E20A600
5C005C00
BFFFFF20
ENDCHAR
STARTCHAR Epsilon
ENCODING 917
SWIDTH 565 0
DWIDTH 5 0
BBX 5 7 0 0
BITMAP
5FFFC0
5C0000
5C0000
5FFF60
5C0000
5C0000
5FFFC0
ENDCHAR
STARTCHAR Zeta
ENCODING 918
SWIDTH 602 0
DWIDTH 5 0
BBX 6 7 0 0
BITMAP
9FFFF0
000A80
004D10
01D400
09A000
3E1000
9FFFF2
ENDCHAR
STARTCHAR Eta
ENCODING 919
SWIDTH 710 0
DWIDTH 6 0
BBX 6 7 0 0
BITMAP
5C006B
5C006B
5C006B
5FFFFB
5C006B
5C006B
5C006B
ENDCHAR
STARTCHAR Theta
ENCODING 920
SWIDTH 684 0
DWIDTH 6 0
BBX 6 7 0 0
BITMAP
06EE70
3E32D5
890089
98DF8A
890089
3E32D5
06EE80
ENDCHAR
STARTCHAR Iota
ENCODING 921
SWIDTH 282 0
DWIDTH 3 0
BBX 2 7 0 0
BITMAP
4C
4C
4C
4C
4C
4C
4C
ENDCHAR
STARTCHAR Kappa
ENCODING 922
SWIDTH 630 0
DWIDTH 6 0
BBX 6 7 0 0
BITMAP
5C03E3
5C1D70
5CAA00
5FF700
5E5E20
5C08B0
5C01D6
ENDCHAR
STARTCHAR Lambda
ENCODING 923
SWIDTH 652 0
DWIDTH 6 0
BBX 6 7 0 0
BITMAP
00C900
02FE00
06AD40
0B6890
1F14D0
6C00E3
B700A8
ENDCHAR
STARTCHAR Mu
ENCODING 924
SWIDTH 875 0
DWIDTH 8 0
BBX 8 7 0 0
BITMAP
5F4006F3
5F900BF3
5BE01DC3
5BB468D3
5B5AC3D3
5C1ED0D3
5C0A80D3
ENDCHAR
STARTCHAR Nu
ENCODING 925
SWIDTH 709 0
DWIDTH 6 0
BBX 6 7 0 0
BITMAP
5E106B
5F906B
5CE36B
5C6C6B
5C0CBB
5C04FB
5C00AB
ENDCHAR
STARTCHAR Xi
ENCODING 926
SWIDTH 570 0
DWIDTH 5 0
BBX 5 7 0 0
BITMAP
7FFF90
000000
000000
1FFF40
000000
000000
8FFFB0
ENDCHAR
STARTCHAR Omicron
ENCODING 927
SWIDTH 690 0
DWIDTH 6 0
BBX 6 7 0 0
BITMAP
06DE80
2E32D5
7A007A
89006B
7A007A
2E32D5
06DE80
ENDCHAR
STARTCHAR Pi
ENCODING 928
SWIDTH 711 0
DWIDTH 6 0
BBX 6 7 0 0
BITMAP
5FFFFB
5C006B
5C006B
5C006B
5C006B
5C006B
5C006B
ENDCHAR
STARTCHAR Rho
ENCODING 929
SWIDTH 639 0
DWIDTH 6 0
BBX 6 7 0 0
BITMAP
5FFE90
5C01D5
5C01D5
5FFEA0
5C0000
5C0000
5C0000
ENDCHAR
STARTCHAR Sigma
ENCODING 931
SWIDTH 570 0
DWIDTH 5 0
BBX 5 7 0 0
BITMAP
AFFFA0
3E2000
06C000
00D500
06C000
3E2000
AFFFD0
ENDCHAR
STARTCHAR Tau
ENCODING 932
SWIDTH 606 0
DWIDTH 5 0
BBX 6 7 0 0
BITMAP
CFFFF4
00C400
00C400
00C400
00C400
00C400
00C400
ENDCHAR
STARTCHAR Upsilon
ENCODING 933
SWIDTH 609 0
DWIDTH 5 0
BBX 6 7 0 0
BITMAP
B701E3
4E07B0
0B6D30
04EB00
00D500
00C400
00C400
ENDCHAR
STARTCHAR Phi
ENCODING 934
SWIDTH 741 0
DWIDTH 7 0
BBX 7 7 0 0
BITMAP
003E0000
09EFD600
7B4E3E30
A73E0B50
7B4E3E30
09EFE600
003E0000
ENDCHAR
STARTCHAR Chi
ENCODING 935
SWIDTH 632 0
DWIDTH 6 0
BBX 6 7 0 0
BITMAP
8C01E3
1E59A0
06DE20
00EA00
06DE20
1E49A0
8B01E4
ENDCHAR
STARTCHAR Psi
ENCODING 936
SWIDTH 708 0
DWIDTH 6 0
BBX 6 7 0 0
BITMAP
B66B1F
B66B1F
A76B2F
7C7B8B
09EFB2
006B00
006B00
ENDCHAR
STARTCHAR uni03A9
ENCODING 937
SWIDTH 669 0
DWIDTH 6 0
BBX 6 7 0 0
BITMAP
07EE60
3E33F2
7B00C6
8A00B7
5B00C4
0C34C0
7FBCF6
ENDCHAR
STARTCHAR Iotadieresis
ENCODING 938
SWIDTH 282 0
DWIDTH 3 0
BBX 4 9 -1 0
BITMAP
2A2A
0000
04C0
04C0
04C0
04C0
04C0
04C0
04C0
ENDCHAR
STARTCHAR Upsilondieresis
ENCODING 939
SWIDTH 609 0
DWIDTH 5 0
BBX 6 9 0 0
BITMAP
0A2A30
000000
B701E3
4E07B0
0B6D30
04EB00
00D500
00C400
00C400
ENDCHAR
STARTCHAR alphatonos
ENCODING 940
SWIDTH 564 0
DWIDTH 5 0
BBX 5 8 0 0
BITMAP
007700
007200
000000
1BEB70
7B1B70
970970
7A1B80
1CE9E0
ENDCHAR
STARTCHAR epsilontonos
ENCODING 941
SWIDTH 546 0
DWIDTH 5 0
BBX 5 8 0 0
BITMAP
00B300
009000
000000
2CFD30
6C1000
2EF500
8A1000
3CFD40
ENDCHAR
STARTCHAR etatonos
ENCODING 942
SWIDTH 566 0
DWIDTH 5 0
BBX 5 10 0 -2
BITMAP
00A400
009000
000000
7CDD20
7B1B70
790880
790880
790880
000880
000880
ENDCHAR
STARTCHAR iotatonos
ENCODING 943
SWIDTH 333 0
DWIDTH 3 0
BBX 3 8 0 0
BITMAP
0D10
0900
0000
4C00
4C00
4C00
4D00
1DA0
ENDCHAR
STARTCHAR upsilondieresistonos
ENCODING 944
SWIDTH 546 0
DWIDTH 5 0
BBX 5 9 0 0
BITMAP
00C200
009000
480A30
000000
790D30
790970
790970
6B1D50
1CE900
ENDCHAR
STARTCHAR alpha
ENCODING 945
SWIDTH 564 0
DWIDTH 5 0
BBX 5 5 0 0
BITMAP
1BEB70
7B1B70
970970
7A1B80
1CE9E0
ENDCHAR
STARTCHAR beta
ENCODING 946
SWIDTH 596 0
DWIDTH 5 0
BBX 5 9 0 -2
BITMAP
08EC20
4D1990
5B0880
5B9F30
5B05D0
5C15D0
5EEE50
5B0000
5B0000
ENDCHAR
STARTCHAR gamma
ENCODING 947
SWIDTH 506 0
DWIDTH 5 0
BBX 5 7 0 -2
BITMAP
A60C40
5A1E00
1E6900
0AE400
05E000
04C000
04C000
ENDCHAR
STARTCHAR delta
ENCODING 948
SWIDTH 566 0
DWIDTH 5 0
BBX 5 7 0 0
BITMAP
0AFB00
0F3200
09F910
5B1B80
9705B0
7B1990
1AEB10
ENDCHAR
STARTCHAR epsilon
ENCODING 949
SWIDTH 546 0
DWIDTH 5 0
BBX 5 5 0 0
BITMAP
2CFD30
6C1000
2EF500
8A1000
3CFD40
ENDCHAR
STARTCHAR zeta
ENCODING 950
SWIDTH 512 0
DWIDTH 5 0
BBX 5 9 0 -2
BITMAP
9FFF40
007A00
04D100
0D4000
3D0000
4D1000
0AE800
002F10
002900
ENDCHAR
STARTCHAR eta
ENCODING 951
SWIDTH 566 0
DWIDTH 5 0
BBX 5 7 0 -2
BITMAP
7CDD20
7B1B70
790880
790880
790880
000880
000880
ENDCHAR
STARTCHAR theta
ENCODING 952
SWIDTH 578 0
DWIDTH 5 0
BBX 5 7 0 0
BITMAP
09EB10
4D1A70
7906A0
8FFFA0
790690
4D1A70
09EB10
ENDCHAR
STARTCHAR iota
ENCODING 953
SWIDTH 333 0
DWIDTH 3 0
BBX 3 5 0 0
BITMAP
4C00
4C00
4C00
4D00
1DA0
ENDCHAR
STARTCHAR kappa
ENCODING 954
SWIDTH 574 0
DWIDTH 5 0
BBX 5 5 0 0
BITMAP
6A0C70
6A9B00
6FF300
6A7C00
6A0B90
ENDCHAR
STARTCHAR lambda
ENCODING 955
SWIDTH 551 0
DWIDTH 5 0
BBX 5 7 0 0
BITMAP
5E3000
09A000
05E100
0AF600
1E7C00
6B1E30
B608C0
ENDCHAR
STARTCHAR uni03BC
ENCODING 956
SWIDTH 591 0
DWIDTH 5 0
BBX 5 7 0 -2
BITMAP
5B07A0
5B07A0
5B07A0
5D19A0
5EEDA0
5B0000
5B0000
ENDCHAR
STARTCHAR nu
ENCODING 957
SWIDTH 494 0
DWIDTH 4 0
BBX 5 5 0 0
BITMAP
B50E20
693D00
1D7800
0BE300
06D000
ENDCHAR
STARTCHAR xi
ENCODING 958
SWIDTH 509 0
DWIDTH 5 0
BBX 5 9 0 -2
BITMAP
08ED10
2E2100
2E2000
09FA00
6B1000
7B1000
1AEB10
001D40
001A00
ENDCHAR
STARTCHAR omicron
ENCODING 959
SWIDTH 569 0
DWIDTH 5 0
BBX 5 5 0 0
BITMAP
1AEB10
7B1990
9705B0
7B1990
1AEB10
ENDCHAR
STARTCHAR pi
ENCODING 960
SWIDTH 618 0
DWIDTH 6 0
BBX 6 5 0 0
BITMAP
CFFFF4
1F0880
1F0880
1F0890
1F04E6
ENDCHAR
STARTCHAR rho
ENCODING 961
SWIDTH 566 0
DWIDTH 5 0
BBX 5 7 0 -2
BITMAP
09EB10
4D1A80
6A06A0
7B1990
7DED20
790000
790000
ENDCHAR
STARTCHAR sigma1
ENCODING 962
SWIDTH 526 0
DWIDTH 5 0
BBX 5 7 0 -2
BITMAP
0AEB10
7B1A40
970000
7C2000
19E900
002F00
003800
ENDCHAR
STARTCHAR sigma
ENCODING 963
SWIDTH 570 0
DWIDTH 5 0
BBX 6 5 0 0
BITMAP
1BFFF1
7B1A40
9706A0
7B1A80
1AEB10
ENDCHAR
STARTCHAR tau
ENCODING 964
SWIDTH 521 0
DWIDTH 5 0
BBX 5 5 0 0
BITMAP
BFFF60
04C000
04C000
03D000
01DA00
ENDCHAR
STARTCHAR upsilon
ENCODING 965
SWIDTH 546 0
DWIDTH 5 0
BBX 5 5 0 0
BITMAP
790D30
790970
790970
6B1D50
1CE900
ENDCHAR
STARTCHAR phi
ENCODING 966
SWIDTH 726 0
DWIDTH 7 0
BBX 7 7 0 -2
BITMAP
2A2DD500
985C3E10
A65C0D20
7C6C5E00
09EFC400
005C0000
005C0000
ENDCHAR
STARTCHAR chi
ENCODING 967
SWIDTH 502 0
DWIDTH 5 0
BBX 5 7 0 -2
BITMAP
C90B50
1D6D00
07F600
02F200
08E800
1E4E10
7908A0
ENDCHAR
STARTCHAR psi
ENCODING 968
SWIDTH 723 0
DWIDTH 7 0
BBX 7 7 0 -2
BITMAP
A65B4C00
A65B0F10
975B0E20
6C6B6D00
09EFC300
005B0000
005B0000
ENDCHAR
STARTCHAR omega
ENCODING 969
SWIDTH 822 0
DWIDTH 7 0
BBX 7 5 0 0
BITMAP
2E000880
7A0A33D0
880D42E0
6B2E76C0
1BE5CE40
ENDCHAR
STARTCHAR iotadieresis
ENCODING 970
SWIDTH 333 0
DWIDTH 3 0
BBX 4 7 -1 0
BITMAP
2B2B
0000
04C0
04C0
04C0
04D0
01DA
ENDCHAR
STARTCHAR upsilondieresis
ENCODING 971
SWIDTH 546 0
DWIDTH 5 0
BBX 5 7 0 0
BITMAP
1C0C00
000000
790D30
790970
790970
6B1D50
1CE900
ENDCHAR
STARTCHAR omicrontonos
ENCODING 972
SWIDTH 569 0
DWIDTH 5 0
BBX 5 8 0 0
BITMAP
00A400
009000
000000
1AEB10
7B1990
9705B0
7B1990
1AEB10
ENDCHAR
STARTCHAR upsilontonos
ENCODING 973
SWIDTH 546 0
DWIDTH 5 0
BBX 5 8 0 0
BITMAP
00B200
009000
000000
790D30
790970
790970
6B1D50
1CE900
ENDCHAR
STARTCHAR omegatonos
ENCODING 974
SWIDTH 822 0
DWIDTH 7 0
BBX 7 8 0 0
BITMAP
00086000
00081000
00000000
2E000880
7A0A33D0
880D42E0
6B2E76C0
1BE5CE40
ENDCHAR
STARTCHAR theta1
ENCODING 977
SWIDTH 587 0
DWIDTH 5 0
BBX 6 7 0 0
BITMAP
02DD30
079890
05C990
458EF2
780790
5C1A70
0AEB10
ENDCHAR
STARTCHAR Upsilon1
ENCODING 978
SWIDTH 560 0
DWIDTH 5 0
BBX 7 7 -1 0
BITMAP
1E504E10
04D0C500
00D6D000
007E7000
001F2000
000F1000
000F1000
ENDCHAR
STARTCHAR omega1
ENCODING 982
SWIDTH 805 0
DWIDTH 7 0
BBX 8 5 0 0
BITMAP
CFFFFFF2
6B0207A0
780E34B0
6B2F67A0
1CE6DD30
ENDCHAR
STARTCHAR uni0400
ENCODING 1024
SWIDTH 565 0
DWIDTH 5 0
BBX 5 10 0 0
BITMAP
07B000
00B200
000000
5FFFC0
5C0000
5C0000
5FFF60
5C0000
5C0000
5FFFC0
ENDCHAR
STARTCHAR uni0401
ENCODING 1025
SWIDTH 565 0
DWIDTH 5 0
BBX 5 9 0 0
BITMAP
0A2A30
000000
5FFFC0
5C0000
5C0000
5FFF60
5C0000
5C0000
5FFFC0
ENDCHAR
STARTCHAR uni0402
ENCODING 1026
SWIDTH 749 0
DWIDTH 7 0
BBX 7 7 0 0
BITMAP
DFFFF200
02F00000
02F00000
02FEEA00
02F11C50
02F01C50
02F0CA00
ENDCHAR
STARTCHAR uni0403
ENCODING 1027
SWIDTH 557 0
DWIDTH 5 0
BBX 5 10 0 0
BITMAP
004E10
008500
000000
5FFFB0
5C0000
5C0000
5C0000
5C0000
5C0000
5C0000
ENDCHAR
STARTCHAR uni0404
ENCODING 1028
SWIDTH 668 0
DWIDTH 6 0
BBX 6 7 0 0
BITMAP
06EE80
3E31D5
7A0032
8FFC00
790032
3E21D5
07EE80
ENDCHAR
STARTCHAR uni0405
ENCODING 1029
SWIDTH 603 0
DWIDTH 5 0
BBX 6 7 0 0
BITMAP
0AED40
6C14E0
5D3010
07EC30
2106E0
8A13F1
1AEE60
ENDCHAR
STARTCHAR uni0406
ENCODING 1030
SWIDTH 282 0
DWIDTH 3 0
BBX 2 7 0 0
BITMAP
4C
4C
4C
4C
4C
4C
4C
ENDCHAR
STARTCHAR uni0407
ENCODING 1031
SWIDTH 282 0
DWIDTH 3 0
BBX 4 9 -1 0
BITMAP
2A2A
0000
04C0
04C0
04C0
04C0
04C0
04C0
04C0
ENDCHAR
STARTCHAR uni0408
ENCODING 1032
SWIDTH 555 0
DWIDTH 5 0
BBX 5 7 0 0
BITMAP
000B60
000B60
000B60
000B60
000B60
B81D40
3DE900
ENDCHAR
STARTCHAR uni0409
ENCODING 1033
SWIDTH 1066 0
DWIDTH 10 0
BBX 10 7 0 0
BITMAP
07FFFA0000
07906A0000
08806A0000
09806FFE80
0A606A02E3
2E406A02E3
CA006FFE70
ENDCHAR
STARTCHAR uni040A
ENCODING 1034
SWIDTH 1069 0
DWIDTH 10 0
BBX 10 7 0 0
BITMAP
5C006B0000
5C006B0000
5C006B0000
5FFFFFFD70
5C006B02E3
5C006B02E3
5C006FFE80
ENDCHAR
STARTCHAR uni040B
ENCODING 1035
SWIDTH 794 0
DWIDTH 7 0
BBX 7 7 0 0
BITMAP
CFFFF200
02F00000
02F00000
02FEEA10
02F11C60
02F00970
02F00980
ENDCHAR
STARTCHAR uni040C
ENCODING 1036
SWIDTH 630 0
DWIDTH 6 0
BBX 6 10 0 0
BITMAP
005D00
009400
000000
5C03E3
5C1D70
5CAA00
5FF700
5E5E20
5C08B0
5C01D6
ENDCHAR
STARTCHAR uni040D
ENCODING 1037
SWIDTH 707 0
DWIDTH 6 0
BBX 6 10 0 0
BITMAP
01E300
006700
000000
5C00BA
5C04FA
5C0CBA
5C6B6A
5CD36A
5F906A
5E106A
ENDCHAR
STARTCHAR uni040E
ENCODING 1038
SWIDTH 629 0
DWIDTH 6 0
BBX 6 10 0 0
BITMAP
076A40
02DB00
000000
8A00E4
2F24D0
0A7A70
03DE20
00CB00
00C500
0CA000
ENDCHAR
STARTCHAR uni040F
ENCODING 1039
SWIDTH 708 0
DWIDTH 6 0
BBX 6 9 0 -2
BITMAP
5B006A
5B006A
5B006A
5B006A
5B006A
5B006A
5FFFFA
005C00
005C00
ENDCHAR
STARTCHAR uni0410
ENCODING 1040
SWIDTH 665 0
DWIDTH 6 0
BBX 6 7 0 0
BITMAP
00AA00
01EE10
069950
0B44B0
1FFFF1
6900A6
B5006B
ENDCHAR
STARTCHAR uni0411
ENCODING 1041
SWIDTH 628 0
DWIDTH 6 0
BBX 6 7 0 0
BITMAP
5FFFA0
5B0000
5B0000
5FFE90
5B02E4
5B02E4
5FFE80
ENDCHAR
STARTCHAR uni0412
ENCODING 1042
SWIDTH 630 0
DWIDTH 6 0
BBX 6 7 0 0
BITMAP
5FFE60
5C04F0
5C04E0
5FFF70
5C02E2
5C03F2
5FFE80
ENDCHAR
STARTCHAR uni0413
ENCODING 1043
SWIDTH 557 0
DWIDTH 5 0
BBX 5 7 0 0
BITMAP
5FFFB0
5C0000
5C0000
5C0000
5C0000
5C0000
5C0000
ENDCHAR
STARTCHAR uni0414
ENCODING 1044
SWIDTH 752 0
DWIDTH 7 0
BBX 7 9 0 -2
BITMAP
04FFFC00
05C05C00
06B05C00
07905C00
0A705C00
1E205C00
DFFFFF90
C4000880
C4000880
ENDCHAR
STARTCHAR uni0415
ENCODING 1045
SWIDTH 565 0
DWIDTH 5 0
BBX 5 7 0 0
BITMAP
5FFFC0
5C0000
5C0000
5FFF60
5C0000
5C0000
5FFFC0
ENDCHAR
STARTCHAR uni0416
ENCODING 1046
SWIDTH 954 0
DWIDTH 9 0
BBX 9 7 0 0
BITMAP
7C03E03F20
0D53E0A800
05D3E3E100
01EFFFA000
08C3E2F300
2E43E09B00
9B03E02F40
ENDCHAR
STARTCHAR uni0417
ENCODING 1047
SWIDTH 604 0
DWIDTH 5 0
BBX 5 7 0 0
BITMAP
2BED60
4516D0
01FF50
0006D0
4301F0
7B16D0
1AEC30
ENDCHAR
STARTCHAR uni0418
ENCODING 1048
SWIDTH 707 0
DWIDTH 6 0
BBX 6 7 0 0
BITMAP
5C00BA
5C04FA
5C0CBA
5C6B6A
5CD36A
5F906A
5E106A
ENDCHAR
STARTCHAR uni0419
ENCODING 1049
SWIDTH 707 0
DWIDTH 6 0
BBX 6 10 0 0
BITMAP
03A580
00BE20
000000
5C00BA
5C04FA
5C0CBA
5C6B6A
5CD36A
5F906A
5E106A
ENDCHAR
STARTCHAR uni041A
ENCODING 1050
SWIDTH 644 0
DWIDTH 6 0
BBX 6 7 0 0
BITMAP
5C01E5
5C0AA0
5C4E10
5FF900
5C2E30
5C07C0
5C00C8
ENDCHAR
STARTCHAR uni041B
ENCODING 1051
SWIDTH 707 0
DWIDTH 6 0
BBX 6 7 0 0
BITMAP
07FFFA
07906A
08806A
09806A
0A606A
2E406A
CA006A
ENDCHAR
STARTCHAR uni041C
ENCODING 1052
SWIDTH 875 0
DWIDTH 8 0
BBX 8 7 0 0
BITMAP
5F4006F3
5F900BF3
5BE01DC3
5BB468D3
5B5AC3D3
5C1ED0D3
5C0A80D3
ENDCHAR
STARTCHAR uni041D
ENCODING 1053
SWIDTH 710 0
DWIDTH 6 0
BBX 6 7 0 0
BITMAP
5C006B
5C006B
5C006B
5FFFFB
5C006B
5C006B
5C006B
ENDCHAR
STARTCHAR uni041E
ENCODING 1054
SWIDTH 690 0
DWIDTH 6 0
BBX 6 7 0 0
BITMAP
06DE80
2E32D5
7A007A
89006B
7A007A
2E32D5
06DE80
ENDCHAR
STARTCHAR uni041F
ENCODING 1055
SWIDTH 711 0
DWIDTH 6 0
BBX 6 7 0 0
BITMAP
5FFFFB
5C006B
5C006B
5C006B
5C006B
5C006B
5C006B
ENDCHAR
STARTCHAR uni0420
ENCODING 1056
SWIDTH 639 0
DWIDTH 6 0
BBX 6 7 0 0
BITMAP
5FFE90
5C01D5
5C01D5
5FFEA0
5C0000
5C0000
5C0000
ENDCHAR
STARTCHAR uni0421
ENCODING 1057
SWIDTH 652 0
DWIDTH 6 0
BBX 6 7 0 0
BITMAP
06EE80
3E31D4
7A0032
890000
7A0022
3E31D5
07EE80
ENDCHAR
STARTCHAR uni0422
ENCODING 1058
SWIDTH 606 0
DWIDTH 5 0
BBX 6 7 0 0
BITMAP
CFFFF4
00C400
00C400
00C400
00C400
00C400
00C400
ENDCHAR
STARTCHAR uni0423
ENCODING 1059
SWIDTH 629 0
DWIDTH 6 0
BBX 6 7 0 0
BITMAP
8A00E4
2F24D0
0A7A70
03DE20
00CB00
00C500
0CA000
ENDCHAR
STARTCHAR uni0424
ENCODING 1060
SWIDTH 796 0
DWIDTH 7 0
BBX 7 7 0 0
BITMAP
000E2000
09EFFA10
6B1E3990
960E23C0
6B1E3990
08EFFA10
000E2000
ENDCHAR
STARTCHAR uni0425
ENCODING 1061
SWIDTH 632 0
DWIDTH 6 0
BBX 6 7 0 0
BITMAP
8C01E3
1E59A0
06DE20
00EA00
06DE20
1E49A0
8B01E4
ENDCHAR
STARTCHAR uni0426
ENCODING 1062
SWIDTH 746 0
DWIDTH 7 0
BBX 7 9 0 -2
BITMAP
5B006A00
5B006A00
5B006A00
5B006A00
5B006A00
5B006A00
5FFFFF70
00000A60
00000A60
ENDCHAR
STARTCHAR uni0427
ENCODING 1063
SWIDTH 691 0
DWIDTH 6 0
BBX 6 7 0 0
BITMAP
6B0088
6B0088
4D1198
09EEE8
000088
000088
000088
ENDCHAR
STARTCHAR uni0428
ENCODING 1064
SWIDTH 950 0
DWIDTH 9 0
BBX 8 7 0 0
BITMAP
5C04D03D
5C04D03D
5C04D03D
5C04D03D
5C04D03D
5C04D03D
5FFFFFFD
ENDCHAR
STARTCHAR uni0429
ENCODING 1065
SWIDTH 996 0
DWIDTH 9 0
BBX 9 9 0 -2
BITMAP
5C04D03D00
5C04D03D00
5C04D03D00
5C04D03D00
5C04D03D00
5C04D03D00
5FFFFFFF90
0000000690
0000000680
ENDCHAR
STARTCHAR uni042A
ENCODING 1066
SWIDTH 762 0
DWIDTH 7 0
BBX 7 7 0 0
BITMAP
DFE00000
02E00000
02E00000
02FFEA10
02E01B70
02E01B70
02FFEA10
ENDCHAR
STARTCHAR uni042B
ENCODING 1067
SWIDTH 871 0
DWIDTH 8 0
BBX 8 7 0 0
BITMAP
5C0000F2
5C0000F2
5C0000F2
5FFE90F2
5C02D5F2
5C01D4F2
5FFE90F2
ENDCHAR
STARTCHAR uni042C
ENCODING 1068
SWIDTH 628 0
DWIDTH 6 0
BBX 6 7 0 0
BITMAP
5B0000
5B0000
5B0000
5FFE90
5B02E4
5B02E4
5FFE80
ENDCHAR
STARTCHAR uni042D
ENCODING 1069
SWIDTH 664 0
DWIDTH 6 0
BBX 6 7 0 0
BITMAP
08EE60
4D13E3
3300A7
00CFF8
230097
4D12E3
08EE70
ENDCHAR
STARTCHAR uni042E
ENCODING 1070
SWIDTH 916 0
DWIDTH 8 0
BBX 8 7 0 0
BITMAP
4C04DE91
4C1E51B8
4C5C005C
4FFB003D
4C5C005C
4C1E51B8
4C04DE91
ENDCHAR
STARTCHAR uni042F
ENCODING 1071
SWIDTH 620 0
DWIDTH 6 0
BBX 5 7 0 0
BITMAP
1BEFE0
7B13E0
6B13E0
0BFFE0
0C53E0
3E03E0
A803E0
ENDCHAR
STARTCHAR uni0430
ENCODING 1072
SWIDTH 541 0
DWIDTH 5 0
BBX 5 5 0 0
BITMAP
3CEA00
001D40
3CFF40
8A1D40
3DDD60
ENDCHAR
STARTCHAR uni0431
ENCODING 1073
SWIDTH 561 0
DWIDTH 5 0
BBX 5 7 0 0
BITMAP
005C40
0A7200
5CEC20
8B1990
9705B0
6B1990
0AEB10
ENDCHAR
STARTCHAR uni0432
ENCODING 1074
SWIDTH 569 0
DWIDTH 5 0
BBX 5 5 0 0
BITMAP
6FFD30
6B0B70
6FFE30
6B08A0
6FFE50
ENDCHAR
STARTCHAR uni0433
ENCODING 1075
SWIDTH 418 0
DWIDTH 4 0
BBX 4 5 0 0
BITMAP
6FFB
6A00
6A00
6A00
6A00
ENDCHAR
STARTCHAR uni0434
ENCODING 1076
SWIDTH 620 0
DWIDTH 6 0
BBX 6 6 0 -1
BITMAP
09FFB0
0A65B0
0B55B0
2E15B0
CFFFF5
C400B5
ENDCHAR
STARTCHAR uni0435
ENCODING 1077
SWIDTH 536 0
DWIDTH 5 0
BBX 5 5 0 0
BITMAP
0AEA00
7B1B60
9FFF80
7A1310
1AEC20
ENDCHAR
STARTCHAR uni0436
ENCODING 1078
SWIDTH 807 0
DWIDTH 7 0
BBX 7 5 0 0
BITMAP
7C0E38B0
0D5E4E20
07FFFB00
1E4E4E40
9B0E37C0
ENDCHAR
STARTCHAR uni0437
ENCODING 1079
SWIDTH 510 0
DWIDTH 5 0
BBX 5 5 0 0
BITMAP
4DFA00
002F10
06FB00
001E20
4DEA00
ENDCHAR
STARTCHAR uni0438
ENCODING 1080
SWIDTH 574 0
DWIDTH 5 0
BBX 5 5 0 0
BITMAP
6A0B90
6A5F90
6AC990
6F7790
6D1790
ENDCHAR
STARTCHAR uni0439
ENCODING 1081
SWIDTH 574 0
DWIDTH 5 0
BBX 5 8 0 0
BITMAP
0B2D00
05E700
000000
6A0B90
6A5F90
6AC990
6F7790
6D1790
ENDCHAR
STARTCHAR uni043A
ENCODING 1082
SWIDTH 553 0
DWIDTH 5 0
BBX 5 5 0 0
BITMAP
6B0C70
6B8B00
6FF400
6B7D00
6B0B90
ENDCHAR
STARTCHAR uni043B
ENCODING 1083
SWIDTH 575 0
DWIDTH 5 0
BBX 5 5 0 0
BITMAP
0DFF90
0D2790
0E1790
3E0790
C70790
ENDCHAR
STARTCHAR uni043C
ENCODING 1084
SWIDTH 751 0
DWIDTH 7 0
BBX 7 5 0 0
BITMAP
6F206F20
6F80CF20
6BD3BE20
6B9D5E20
6B3E0E20
ENDCHAR
STARTCHAR uni043D
ENCODING 1085
SWIDTH 573 0
DWIDTH 5 0
BBX 5 5 0 0
BITMAP
6A0890
6A0890
6FFF90
6A0890
6A0890
ENDCHAR
STARTCHAR uni043E
ENCODING 1086
SWIDTH 569 0
DWIDTH 5 0
BBX 5 5 0 0
BITMAP
1AEB10
7B1990
9705B0
7B1990
1AEB10
ENDCHAR
STARTCHAR uni043F
ENCODING 1087
SWIDTH 574 0
DWIDTH 5 0
BBX 5 5 0 0
BITMAP
6FFF90
6A0790
6A0790
6A0790
6A0790
ENDCHAR
STARTCHAR uni0440
ENCODING 1088
SWIDTH 562 0
DWIDTH 5 0
BBX 5 7 0 -2
BITMAP
7CEC20
7B1A80
7906A0
7B1A80
7DEC20
790000
790000
ENDCHAR
STARTCHAR uni0441
ENCODING 1089
SWIDTH 523 0
DWIDTH 5 0
BBX 5 5 0 0
BITMAP
1BEB10
7A1940
970000
7A1830
1BEA10
ENDCHAR
STARTCHAR uni0442
ENCODING 1090
SWIDTH 494 0
DWIDTH 4 0
BBX 5 5 0 0
BITMAP
DFFF40
05B000
05B000
05B000
05B000
ENDCHAR
STARTCHAR uni0443
ENCODING 1091
SWIDTH 486 0
DWIDTH 4 0
BBX 5 7 0 -2
BITMAP
C50E20
7A4C00
2E8700
0BE200
06C000
097000
8D1000
ENDCHAR
STARTCHAR uni0444
ENCODING 1092
SWIDTH 728 0
DWIDTH 7 0
BBX 7 9 0 -2
BITMAP
004C0000
004C0000
1CEFE700
7A5C3E10
974C0E20
8A5C2F10
2CEFE800
004C0000
004C0000
ENDCHAR
STARTCHAR uni0445
ENCODING 1093
SWIDTH 502 0
DWIDTH 5 0
BBX 5 5 0 0
BITMAP
892E10
1DC700
08F100
1DB800
892E20
ENDCHAR
STARTCHAR uni0446
ENCODING 1094
SWIDTH 603 0
DWIDTH 5 0
BBX 6 6 0 -1
BITMAP
6A0790
6A0790
6A0790
6A0790
6FFFF3
0000C2
ENDCHAR
STARTCHAR uni0447
ENCODING 1095
SWIDTH 549 0
DWIDTH 5 0
BBX 5 5 0 0
BITMAP
970B50
8A1B50
2CFF50
000B50
000B50
ENDCHAR
STARTCHAR uni0448
ENCODING 1096
SWIDTH 819 0
DWIDTH 7 0
BBX 7 5 0 0
BITMAP
6A0D34C0
6A0D34C0
6A0D34C0
6A0D34C0
6FFFFFC0
ENDCHAR
STARTCHAR uni0449
ENCODING 1097
SWIDTH 865 0
DWIDTH 8 0
BBX 8 6 0 -1
BITMAP
790D35B0
790D35B0
790D35B0
790D35B0
7FFFFFF8
00000087
ENDCHAR
STARTCHAR uni044A
ENCODING 1098
SWIDTH 636 0
DWIDTH 6 0
BBX 6 5 0 0
BITMAP
DF9000
089000
08FFC2
0890B7
08FFC2
ENDCHAR
STARTCHAR uni044B
ENCODING 1099
SWIDTH 804 0
DWIDTH 7 0
BBX 7 5 0 0
BITMAP
6B000880
6B000880
6FFD3880
6B099880
6FFD3880
ENDCHAR
STARTCHAR uni044C
ENCODING 1100
SWIDTH 550 0
DWIDTH 5 0
BBX 5 5 0 0
BITMAP
6B0000
6B0000
6FFD30
6B0990
6FFD30
ENDCHAR
STARTCHAR uni044D
ENCODING 1101
SWIDTH 529 0
DWIDTH 5 0
BBX 5 5 0 0
BITMAP
4DE800
221D30
03FF50
221D30
4DE800
ENDCHAR
STARTCHAR uni044E
ENCODING 1102
SWIDTH 814 0
DWIDTH 7 0
BBX 7 5 0 0
BITMAP
5B08ED30
5B4D16C0
5FFA02F0
5B4D16C0
5B08ED30
ENDCHAR
STARTCHAR uni044F
ENCODING 1103
SWIDTH 554 0
DWIDTH 5 0
BBX 5 5 0 0
BITMAP
3DFF50
8A0B50
3EFF50
2E1B50
980B50
ENDCHAR
STARTCHAR uni0450
ENCODING 1104
SWIDTH 536 0
DWIDTH 5 0
BBX 5 8 0 0
BITMAP
0C6000
03A000
000000
0AEA00
7B1B60
9FFF80
7A1310
1AEC20
ENDCHAR
STARTCHAR uni0451
ENCODING 1105
SWIDTH 536 0
DWIDTH 5 0
BBX 5 7 0 0
BITMAP
1C0C00
000000
0AEA00
7B1B60
9FFF80
7A1310
1AEC20
ENDCHAR
STARTCHAR uni0452
ENCODING 1106
SWIDTH 555 0
DWIDTH 5 0
BBX 6 10 -1 -2
BITMAP
079000
2FFC00
079000
07CDD2
07B1B6
079097
079097
079097
0000B6
0009D2
ENDCHAR
STARTCHAR uni0453
ENCODING 1107
SWIDTH 418 0
DWIDTH 4 0
BBX 4 8 0 0
BITMAP
02E2
0670
0000
6FFB
6A00
6A00
6A00
6A00
ENDCHAR
STARTCHAR uni0454
ENCODING 1108
SWIDTH 529 0
DWIDTH 5 0
BBX 5 5 0 0
BITMAP
1AEC20
7A0320
9FF000
7B1210
1BEC20
ENDCHAR
STARTCHAR uni0455
ENCODING 1109
SWIDTH 516 0
DWIDTH 5 0
BBX 5 5 0 0
BITMAP
2CFC10
7B0000
1AD800
001E30
5DFA00
ENDCHAR
STARTCHAR uni0456
ENCODING 1110
SWIDTH 255 0
DWIDTH 2 0
BBX 2 8 0 0
BITMAP
01
59
00
6A
6A
6A
6A
6A
ENDCHAR
STARTCHAR uni0457
ENCODING 1111
SWIDTH 262 0
DWIDTH 2 0
BBX 4 7 -1 0
BITMAP
4939
0000
06B0
06B0
06B0
06B0
06B0
ENDCHAR
STARTCHAR uni0458
ENCODING 1112
SWIDTH 250 0
DWIDTH 2 0
BBX 3 10 -1 -2
BITMAP
0010
0690
0000
06A0
06A0
06A0
06A0
06A0
07A0
5E40
ENDCHAR
STARTCHAR uni0459
ENCODING 1113
SWIDTH 852 0
DWIDTH 8 0
BBX 8 5 0 0
BITMAP
0DFF7000
0E297000
0F19FFC1
3E0971C6
D709FFC1
ENDCHAR
STARTCHAR uni045A
ENCODING 1114
SWIDTH 861 0
DWIDTH 8 0
BBX 8 5 0 0
BITMAP
6A089000
6A089000
6FFFFFC2
6A0890B7
6A08FFC2
ENDCHAR
STARTCHAR uni045B
ENCODING 1115
SWIDTH 566 0
DWIDTH 5 0
BBX 6 8 -1 0
BITMAP
079000
1FFD00
079000
07CDD2
07B1B6
079097
079097
079097
ENDCHAR
STARTCHAR uni045C
ENCODING 1116
SWIDTH 553 0
DWIDTH 5 0
BBX 5 8 0 0
BITMAP
008A00
00B200
000000
6B0C70
6B8B00
6FF400
6B7D00
6B0B90
ENDCHAR
STARTCHAR uni045D
ENCODING 1117
SWIDTH 574 0
DWIDTH 5 0
BBX 5 8 0 0
BITMAP
099000
01C000
000000
6A0B90
6A5F90
6AC990
6F7790
6D1790
ENDCHAR
STARTCHAR uni045E
ENCODING 1118
SWIDTH 486 0
DWIDTH 4 0
BBX 5 10 0 -2
BITMAP
1C4900
0AE300
000000
C50E20
7A4C00
2E8700
0BE200
06C000
097000
8D1000
ENDCHAR
STARTCHAR uni045F
ENCODING 1119
SWIDTH 574 0
DWIDTH 5 0
BBX 5 7 0 -2
BITMAP
6A0790
6A0790
6A0790
6A0790
6FFF90
00E200
00E200
ENDCHAR
STARTCHAR uni0460
ENCODING 1120
SWIDTH 910 0
DWIDTH 8 0
BBX 8 7 0 0
BITMAP
6B07A089
6B07A089
6B07A089
6B07A089
6B07A089
4D1BD1B7
0AEA9EB1
ENDCHAR
STARTCHAR uni0461
ENCODING 1121
SWIDTH 788 0
DWIDTH 7 0
BBX 7 5 0 0
BITMAP
880E26A0
880E26A0
880E26A0
7A2F4890
1CE9ED30
ENDCHAR
STARTCHAR uni0462
ENCODING 1122
SWIDTH 628 0
DWIDTH 6 0
BBX 7 7 -1 0
BITMAP
05B00000
3FFB0000
05B00000
05FFE900
05B02E40
05B02E40
05FFE800
ENDCHAR
STARTCHAR uni0463
ENCODING 1123
SWIDTH 550 0
DWIDTH 5 0
BBX 6 7 -1 0
BITMAP
06A000
2FFF00
06A000
06A000
06FFD3
06A099
06FFD3
ENDCHAR
STARTCHAR uni0464
ENCODING 1124
SWIDTH 894 0
DWIDTH 8 0
BBX 8 7 0 0
BITMAP
5C05DE90
5C1E41B7
5C5C0023
5FFFFD00
5C6B0033
5C2E31C6
5C06DE90
ENDCHAR
STARTCHAR uni0465
ENCODING 1125
SWIDTH 750 0
DWIDTH 7 0
BBX 7 5 0 0
BITMAP
6A1BEB10
6A8A1940
6FFFF100
6A8A1830
6A1BEA10
ENDCHAR
STARTCHAR uni0466
ENCODING 1126
SWIDTH 630 0
DWIDTH 6 0
BBX 6 7 0 0
BITMAP
00B900
01EE00
06AC40
0B5790
1FFFE0
6B96D4
B79698
ENDCHAR
STARTCHAR uni0467
ENCODING 1127
SWIDTH 546 0
DWIDTH 5 0
BBX 5 5 0 0
BITMAP
04F200
0AD700
1E4D00
6FFF40
C6D890
ENDCHAR
STARTCHAR uni0468
ENCODING 1128
SWIDTH 907 0
DWIDTH 8 0
BBX 8 7 0 0
BITMAP
4D006E10
4D00BE50
4D01E7A0
4D06B2E0
4FFFFFF4
4D1E5B89
4D5C4B3E
ENDCHAR
STARTCHAR uni0469
ENCODING 1129
SWIDTH 776 0
DWIDTH 7 0
BBX 7 5 0 0
BITMAP
5C03F300
5C09D800
5C0E4E00
5FFFFF40
5CA6D7A0
ENDCHAR
STARTCHAR uni046A
ENCODING 1130
SWIDTH 865 0
DWIDTH 8 0
BBX 8 7 0 0
BITMAP
08FFFF60
01E34D00
006AC500
0AEFFE80
5D1972F2
7A0970D3
7A0970D4
ENDCHAR
STARTCHAR uni046B
ENCODING 1131
SWIDTH 737 0
DWIDTH 7 0
BBX 7 5 0 0
BITMAP
09FFF400
01C5A000
1BFFE700
5C4D3F00
6A3D0F10
ENDCHAR
STARTCHAR uni046C
ENCODING 1132
SWIDTH 1149 0
DWIDTH 10 0
BBX 10 7 0 0
BITMAP
4C01EFFFE1
4C006B0B70
4C000D7D00
4FFFFFFFC3
4C0C72F29A
4C0D31F15C
4C0D31F15C
ENDCHAR
STARTCHAR uni046D
ENCODING 1133
SWIDTH 996 0
DWIDTH 9 0
BBX 9 5 0 0
BITMAP
6B04FFF900
6B00A5C100
6FFFFFFA00
6B0E3D4C50
6B1F0D3A60
ENDCHAR
STARTCHAR uni046E
ENCODING 1134
SWIDTH 515 0
DWIDTH 5 0
BBX 5 12 0 -2
BITMAP
1C6800
06D100
000000
7FE700
005E00
0DF500
005D00
000F10
004E00
7FD500
C40000
490000
ENDCHAR
STARTCHAR uni046F
ENCODING 1135
SWIDTH 492 0
DWIDTH 4 0
BBX 4 10 0 -2
BITMAP
3B95
09B0
0000
7FD5
007B
0DF6
005D
7FE7
B500
4800
ENDCHAR
STARTCHAR uni0470
ENCODING 1136
SWIDTH 708 0
DWIDTH 6 0
BBX 6 7 0 0
BITMAP
B66B1F
B66B1F
A76B2F
7C7B8B
09EFB2
006B00
006B00
ENDCHAR
STARTCHAR uni0471
ENCODING 1137
SWIDTH 723 0
DWIDTH 7 0
BBX 7 7 0 -2
BITMAP
A65B4C00
A65B0F10
975B0E20
6C6B6D00
09EFC300
005B0000
005B0000
ENDCHAR
STARTCHAR uni0472
ENCODING 1138
SWIDTH 684 0
DWIDTH 6 0
BBX 6 7 0 0
BITMAP
06EE80
3E32D5
79007A
9FFFFB
790079
3E32D5
06EE80
ENDCHAR
STARTCHAR uni0473
ENCODING 1139
SWIDTH 566 0
DWIDTH 5 0
BBX 5 5 0 0
BITMAP
1BEB10
7A1990
9FFFB0
7A1990
1AEB10
ENDCHAR
STARTCHAR uni0474
ENCODING 1140
SWIDTH 637 0
DWIDTH 6 0
BBX 6 7 0 0
BITMAP
C60088
7A01E1
2E05A0
0C3A50
088D10
03EB00
00D700
ENDCHAR
STARTCHAR uni0475
ENCODING 1141
SWIDTH 506 0
DWIDTH 5 0
BBX 5 5 0 0
BITMAP
B60B80
6A3D00
1D7700
0BD200
06D000
ENDCHAR
STARTCHAR uni0476
ENCODING 1142
SWIDTH 637 0
DWIDTH 6 0
BBX 6 10 0 0
BITMAP
4DC600
098A00
000000
C60088
7A01E1
2E05A0
0C3A50
088D10
03EB00
00D700
ENDCHAR
STARTCHAR uni0477
ENCODING 1143
SWIDTH 506 0
DWIDTH 5 0
BBX 5 8 0 0
BITMAP
B9D100
2C9400
000000
B60B80
6A3D00
1D7700
0BD200
06D000
ENDCHAR
STARTCHAR uni0478
ENCODING 1144
SWIDTH 1177 0
DWIDTH 11 0
BBX 11 9 0 -2
BITMAP
06DE80000000
2E32D5000000
7A007A890B50
89006B3D1E10
7A007A0D7B00
2E32D508E600
06DE8003F100
00000006B000
0000005E3000
ENDCHAR
STARTCHAR uni0479
ENCODING 1145
SWIDTH 1056 0
DWIDTH 10 0
BBX 10 7 0 -2
BITMAP
1AEB1A70D4
7B1995C2E0
9705B0E790
7B1990AE40
1AEB104E00
0000007900
000006D200
ENDCHAR
STARTCHAR uni047A
ENCODING 1146
SWIDTH 684 0
DWIDTH 6 0
BBX 6 9 0 -1
BITMAP
003400
06EE80
3E44D5
790079
98006B
790079
3E44D5
06EE80
003400
ENDCHAR
STARTCHAR uni047B
ENCODING 1147
SWIDTH 566 0
DWIDTH 5 0
BBX 5 7 0 -1
BITMAP
006000
1BFC10
7B5990
9705B0
7B6890
1BFC10
006000
ENDCHAR
STARTCHAR uni047C
ENCODING 1148
SWIDTH 908 0
DWIDTH 8 0
BBX 8 10 0 0
BITMAP
001DA200
00466E00
00036000
0A8006B1
4D1000B6
6B000098
6B079088
6B079098
4D1BC1B6
0AEB9EB1
ENDCHAR
STARTCHAR uni047D
ENCODING 1149
SWIDTH 783 0
DWIDTH 7 0
BBX 7 8 0 0
BITMAP
006E5000
00A2A800
00091000
1C404C10
6B000A70
790B1880
6B3F4A70
1CE9EC20
ENDCHAR
STARTCHAR uni047E
ENCODING 1150
SWIDTH 910 0
DWIDTH 8 0
BBX 8 9 0 0
BITMAP
00CFFF00
00057000
6B07A089
6B07A089
6B07A089
6B07A089
6B07A089
4D1BD1B7
0AEA9EB1
ENDCHAR
STARTCHAR uni047F
ENCODING 1151
SWIDTH 788 0
DWIDTH 7 0
BBX 7 8 0 0
BITMAP
03FFF600
000C0000
00000000
880E26A0
880E26A0
880E26A0
7A2F4890
1CE9ED30
ENDCHAR
STARTCHAR uni0480
ENCODING 1152
SWIDTH 637 0
DWIDTH 6 0
BBX 6 9 0 -2
BITMAP
07EE70
4E22E2
890021
880000
790000
4E2000
08E900
008900
008900
ENDCHAR
STARTCHAR uni0481
ENCODING 1153
SWIDTH 536 0
DWIDTH 5 0
BBX 5 7 0 -2
BITMAP
0AEA10
6B1940
970000
6B0000
1BF300
00D300
00D300
ENDCHAR
STARTCHAR uni0482
ENCODING 1154
SWIDTH 624 0
DWIDTH 6 0
BBX 5 6 0 0
BITMAP
001390
01AC10
004AA0
4AB100
07B700
1B0200
ENDCHAR
STARTCHAR uni0483
ENCODING 1155
SWIDTH 0 0
DWIDTH 0 0
BBX 5 3 -5 5
BITMAP
000510
1FFF20
060000
ENDCHAR
STARTCHAR uni0484
ENCODING 1156
SWIDTH 0 0
DWIDTH 0 0
BBX 4 2 -4 6
BITMAP
19E2
E755
ENDCHAR
STARTCHAR uni0485
ENCODING 1157
SWIDTH 0 0
DWIDTH 0 0
BBX 2 1 -3 6
BITMAP
91
ENDCHAR
STARTCHAR uni0486
ENCODING 1158
SWIDTH 0 0
DWIDTH 0 0
BBX 2 1 -3 6
BITMAP
64
ENDCHAR
STARTCHAR uni0488
ENCODING 1160
SWIDTH 0 0
DWIDTH 0 0
BBX 9 10 -7 -3
BITMAP
0001D30000
0002330000
07A0005C00
0440004310
4D10000890
3310000440
08A0006B00
0440004300
0001D40000
0001340000
ENDCHAR
STARTCHAR uni0489
ENCODING 1161
SWIDTH 0 0
DWIDTH 0 0
BBX 9 9 -7 -2
BITMAP
0000710000
0160500000
0060006600
0000001000
3910000760
0000000000
0010005100
0390512500
0000800000
ENDCHAR
STARTCHAR uni048A
ENCODING 1162
SWIDTH 770 0
DWIDTH 7 0
BBX 7 12 0 -2
BITMAP
03A58000
00BE2000
00000000
5C00BA00
5C04FA00
5C0CBA00
5C6B6A00
5CD36A00
5F906A00
5E106F90
00000860
00000300
ENDCHAR
STARTCHAR uni048B
ENCODING 1163
SWIDTH 638 0
DWIDTH 6 0
BBX 6 10 0 -2
BITMAP
0B2D00
05E700
000000
6A0B90
6A5F90
6AC990
6F7790
6D17F7
0000A4
000030
ENDCHAR
STARTCHAR uni048C
ENCODING 1164
SWIDTH 628 0
DWIDTH 6 0
BBX 7 7 -1 0
BITMAP
05B00000
3FFB0000
05B00000
05FFE900
05B02E40
05B02E40
05FFE800
ENDCHAR
STARTCHAR uni048D
ENCODING 1165
SWIDTH 550 0
DWIDTH 5 0
BBX 6 8 -1 0
BITMAP
048000
2FFF00
06A000
06A000
06FFC2
06A098
06A098
06FFC2
ENDCHAR
STARTCHAR uni048E
ENCODING 1166
SWIDTH 634 0
DWIDTH 6 0
BBX 6 7 0 0
BITMAP
5FFE90
5C01D5
5C08D5
5FFED2
5C0011
5C0000
5C0000
ENDCHAR
STARTCHAR uni048F
ENCODING 1167
SWIDTH 565 0
DWIDTH 5 0
BBX 5 7 0 -2
BITMAP
7CEC20
7B1A80
7906A0
7B3E80
7DED60
790010
790000
ENDCHAR
STARTCHAR uni0490
ENCODING 1168
SWIDTH 551 0
DWIDTH 5 0
BBX 5 8 0 0
BITMAP
0005B0
6FFFB0
6B0000
6B0000
6B0000
6B0000
6B0000
6B0000
ENDCHAR
STARTCHAR uni0491
ENCODING 1169
SWIDTH 453 0
DWIDTH 4 0
BBX 4 7 0 0
BITMAP
0024
004C
7FFC
7900
7900
7900
7900
ENDCHAR
STARTCHAR uni0492
ENCODING 1170
SWIDTH 557 0
DWIDTH 5 0
BBX 6 7 -1 0
BITMAP
05FFFB
05C000
05C000
1FFD00
05C000
05C000
05C000
ENDCHAR
STARTCHAR uni0493
ENCODING 1171
SWIDTH 418 0
DWIDTH 4 0
BBX 5 5 -1 0
BITMAP
06FFB0
06A000
2FFC00
06A000
06A000
ENDCHAR
STARTCHAR uni0494
ENCODING 1172
SWIDTH 618 0
DWIDTH 6 0
BBX 6 8 0 -1
BITMAP
5FFFB0
5C0000
5C0000
5FFC40
5C05E0
5C00E2
5C03E1
001E60
ENDCHAR
STARTCHAR uni0495
ENCODING 1173
SWIDTH 515 0
DWIDTH 5 0
BBX 5 6 0 -1
BITMAP
7FFA00
790000
7FE800
792E30
790D30
007800
ENDCHAR
STARTCHAR uni0496
ENCODING 1174
SWIDTH 1013 0
DWIDTH 9 0
BBX 9 8 0 -1
BITMAP
7C03E03F20
0D53E0A800
05D3E3E100
01EFFFA000
08C3E2F300
2E43E09B00
9B03E02FF0
00000001F0
ENDCHAR
STARTCHAR uni0497
ENCODING 1175
SWIDTH 853 0
DWIDTH 8 0
BBX 8 6 0 -1
BITMAP
7C0E38B0
0D5E4E20
07FFFB00
1E4E4E40
9B0E37F8
00000088
ENDCHAR
STARTCHAR uni0498
ENCODING 1176
SWIDTH 604 0
DWIDTH 5 0
BBX 5 8 0 -1
BITMAP
2BED60
4516D0
01FF50
0006D0
4301F0
7B16D0
1AFF30
00C400
ENDCHAR
STARTCHAR uni0499
ENCODING 1177
SWIDTH 510 0
DWIDTH 5 0
BBX 5 6 0 -1
BITMAP
4DFA00
002F10
06FB00
001E20
4FFA00
03D000
ENDCHAR
STARTCHAR uni049A
ENCODING 1178
SWIDTH 724 0
DWIDTH 7 0
BBX 7 8 0 -1
BITMAP
5C01E500
5C0AA000
5C4E1000
5FF90000
5C2E3000
5C07C000
5C00CF30
00000D30
ENDCHAR
STARTCHAR uni049B
ENCODING 1179
SWIDTH 622 0
DWIDTH 6 0
BBX 6 6 0 -1
BITMAP
6B0C70
6B8B00
6FF400
6B7D00
6B0BF5
0000B5
ENDCHAR
STARTCHAR uni049C
ENCODING 1180
SWIDTH 646 0
DWIDTH 6 0
BBX 6 7 0 0
BITMAP
5B00D6
5B14D0
5BBB60
5FFF20
5BBA90
5B03F2
5B00C9
ENDCHAR
STARTCHAR uni049D
ENCODING 1181
SWIDTH 583 0
DWIDTH 5 0
BBX 6 5 0 0
BITMAP
6A06D0
6A9D40
6FFE00
6A8C60
6A05E1
ENDCHAR
STARTCHAR uni049E
ENCODING 1182
SWIDTH 654 0
DWIDTH 6 0
BBX 7 7 -1 0
BITMAP
04D01D60
2FFC9B00
04D3E200
04FFB000
04D2E400
04D06D10
04D00B90
ENDCHAR
STARTCHAR uni049F
ENCODING 1183
SWIDTH 533 0
DWIDTH 5 0
BBX 6 7 -1 0
BITMAP
05B000
5FF900
05B1D5
05B8A0
05FF30
05B7C0
05B0B7
ENDCHAR
STARTCHAR uni04A0
ENCODING 1184
SWIDTH 822 0
DWIDTH 7 0
BBX 8 7 0 0
BITMAP
CFF606D1
00A61E40
00A6AA00
00AFF400
00A68C00
00A60C70
00A603E2
ENDCHAR
STARTCHAR uni04A1
ENCODING 1185
SWIDTH 705 0
DWIDTH 6 0
BBX 7 5 0 0
BITMAP
BFF26C00
00E4E300
00EFA000
00E3E400
00E25E10
ENDCHAR
STARTCHAR uni04A2
ENCODING 1186
SWIDTH 769 0
DWIDTH 7 0
BBX 7 8 0 -1
BITMAP
5C006B00
5C006B00
5C006B00
5FFFFB00
5C006B00
5C006B00
5C006F90
00000790
ENDCHAR
STARTCHAR uni04A3
ENCODING 1187
SWIDTH 631 0
DWIDTH 6 0
BBX 6 6 0 -1
BITMAP
6A0890
6A0890
6FFF90
6A0890
6A08F7
000097
ENDCHAR
STARTCHAR uni04A4
ENCODING 1188
SWIDTH 976 0
DWIDTH 9 0
BBX 9 7 0 0
BITMAP
5C006FFF70
5C006B0000
5C006B0000
5FFFFB0000
5C006B0000
5C006B0000
5C006B0000
ENDCHAR
STARTCHAR uni04A5
ENCODING 1189
SWIDTH 708 0
DWIDTH 6 0
BBX 7 5 0 0
BITMAP
7908FF10
79088000
7FFF8000
79088000
79088000
ENDCHAR
STARTCHAR uni04A6
ENCODING 1190
SWIDTH 1034 0
DWIDTH 9 0
BBX 9 8 0 -1
BITMAP
5FFFFB0000
5C006B0000
5C006B0000
5C006FEB20
5C006B18A0
5C006B03D0
5C006B06B0
0000005C30
ENDCHAR
STARTCHAR uni04A7
ENCODING 1191
SWIDTH 869 0
DWIDTH 8 0
BBX 8 6 0 -1
BITMAP
7FFF8000
79088000
7908FEA1
790881B7
79088097
000004A1
ENDCHAR
STARTCHAR uni04A8
ENCODING 1192
SWIDTH 770 0
DWIDTH 7 0
BBX 7 7 0 0
BITMAP
0997EA00
4D2E2C50
8A3C0970
893C0980
7B1E0A50
2E597D10
04DFFF80
ENDCHAR
STARTCHAR uni04A9
ENCODING 1193
SWIDTH 624 0
DWIDTH 6 0
BBX 6 5 0 0
BITMAP
1C6EA0
7AA5E2
88A3D3
5C77D1
09EFF6
ENDCHAR
STARTCHAR uni04AA
ENCODING 1194
SWIDTH 652 0
DWIDTH 6 0
BBX 6 8 0 -1
BITMAP
06EE80
3E31D4
7A0032
890000
7A0022
3E31D5
07FF80
008800
ENDCHAR
STARTCHAR uni04AB
ENCODING 1195
SWIDTH 523 0
DWIDTH 5 0
BBX 5 6 0 -1
BITMAP
1BEB10
7A1940
970000
7A1830
1DFA10
02E000
ENDCHAR
STARTCHAR uni04AC
ENCODING 1196
SWIDTH 606 0
DWIDTH 5 0
BBX 6 8 0 -1
BITMAP
CFFFF4
00C400
00C400
00C400
00C400
00C400
00CF10
000F10
ENDCHAR
STARTCHAR uni04AD
ENCODING 1197
SWIDTH 494 0
DWIDTH 4 0
BBX 5 6 0 -1
BITMAP
DFFF40
05B000
05B000
05B000
05F900
007900
ENDCHAR
STARTCHAR uni04AE
ENCODING 1198
SWIDTH 609 0
DWIDTH 5 0
BBX 6 7 0 0
BITMAP
B701E3
4E07B0
0B6D30
04EB00
00D500
00C400
00C400
ENDCHAR
STARTCHAR uni04AF
ENCODING 1199
SWIDTH 506 0
DWIDTH 5 0
BBX 5 7 0 -2
BITMAP
A60C40
5A1E00
1E6900
0AE400
05E000
04C000
04C000
ENDCHAR
STARTCHAR uni04B0
ENCODING 1200
SWIDTH 609 0
DWIDTH 5 0
BBX 6 7 0 0
BITMAP
B701E3
4E07B0
0D6D50
06ED00
0BFF40
00C400
00C400
ENDCHAR
STARTCHAR uni04B1
ENCODING 1201
SWIDTH 506 0
DWIDTH 5 0
BBX 5 7 0 -2
BITMAP
A60C40
5A1E00
0E6800
09E300
2FFC00
04C000
04C000
ENDCHAR
STARTCHAR uni04B2
ENCODING 1202
SWIDTH 652 0
DWIDTH 6 0
BBX 6 8 0 -1
BITMAP
8C01E3
1E59A0
06DE20
00EA00
06DE20
1E49A0
8B01FF
00004C
ENDCHAR
STARTCHAR uni04B3
ENCODING 1203
SWIDTH 534 0
DWIDTH 5 0
BBX 5 6 0 -1
BITMAP
892E10
1DC700
08F100
1DB800
892FC0
0006A0
ENDCHAR
STARTCHAR uni04B4
ENCODING 1204
SWIDTH 898 0
DWIDTH 8 0
BBX 8 9 0 -2
BITMAP
CFFF65C0
04D005C0
04D005C0
04D005C0
04D005C0
04D005C0
04FFFFF8
00000088
00000087
ENDCHAR
STARTCHAR uni04B5
ENCODING 1205
SWIDTH 679 0
DWIDTH 6 0
BBX 6 6 0 -1
BITMAP
CFF4C4
0B50C4
0B50C4
0B50C4
0BFFFD
00003C
ENDCHAR
STARTCHAR uni04B6
ENCODING 1206
SWIDTH 747 0
DWIDTH 7 0
BBX 7 8 0 -1
BITMAP
6B008800
6B008800
4D119800
09EEE800
00008800
00008800
00008F60
00000A60
ENDCHAR
STARTCHAR uni04B7
ENCODING 1207
SWIDTH 607 0
DWIDTH 5 0
BBX 6 6 0 -1
BITMAP
970B50
8A1B50
2CFF50
000B50
000BF3
0000D3
ENDCHAR
STARTCHAR uni04B8
ENCODING 1208
SWIDTH 681 0
DWIDTH 6 0
BBX 6 7 0 0
BITMAP
7A0097
7A1297
5D58A7
0AEEE7
004797
000097
000097
ENDCHAR
STARTCHAR uni04B9
ENCODING 1209
SWIDTH 556 0
DWIDTH 5 0
BBX 5 5 0 0
BITMAP
792970
7AB970
2CFF70
006970
000970
ENDCHAR
STARTCHAR uni04BA
ENCODING 1210
SWIDTH 690 0
DWIDTH 6 0
BBX 6 7 0 0
BITMAP
6A0000
6A0000
6A0000
6EEEB1
6B11C6
6A0098
6A0098
ENDCHAR
STARTCHAR uni04BB
ENCODING 1211
SWIDTH 555 0
DWIDTH 5 0
BBX 5 7 0 0
BITMAP
790000
790000
7CED20
7B1B60
790970
790970
790970
ENDCHAR
STARTCHAR uni04BC
ENCODING 1212
SWIDTH 767 0
DWIDTH 7 0
BBX 7 7 0 0
BITMAP
006ED600
02E32E20
C8A00A50
5EFFFF70
06A00000
03E30200
006DFC00
ENDCHAR
STARTCHAR uni04BD
ENCODING 1213
SWIDTH 595 0
DWIDTH 5 0
BBX 7 5 -1 0
BITMAP
004DE500
2AD43E00
09FFFF10
00E41400
005DE800
ENDCHAR
STARTCHAR uni04BE
ENCODING 1214
SWIDTH 767 0
DWIDTH 7 0
BBX 7 8 0 -1
BITMAP
006ED600
02E32E20
C8A00A50
5EFFFF70
06A00000
03E30200
006FFC00
0004C000
ENDCHAR
STARTCHAR uni04BF
ENCODING 1215
SWIDTH 595 0
DWIDTH 5 0
BBX 7 6 -1 -1
BITMAP
004DE500
2AD43E00
09FFFF10
00E41400
005FF800
0006A000
ENDCHAR
STARTCHAR uni04C0
ENCODING 1216
SWIDTH 282 0
DWIDTH 3 0
BBX 2 7 0 0
BITMAP
4C
4C
4C
4C
4C
4C
4C
ENDCHAR
STARTCHAR uni04C1
ENCODING 1217
SWIDTH 954 0
DWIDTH 9 0
BBX 9 10 0 0
BITMAP
001C4A0000
0009E40000
0000000000
7C03E03F20
0D53E0A800
05D3E3E100
01EFFFA000
08C3E2F300
2E43E09B00
9B03E02F40
ENDCHAR
STARTCHAR uni04C2
ENCODING 1218
SWIDTH 807 0
DWIDTH 7 0
BBX 7 8 0 0
BITMAP
00B3D000
004E8000
00000000
7C0E38B0
0D5E4E20
07FFFB00
1E4E4E40
9B0E37C0
ENDCHAR
STARTCHAR uni04C3
ENCODING 1219
SWIDTH 641 0
DWIDTH 6 0
BBX 6 8 0 -1
BITMAP
5B03E3
5B0C70
5B7C00
5FFD70
5B02D5
5B0098
5B01C6
000AA0
ENDCHAR
STARTCHAR uni04C4
ENCODING 1220
SWIDTH 558 0
DWIDTH 5 0
BBX 5 6 0 -1
BITMAP
6A1D60
6A9A00
6FFB10
6A0990
6A07A0
002C20
ENDCHAR
STARTCHAR uni04C5
ENCODING 1221
SWIDTH 769 0
DWIDTH 7 0
BBX 7 9 0 -2
BITMAP
07FFFA00
07906A00
08806A00
09806A00
0A606A00
2E406B00
CA006F90
00000850
00000300
ENDCHAR
STARTCHAR uni04C6
ENCODING 1222
SWIDTH 639 0
DWIDTH 6 0
BBX 6 7 0 -2
BITMAP
0DFF90
0D2790
0E1790
3E0790
C707F7
0000A4
000030
ENDCHAR
STARTCHAR uni04C7
ENCODING 1223
SWIDTH 710 0
DWIDTH 6 0
BBX 6 9 0 -2
BITMAP
5C006B
5C006B
5C006B
5FFFFB
5C006B
5C006B
5C006B
00008A
0006E4
ENDCHAR
STARTCHAR uni04C8
ENCODING 1224
SWIDTH 566 0
DWIDTH 5 0
BBX 5 7 0 -2
BITMAP
790880
790880
7FFF80
790880
790880
000A80
008D20
ENDCHAR
STARTCHAR uni04C9
ENCODING 1225
SWIDTH 775 0
DWIDTH 7 0
BBX 7 9 0 -2
BITMAP
5C006B00
5C006B00
5C006B00
5FFFFB00
5C006B00
5C006B00
5C006F90
00000760
00000300
ENDCHAR
STARTCHAR uni04CA
ENCODING 1226
SWIDTH 637 0
DWIDTH 6 0
BBX 6 7 0 -2
BITMAP
6A0890
6A0890
6FFF90
6A0890
6A08F7
0000A4
000030
ENDCHAR
STARTCHAR uni04CB
ENCODING 1227
SWIDTH 691 0
DWIDTH 6 0
BBX 6 8 0 -1
BITMAP
6B0088
6B0088
4D1198
09EEE8
000088
000088
0007F8
000790
ENDCHAR
STARTCHAR uni04CC
ENCODING 1228
SWIDTH 549 0
DWIDTH 5 0
BBX 5 6 0 -1
BITMAP
970B50
8A1B50
2CFF50
000B50
009F50
009700
ENDCHAR
STARTCHAR uni04CD
ENCODING 1229
SWIDTH 936 0
DWIDTH 8 0
BBX 9 9 0 -2
BITMAP
5F4006F300
5F900BF300
5BE01DC300
5BB468D300
5B5AC3D300
5C1ED0D400
5C0A80DF10
0000001D00
0000001300
ENDCHAR
STARTCHAR uni04CE
ENCODING 1230
SWIDTH 808 0
DWIDTH 7 0
BBX 7 7 0 -2
BITMAP
6F206F20
6F80CF20
6BD3BE20
6B9D5E20
6B3E0EF0
000002C0
00000120
ENDCHAR
STARTCHAR uni04CF
ENCODING 1231
SWIDTH 282 0
DWIDTH 3 0
BBX 2 7 0 0
BITMAP
4C
4C
4C
4C
4C
4C
4C
ENDCHAR
STARTCHAR uni04D0
ENCODING 1232
SWIDTH 665 0
DWIDTH 6 0
BBX 6 10 0 0
BITMAP
058860
01CC10
000000
00AA00
01EE10
069950
0B44B0
1FFFF1
6900A6
B5006B
ENDCHAR
STARTCHAR uni04D1
ENCODING 1233
SWIDTH 541 0
DWIDTH 5 0
BBX 5 8 0 0
BITMAP
0C2C00
06E600
000000
3CEA00
001D40
3CFF40
8A1D40
3DDD60
ENDCHAR
STARTCHAR uni04D2
ENCODING 1234
SWIDTH 665 0
DWIDTH 6 0
BBX 6 9 0 0
BITMAP
066660
000000
00AA00
01EE10
069950
0B44B0
1FFFF1
6900A6
B5006B
ENDCHAR
STARTCHAR uni04D3
ENCODING 1235
SWIDTH 541 0
DWIDTH 5 0
BBX 5 7 0 0
BITMAP
0C0C00
000000
3CEA00
001D40
3CFF40
8A1D40
3DDD60
ENDCHAR
STARTCHAR uni04D4
ENCODING 1236
SWIDTH 939 0
DWIDTH 8 0
BBX 9 7 0 0
BITMAP
000AFFFF00
003DE20000
00A6D30000
03C0CFF900
0BFFF40000
4D00B50000
C700BFFF40
ENDCHAR
STARTCHAR uni04D5
ENCODING 1237
SWIDTH 844 0
DWIDTH 8 0
BBX 8 5 0 0
BITMAP
2CEACE90
471D91D3
4DFFFFF5
A91D8130
4EE8BEC1
ENDCHAR
STARTCHAR uni04D6
ENCODING 1238
SWIDTH 565 0
DWIDTH 5 0
BBX 5 10 0 0
BITMAP
094C20
03EA00
000000
5FFFC0
5C0000
5C0000
5FFF60
5C0000
5C0000
5FFFC0
ENDCHAR
STARTCHAR uni04D7
ENCODING 1239
SWIDTH 536 0
DWIDTH 5 0
BBX 5 8 0 0
BITMAP
0D2C00
07E600
000000
0AEA00
7B1B60
9FFF80
7A1310
1AEC20
ENDCHAR
STARTCHAR uni04D8
ENCODING 1240
SWIDTH 691 0
DWIDTH 6 0
BBX 6 7 0 0
BITMAP
0CFD70
0313D5
00007A
AFFFFB
88007A
4D22D5
07DE70
ENDCHAR
STARTCHAR uni04D9
ENCODING 1241
SWIDTH 529 0
DWIDTH 5 0
BBX 5 5 0 0
BITMAP
3DE900
121C40
9FFF70
7A1D40
1BE800
ENDCHAR
STARTCHAR uni04DA
ENCODING 1242
SWIDTH 691 0
DWIDTH 6 0
BBX 6 9 0 0
BITMAP
094940
000000
0CFD70
0313D5
00007A
AFFFFB
88007A
4D22D5
07DE70
ENDCHAR
STARTCHAR uni04DB
ENCODING 1243
SWIDTH 529 0
DWIDTH 5 0
BBX 5 7 0 0
BITMAP
1C0C00
000000
3DE900
121C40
9FFF70
7A1D40
1BE800
ENDCHAR
STARTCHAR uni04DC
ENCODING 1244
SWIDTH 954 0
DWIDTH 9 0
BBX 9 9 0 0
BITMAP
002A2B0000
0000000000
7C03E03F20
0D53E0A800
05D3E3E100
01EFFFA000
08C3E2F300
2E43E09B00
9B03E02F40
ENDCHAR
STARTCHAR uni04DD
ENCODING 1245
SWIDTH 807 0
DWIDTH 7 0
BBX 7 7 0 0
BITMAP
00B1B200
00000000
7C0E38B0
0D5E4E20
07FFFB00
1E4E4E40
9B0E37C0
ENDCHAR
STARTCHAR uni04DE
ENCODING 1246
SWIDTH 604 0
DWIDTH 5 0
BBX 5 9 0 0
BITMAP
0B2A20
000000
2BED60
4516D0
01FF50
0006D0
4301F0
7B16D0
1AEC30
ENDCHAR
STARTCHAR uni04DF
ENCODING 1247
SWIDTH 510 0
DWIDTH 5 0
BBX 5 7 0 0
BITMAP
2A2B00
000000
4DFA00
002F10
06FB00
001E20
4DEA00
ENDCHAR
STARTCHAR uni04E0
ENCODING 1248
SWIDTH 581 0
DWIDTH 5 0
BBX 5 7 0 0
BITMAP
5FFF90
007910
03FC20
0009A0
0005C0
8B19A0
1BEC20
ENDCHAR
STARTCHAR uni04E1
ENCODING 1249
SWIDTH 581 0
DWIDTH 5 0
BBX 5 7 0 -2
BITMAP
6FFF90
002D20
00C500
03FC30
0008B0
8A17B0
1AEC30
ENDCHAR
STARTCHAR uni04E2
ENCODING 1250
SWIDTH 707 0
DWIDTH 6 0
BBX 6 7 0 0
BITMAP
5FFFFA
5C04FA
5C0CBA
5C6B6A
5CD36A
5F906A
5E106A
ENDCHAR
STARTCHAR uni04E3
ENCODING 1251
SWIDTH 574 0
DWIDTH 5 0
BBX 5 7 0 0
BITMAP
0DFF20
000000
6A0B90
6A5F90
6AC990
6F7790
6D1790
ENDCHAR
STARTCHAR uni04E4
ENCODING 1252
SWIDTH 707 0
DWIDTH 6 0
BBX 6 9 0 0
BITMAP
049390
000000
5C00BA
5C04FA
5C0CBA
5C6B6A
5CD36A
5F906A
5E106A
ENDCHAR
STARTCHAR uni04E5
ENCODING 1253
SWIDTH 574 0
DWIDTH 5 0
BBX 5 7 0 0
BITMAP
0C1C10
000000
6A0B90
6A5F90
6AC990
6F7790
6D1790
ENDCHAR
STARTCHAR uni04E6
ENCODING 1254
SWIDTH 690 0
DWIDTH 6 0
BBX 6 9 0 0
BITMAP
058580
000000
06DE80
2E32D5
7A007A
89006B
7A007A
2E32D5
06DE80
ENDCHAR
STARTCHAR uni04E7
ENCODING 1255
SWIDTH 569 0
DWIDTH 5 0
BBX 5 7 0 0
BITMAP
0C0C00
000000
1AEB10
7B1990
9705B0
7B1990
1AEB10
ENDCHAR
STARTCHAR uni04E8
ENCODING 1256
SWIDTH 684 0
DWIDTH 6 0
BBX 6 7 0 0
BITMAP
06EE80
3E32D5
79007A
9FFFFB
790079
3E32D5
06EE80
ENDCHAR
STARTCHAR uni04E9
ENCODING 1257
SWIDTH 566 0
DWIDTH 5 0
BBX 5 5 0 0
BITMAP
1BEB10
7A1990
9FFFB0
7A1990
1AEB10
ENDCHAR
STARTCHAR uni04EA
ENCODING 1258
SWIDTH 684 0
DWIDTH 6 0
BBX 6 9 0 0
BITMAP
048490
000000
06EE80
3E32D5
79007A
9FFFFB
790079
3E32D5
06EE80
ENDCHAR
STARTCHAR uni04EB
ENCODING 1259
SWIDTH 566 0
DWIDTH 5 0
BBX 5 7 0 0
BITMAP
0C0C00
000000
1BEB10
7A1990
9FFFB0
7A1990
1AEB10
ENDCHAR
STARTCHAR uni04EC
ENCODING 1260
SWIDTH 664 0
DWIDTH 6 0
BBX 6 9 0 0
BITMAP
076760
000000
08EE60
4D13E3
3300A7
00CFF8
230097
4D12E3
08EE70
ENDCHAR
STARTCHAR uni04ED
ENCODING 1261
SWIDTH 529 0
DWIDTH 5 0
BBX 5 7 0 0
BITMAP
1B1B00
000000
4DE800
221D30
03FF50
221D30
4DE800
ENDCHAR
STARTCHAR uni04EE
ENCODING 1262
SWIDTH 629 0
DWIDTH 6 0
BBX 6 7 0 0
BITMAP
8FFFF4
2F24D0
0A7A70
03DE20
00CB00
00C500
0CA000
ENDCHAR
STARTCHAR uni04EF
ENCODING 1263
SWIDTH 486 0
DWIDTH 4 0
BBX 5 9 0 -2
BITMAP
4FFC00
000000
C50E20
7A4C00
2E8700
0BE200
06C000
097000
8D1000
ENDCHAR
STARTCHAR uni04F0
ENCODING 1264
SWIDTH 629 0
DWIDTH 6 0
BBX 6 9 0 0
BITMAP
084850
000000
8A00E4
2F24D0
0A7A70
03DE20
00CB00
00C500
0CA000
ENDCHAR
STARTCHAR uni04F1
ENCODING 1265
SWIDTH 486 0
DWIDTH 4 0
BBX 5 9 0 -2
BITMAP
3A2A00
000000
C50E20
7A4C00
2E8700
0BE200
06C000
097000
8D1000
ENDCHAR
STARTCHAR uni04F2
ENCODING 1266
SWIDTH 629 0
DWIDTH 6 0
BBX 6 10 0 0
BITMAP
00D7C0
02AA30
000000
8A00E4
2F24D0
0A7A70
03DE20
00CB00
00C500
0CA000
ENDCHAR
STARTCHAR uni04F3
ENCODING 1267
SWIDTH 486 0
DWIDTH 4 0
BBX 5 10 0 -2
BITMAP
079D30
0A6800
000000
C50E20
7A4C00
2E8700
0BE200
06C000
097000
8D1000
ENDCHAR
STARTCHAR uni04F4
ENCODING 1268
SWIDTH 691 0
DWIDTH 6 0
BBX 6 9 0 0
BITMAP
048480
000000
6B0088
6B0088
4D1198
09EEE8
000088
000088
000088
ENDCHAR
STARTCHAR uni04F5
ENCODING 1269
SWIDTH 549 0
DWIDTH 5 0
BBX 5 7 0 0
BITMAP
1C1C00
000000
970B50
8A1B50
2CFF50
000B50
000B50
ENDCHAR
STARTCHAR uni04F6
ENCODING 1270
SWIDTH 557 0
DWIDTH 5 0
BBX 5 8 0 -1
BITMAP
5FFFB0
5C0000
5C0000
5C0000
5C0000
5C0000
5F9000
079000
ENDCHAR
STARTCHAR uni04F7
ENCODING 1271
SWIDTH 418 0
DWIDTH 4 0
BBX 4 6 0 -1
BITMAP
6FFB
6A00
6A00
6A00
6F80
0880
ENDCHAR
STARTCHAR uni04F8
ENCODING 1272
SWIDTH 871 0
DWIDTH 8 0
BBX 8 9 0 0
BITMAP
00757600
00000000
5C0000F2
5C0000F2
5C0000F2
5FFE90F2
5C02D5F2
5C01D4F2
5FFE90F2
ENDCHAR
STARTCHAR uni04F9
ENCODING 1273
SWIDTH 804 0
DWIDTH 7 0
BBX 7 7 0 0
BITMAP
00C1B100
00000000
6B000880
6B000880
6FFD3880
6B099880
6FFD3880
ENDCHAR
STARTCHAR uni04FA
ENCODING 1274
SWIDTH 597 0
DWIDTH 5 0
BBX 6 9 0 -2
BITMAP
0EFFF1
0E2000
0E2000
CFF300
0E2000
0E2000
0EF200
01F100
0E9000
ENDCHAR
STARTCHAR uni04FB
ENCODING 1275
SWIDTH 460 0
DWIDTH 4 0
BBX 5 7 0 -2
BITMAP
1FFF10
1F0000
DFF200
1F0000
1FE000
04D000
2E7000
ENDCHAR
STARTCHAR uni04FC
ENCODING 1276
SWIDTH 675 0
DWIDTH 6 0
BBX 6 9 0 -2
BITMAP
8C01E3
1E59A0
06DE20
00EA00
06DE20
1E49A0
8B01FF
00003E
0001E8
ENDCHAR
STARTCHAR uni04FD
ENCODING 1277
SWIDTH 556 0
DWIDTH 5 0
BBX 5 7 0 -2
BITMAP
892E10
1DC700
08F100
1DB800
892FF0
0005C0
003E60
ENDCHAR
STARTCHAR uni04FE
ENCODING 1278
SWIDTH 632 0
DWIDTH 6 0
BBX 6 7 0 0
BITMAP
8C01E3
1D59A0
06DE20
09FF50
05DE10
1D49A0
8B01E4
ENDCHAR
STARTCHAR uni04FF
ENCODING 1279
SWIDTH 502 0
DWIDTH 5 0
BBX 5 5 0 0
BITMAP
892E10
1DC700
3FFB00
1DB600
892E20
ENDCHAR
STARTCHAR uni0500
ENCODING 1280
SWIDTH 628 0
DWIDTH 6 0
BBX 6 7 0 0
BITMAP
0000F1
0000F1
0000F1
1BFFF1
8A00F1
8A10F1
1BEFF1
ENDCHAR
STARTCHAR uni0501
ENCODING 1281
SWIDTH 564 0
DWIDTH 5 0
BBX 5 7 0 0
BITMAP
000880
000880
1CED80
8B1A80
970880
7A1A80
1CEC80
ENDCHAR
STARTCHAR uni0502
ENCODING 1282
SWIDTH 867 0
DWIDTH 8 0
BBX 8 7 0 0
BITMAP
0000E300
0000E300
0000E300
1AEFF3B5
7B10E397
7B10E3D6
1AEFFFA0
ENDCHAR
STARTCHAR uni0503
ENCODING 1283
SWIDTH 857 0
DWIDTH 8 0
BBX 8 7 0 0
BITMAP
00088000
00088000
1BED8040
6B1A80D2
980880C4
7B1A92E2
1CE7DE60
ENDCHAR
STARTCHAR uni0504
ENCODING 1284
SWIDTH 790 0
DWIDTH 7 0
BBX 7 7 0 0
BITMAP
BFE60000
004F0000
004E0530
0FF60880
004E0890
000F3C60
0009FA00
ENDCHAR
STARTCHAR uni0505
ENCODING 1285
SWIDTH 644 0
DWIDTH 6 0
BBX 6 5 0 0
BITMAP
CFB100
01D343
6FD178
00C6A8
006EC1
ENDCHAR
STARTCHAR uni0506
ENCODING 1286
SWIDTH 560 0
DWIDTH 5 0
BBX 5 8 0 -1
BITMAP
AFC300
007B00
007A00
5FF300
007B00
003D00
002FB0
000650
ENDCHAR
STARTCHAR uni0507
ENCODING 1287
SWIDTH 530 0
DWIDTH 5 0
BBX 5 7 0 -2
BITMAP
7FD500
008A00
3FF500
007B00
003F90
000770
000920
ENDCHAR
STARTCHAR uni0508
ENCODING 1288
SWIDTH 967 0
DWIDTH 9 0
BBX 9 7 0 0
BITMAP
06FFFA0000
06A07A0000
07A07A0710
07907A0B50
09807A0B60
1D506C2E30
AB002CE800
ENDCHAR
STARTCHAR uni0509
ENCODING 1289
SWIDTH 826 0
DWIDTH 7 0
BBX 8 5 0 0
BITMAP
0BFF8000
0B4881E0
0C3880E1
1E17A3E0
A902DE50
ENDCHAR
STARTCHAR uni050A
ENCODING 1290
SWIDTH 998 0
DWIDTH 9 0
BBX 9 7 0 0
BITMAP
5C007A0000
5C007A0000
5C007A0620
5FFFFA0B50
5C007A0A60
5C006C2E40
5C001CE800
ENDCHAR
STARTCHAR uni050B
ENCODING 1291
SWIDTH 827 0
DWIDTH 7 0
BBX 8 5 0 0
BITMAP
79088000
790881E0
7FFF80E2
7907A3E0
7902DE60
ENDCHAR
STARTCHAR uni050C
ENCODING 1292
SWIDTH 626 0
DWIDTH 6 0
BBX 6 7 0 0
BITMAP
07EE60
4E3110
890000
9800B2
8900C4
4E32E3
07EE70
ENDCHAR
STARTCHAR uni050D
ENCODING 1293
SWIDTH 521 0
DWIDTH 5 0
BBX 5 5 0 0
BITMAP
0AF900
7B1100
970520
6B1C50
0AEC10
ENDCHAR
STARTCHAR uni050E
ENCODING 1294
SWIDTH 708 0
DWIDTH 6 0
BBX 6 7 0 0
BITMAP
DFFFF3
00D400
00D426
00D42E
00D42F
00C67C
006ED3
ENDCHAR
STARTCHAR uni050F
ENCODING 1295
SWIDTH 639 0
DWIDTH 6 0
BBX 6 5 0 0
BITMAP
BFFF40
04C051
04C0B5
03D1D4
00BEA0
ENDCHAR
STARTCHAR uni0510
ENCODING 1296
SWIDTH 666 0
DWIDTH 6 0
BBX 6 7 0 0
BITMAP
1AEEB2
4E2163
0AFE00
3E2000
6B0044
3E31C7
06DE90
ENDCHAR
STARTCHAR uni0511
ENCODING 1297
SWIDTH 546 0
DWIDTH 5 0
BBX 5 5 0 0
BITMAP
2CFD30
6C1000
2EF500
8A1000
3CFD40
ENDCHAR
STARTCHAR uni0512
ENCODING 1298
SWIDTH 785 0
DWIDTH 7 0
BBX 7 9 0 -2
BITMAP
07FFFA00
07906A00
08806A00
09806A00
0A606A00
2E406A00
CA006FB0
000007A0
00005E40
ENDCHAR
STARTCHAR uni0513
ENCODING 1299
SWIDTH 655 0
DWIDTH 6 0
BBX 6 7 0 -2
BITMAP
0DFF90
0D2790
0E1790
3E0790
C707FA
000089
0006E3
ENDCHAR
STARTCHAR uni1E00
ENCODING 7680
SWIDTH 665 0
DWIDTH 6 0
BBX 6 10 0 -3
BITMAP
00AA00
01EE10
069950
0B44B0
1FFFF1
6900A6
B5006B
000000
008900
009900
ENDCHAR
STARTCHAR uni1E01
ENCODING 7681
SWIDTH 541 0
DWIDTH 5 0
BBX 5 8 0 -3
BITMAP
3CEA00
001D40
3CFF40
8A1D40
3DDD60
000000
07B000
07B000
ENDCHAR
STARTCHAR uni1E3E
ENCODING 7742
SWIDTH 875 0
DWIDTH 8 0
BBX 8 10 0 0
BITMAP
0001E300
00058000
00000000
5F4006F3
5F900BF3
5BE01DC3
5BB468D3
5B5AC3D3
5C1ED0D3
5C0A80D3
ENDCHAR
STARTCHAR uni1E3F
ENCODING 7743
SWIDTH 870 0
DWIDTH 8 0
BBX 8 8 0 0
BITMAP
0001E300
00049000
00000000
7CED8EB0
7B1C91D4
790970C4
790970C4
790970C4
ENDCHAR
STARTCHAR Wgrave
ENCODING 7808
SWIDTH 879 0
DWIDTH 8 0
BBX 8 10 0 0
BITMAP
003E1000
00095000
00000000
A609907A
790CC097
4C1DD1C3
1E4994E0
0DA56AC0
09F22F90
06D00E60
ENDCHAR
STARTCHAR wgrave
ENCODING 7809
SWIDTH 743 0
DWIDTH 7 0
BBX 7 8 0 0
BITMAP
00D50000
00490000
00000000
B43D0960
787E2D20
3BC78D00
0DB2E900
0A70C500
ENDCHAR
STARTCHAR Wacute
ENCODING 7810
SWIDTH 879 0
DWIDTH 8 0
BBX 8 10 0 0
BITMAP
0001E400
00049000
00000000
A609907A
790CC097
4C1DD1C3
1E4994E0
0DA56AC0
09F22F90
06D00E60
ENDCHAR
STARTCHAR wacute
ENCODING 7811
SWIDTH 743 0
DWIDTH 7 0
BBX 7 8 0 0
BITMAP
000A8000
001C1000
00000000
B43D0960
787E2D20
3BC78D00
0DB2E900
0A70C500
ENDCHAR
STARTCHAR Wdieresis
ENCODING 7812
SWIDTH 879 0
DWIDTH 8 0
BBX 8 9 0 0
BITMAP
00666600
00000000
A609907A
790CC097
4C1DD1C3
1E4994E0
0DA56AC0
09F22F90
06D00E60
ENDCHAR
STARTCHAR wdieresis
ENCODING 7813
SWIDTH 743 0
DWIDTH 7 0
BBX 7 7 0 0
BITMAP
02B2B000
00000000
B43D0960
787E2D20
3BC78D00
0DB2E900
0A70C500
ENDCHAR
STARTCHAR uni1EA0
ENCODING 7840
SWIDTH 665 0
DWIDTH 6 0
BBX 6 9 0 -2
BITMAP
00AA00
01EE10
069950
0B44B0
1FFFF1
6900A6
B5006B
000000
006700
ENDCHAR
STARTCHAR uni1EA1
ENCODING 7841
SWIDTH 541 0
DWIDTH 5 0
BBX 5 7 0 -2
BITMAP
3CEA00
001D40
3CFF40
8A1D40
3DDD60
000000
059000
ENDCHAR
STARTCHAR uni1EA2
ENCODING 7842
SWIDTH 665 0
DWIDTH 6 0
BBX 6 10 0 0
BITMAP
007C00
003B00
000000
00AA00
01EE10
069950
0B44B0
1FFFF1
6900A6
B5006B
ENDCHAR
STARTCHAR uni1EA3
ENCODING 7843
SWIDTH 541 0
DWIDTH 5 0
BBX 5 8 0 0
BITMAP
00E500
00A400
000000
3CEA00
001D40
3CFF40
8A1D40
3DDD60
ENDCHAR
STARTCHAR uni1EA4
ENCODING 7844
SWIDTH 665 0
DWIDTH 6 0
BBX 6 11 0 0
BITMAP
00004B
00BB74
059950
000000
00AA00
01EE10
069950
0B44B0
1FFFF1
6900A6
B5006B
ENDCHAR
STARTCHAR uni1EA5
ENCODING 7845
SWIDTH 541 0
DWIDTH 5 0
BBX 6 9 0 0
BITMAP
0000B3
04E5A0
0B4B00
000000
3CEA00
001D40
3CFF40
8A1D40
3DDD60
ENDCHAR
STARTCHAR uni1EA6
ENCODING 7846
SWIDTH 665 0
DWIDTH 6 0
BBX 6 9 0 0
BITMAP
B40000
37BB00
05FF50
01EE10
069950
0B44B0
1FFFF1
6900A6
B5006B
ENDCHAR
STARTCHAR uni1EA7
ENCODING 7847
SWIDTH 541 0
DWIDTH 5 0
BBX 6 9 -1 0
BITMAP
3B0000
0A5E40
00B4B0
000000
03CEA0
0001D4
03CFF4
08A1D4
03DDD6
ENDCHAR
STARTCHAR uni1EA8
ENCODING 7848
SWIDTH 665 0
DWIDTH 6 0
BBX 6 11 0 0
BITMAP
0000C3
00BC93
058750
000000
00AA00
01EE10
069950
0B44B0
1FFFF1
6900A6
B5006B
ENDCHAR
STARTCHAR uni1EA9
ENCODING 7849
SWIDTH 541 0
DWIDTH 5 0
BBX 5 9 0 0
BITMAP
0005A0
05E780
0B3B00
000000
3CEA00
001D40
3CFF40
8A1D40
3DDD60
ENDCHAR
STARTCHAR uni1EAA
ENCODING 7850
SWIDTH 665 0
DWIDTH 6 0
BBX 6 12 0 0
BITMAP
00C610
016C00
00BB00
058850
000000
00AA00
01EE10
069950
0B44B0
1FFFF1
6900A6
B5006B
ENDCHAR
STARTCHAR uni1EAB
ENCODING 7851
SWIDTH 541 0
DWIDTH 5 0
BBX 5 10 0 0
BITMAP
067600
068500
04E400
0B3B00
000000
3CEA00
001D40
3CFF40
8A1D40
3DDD60
ENDCHAR
STARTCHAR uni1EAC
ENCODING 7852
SWIDTH 665 0
DWIDTH 6 0
BBX 6 12 0 -2
BITMAP
00BB00
039940
000000
00AA00
01EE10
069950
0B44B0
1FFFF1
6900A6
B5006B
000000
006700
ENDCHAR
STARTCHAR uni1EAD
ENCODING 7853
SWIDTH 541 0
DWIDTH 5 0
BBX 5 10 0 -2
BITMAP
04E400
0A5B00
000000
3CEA00
001D40
3CFF40
8A1D40
3DDD60
000000
059000
ENDCHAR
STARTCHAR uni1EAE
ENCODING 7854
SWIDTH 665 0
DWIDTH 6 0
BBX 6 10 0 0
BITMAP
000B00
002600
067850
01FF10
01EE10
069950
0B44B0
1FFFF1
6900A6
B5006B
ENDCHAR
STARTCHAR uni1EAF
ENCODING 7855
SWIDTH 541 0
DWIDTH 5 0
BBX 5 10 0 0
BITMAP
007400
008000
0C1C00
07E600
000000
3CEA00
001D40
3CFF40
8A1D40
3DDD60
ENDCHAR
STARTCHAR uni1EB0
ENCODING 7856
SWIDTH 665 0
DWIDTH 6 0
BBX 6 10 0 0
BITMAP
00B100
006300
067850
01FF10
01EE10
069950
0B44B0
1FFFF1
6900A6
B5006B
ENDCHAR
STARTCHAR uni1EB1
ENCODING 7857
SWIDTH 541 0
DWIDTH 5 0
BBX 5 10 0 0
BITMAP
047000
008000
0C1C00
07E600
000000
3CEA00
001D40
3CFF40
8A1D40
3DDD60
ENDCHAR
STARTCHAR uni1EB2
ENCODING 7858
SWIDTH 665 0
DWIDTH 6 0
BBX 6 10 0 0
BITMAP
006B00
003900
067850
01FF10
01EE10
069950
0B44B0
1FFFF1
6900A6
B5006B
ENDCHAR
STARTCHAR uni1EB3
ENCODING 7859
SWIDTH 541 0
DWIDTH 5 0
BBX 5 10 0 0
BITMAP
00D400
00A300
0C2C00
07E500
000000
3CEA00
001D40
3CFF40
8A1D40
3DDD60
ENDCHAR
STARTCHAR uni1EB4
ENCODING 7860
SWIDTH 665 0
DWIDTH 6 0
BBX 6 10 0 0
BITMAP
01C630
026C10
058850
01FF10
01EE10
069950
0B44B0
1FFFF1
6900A6
B5006B
ENDCHAR
STARTCHAR uni1EB5
ENCODING 7861
SWIDTH 541 0
DWIDTH 5 0
BBX 5 10 0 0
BITMAP
077700
078700
0C2C00
07E600
000000
3CEA00
001D40
3CFF40
8A1D40
3DDD60
ENDCHAR
STARTCHAR uni1EB6
ENCODING 7862
SWIDTH 665 0
DWIDTH 6 0
BBX 6 12 0 -2
BITMAP
058860
01CC10
000000
00AA00
01EE10
069950
0B44B0
1FFFF1
6900A6
B5006B
000000
006700
ENDCHAR
STARTCHAR uni1EB7
ENCODING 7863
SWIDTH 541 0
DWIDTH 5 0
BBX 5 10 0 -2
BITMAP
0C2C00
06E600
000000
3CEA00
001D40
3CFF40
8A1D40
3DDD60
000000
059000
ENDCHAR
STARTCHAR uni1EB8
ENCODING 7864
SWIDTH 565 0
DWIDTH 5 0
BBX 5 9 0 -2
BITMAP
5FFFC0
5C0000
5C0000
5FFF60
5C0000
5C0000
5FFFC0
000000
00B300
ENDCHAR
STARTCHAR uni1EB9
ENCODING 7865
SWIDTH 536 0
DWIDTH 5 0
BBX 5 7 0 -2
BITMAP
0AEA00
7B1B60
9FFF80
7A1310
1AEC20
000000
01D000
ENDCHAR
STARTCHAR uni1EBA
ENCODING 7866
SWIDTH 565 0
DWIDTH 5 0
BBX 5 10 0 0
BITMAP
00A800
006800
000000
5FFFC0
5C0000
5C0000
5FFF60
5C0000
5C0000
5FFFC0
ENDCHAR
STARTCHAR uni1EBB
ENCODING 7867
SWIDTH 536 0
DWIDTH 5 0
BBX 5 8 0 0
BITMAP
00E400
00B300
000000
0AEA00
7B1B60
9FFF80
7A1310
1AEC20
ENDCHAR
STARTCHAR uni1EBC
ENCODING 7868
SWIDTH 565 0
DWIDTH 5 0
BBX 5 10 0 0
BITMAP
07A650
0A4D10
000000
5FFFC0
5C0000
5C0000
5FFF60
5C0000
5C0000
5FFFC0
ENDCHAR
STARTCHAR uni1EBD
ENCODING 7869
SWIDTH 536 0
DWIDTH 5 0
BBX 5 8 0 0
BITMAP
0C6A00
298A00
000000
0AEA00
7B1B60
9FFF80
7A1310
1AEC20
ENDCHAR
STARTCHAR uni1EBE
ENCODING 7870
SWIDTH 565 0
DWIDTH 5 0
BBX 6 11 0 0
BITMAP
000087
02D8A1
086B20
000000
5FFFC0
5C0000
5C0000
5FFF60
5C0000
5C0000
5FFFC0
ENDCHAR
STARTCHAR uni1EBF
ENCODING 7871
SWIDTH 536 0
DWIDTH 5 0
BBX 6 9 0 0
BITMAP
0000C2
05E590
1C4B00
000000
0AEA00
7B1B60
9FFF80
7A1310
1AEC20
ENDCHAR
STARTCHAR uni1EC0
ENCODING 7872
SWIDTH 565 0
DWIDTH 5 0
BBX 6 9 -1 0
BITMAP
1D1000
075D80
05FFFE
05C000
05C000
05FFF6
05C000
05C000
05FFFC
ENDCHAR
STARTCHAR uni1EC1
ENCODING 7873
SWIDTH 536 0
DWIDTH 5 0
BBX 6 9 -1 0
BITMAP
4B0000
0A6E40
00B4B0
000000
00AEA0
07B1B6
09FFF8
07A131
01AEC2
ENDCHAR
STARTCHAR uni1EC2
ENCODING 7874
SWIDTH 565 0
DWIDTH 5 0
BBX 6 11 0 0
BITMAP
0001D1
02D9A0
094B20
000000
5FFFC0
5C0000
5C0000
5FFF60
5C0000
5C0000
5FFFC0
ENDCHAR
STARTCHAR uni1EC3
ENCODING 7875
SWIDTH 536 0
DWIDTH 5 0
BBX 5 9 0 0
BITMAP
000690
06E780
1B3B00
000000
0AEA00
7B1B60
9FFF80
7A1310
1AEC20
ENDCHAR
STARTCHAR uni1EC4
ENCODING 7876
SWIDTH 565 0
DWIDTH 5 0
BBX 5 12 0 0
BITMAP
02B600
045900
02D800
085B20
000000
5FFFC0
5C0000
5C0000
5FFF60
5C0000
5C0000
5FFFC0
ENDCHAR
STARTCHAR uni1EC5
ENCODING 7877
SWIDTH 536 0
DWIDTH 5 0
BBX 5 10 0 0
BITMAP
067600
068500
05E300
0B3B00
000000
0AEA00
7B1B60
9FFF80
7A1310
1AEC20
ENDCHAR
STARTCHAR uni1EC6
ENCODING 7878
SWIDTH 565 0
DWIDTH 5 0
BBX 5 12 0 -2
BITMAP
01D700
076B10
000000
5FFFC0
5C0000
5C0000
5FFF60
5C0000
5C0000
5FFFC0
000000
00B300
ENDCHAR
STARTCHAR uni1EC7
ENCODING 7879
SWIDTH 536 0
DWIDTH 5 0
BBX 5 10 0 -2
BITMAP
04E300
0B5A00
000000
0AEA00
7B1B60
9FFF80
7A1310
1AEC20
000000
01D000
ENDCHAR
STARTCHAR uni1EC8
ENCODING 7880
SWIDTH 282 0
DWIDTH 3 0
BBX 3 10 0 0
BITMAP
3D20
1B20
0000
4C00
4C00
4C00
4C00
4C00
4C00
4C00
ENDCHAR
STARTCHAR uni1EC9
ENCODING 7881
SWIDTH 262 0
DWIDTH 2 0
BBX 3 8 0 0
BITMAP
4D10
2B10
0000
6B00
6B00
6B00
6B00
6B00
ENDCHAR
STARTCHAR uni1ECA
ENCODING 7882
SWIDTH 282 0
DWIDTH 3 0
BBX 2 9 0 -2
BITMAP
4C
4C
4C
4C
4C
4C
4C
00
3B
ENDCHAR
STARTCHAR uni1ECB
ENCODING 7883
SWIDTH 255 0
DWIDTH 2 0
BBX 2 10 0 -2
BITMAP
01
59
00
6A
6A
6A
6A
6A
00
59
ENDCHAR
STARTCHAR uni1ECC
ENCODING 7884
SWIDTH 690 0
DWIDTH 6 0
BBX 6 9 0 -2
BITMAP
06DE80
2E32D5
7A007A
89006B
7A007A
2E32D5
06DE80
000000
005800
ENDCHAR
STARTCHAR uni1ECD
ENCODING 7885
SWIDTH 569 0
DWIDTH 5 0
BBX 5 7 0 -2
BITMAP
1AEB10
7B1990
9705B0
7B1990
1AEB10
000000
00D100
ENDCHAR
STARTCHAR uni1ECE
ENCODING 7886
SWIDTH 690 0
DWIDTH 6 0
BBX 6 10 0 0
BITMAP
005C10
002B10
000000
06DE80
2E32D5
7A007A
89006B
7A007A
2E32D5
06DE80
ENDCHAR
STARTCHAR uni1ECF
ENCODING 7887
SWIDTH 569 0
DWIDTH 5 0
BBX 5 8 0 0
BITMAP
00D500
00A400
000000
1AEB10
7B1990
9705B0
7B1990
1AEB10
ENDCHAR
STARTCHAR uni1ED0
ENCODING 7888
SWIDTH 690 0
DWIDTH 6 0
BBX 6 11 0 0
BITMAP
00002C
00AC65
04A760
000000
06DE80
2E32D5
7A007A
89006B
7A007A
2E32D5
06DE80
ENDCHAR
STARTCHAR uni1ED1
ENCODING 7889
SWIDTH 569 0
DWIDTH 5 0
BBX 6 9 0 0
BITMAP
0000B3
04E5A0
0B4B00
000000
1AEB10
7B1990
9705B0
7B1990
1AEB10
ENDCHAR
STARTCHAR uni1ED2
ENCODING 7890
SWIDTH 690 0
DWIDTH 6 0
BBX 6 9 0 0
BITMAP
960000
29AC10
09FFE0
2E32D5
7A007A
89006B
7A007A
2E32D5
06DE80
ENDCHAR
STARTCHAR uni1ED3
ENCODING 7891
SWIDTH 569 0
DWIDTH 5 0
BBX 6 9 -1 0
BITMAP
3C0000
095E50
00B4B0
000000
01AEB1
07B199
09705B
07B199
01AEB1
ENDCHAR
STARTCHAR uni1ED4
ENCODING 7892
SWIDTH 690 0
DWIDTH 6 0
BBX 6 11 0 0
BITMAP
0000A4
00BC84
049660
000000
06DE80
2E32D5
7A007A
89006B
7A007A
2E32D5
06DE80
ENDCHAR
STARTCHAR uni1ED5
ENCODING 7893
SWIDTH 569 0
DWIDTH 5 0
BBX 5 9 0 0
BITMAP
0005A0
05E790
0B3B00
000000
1AEB10
7B1990
9705B0
7B1990
1AEB10
ENDCHAR
STARTCHAR uni1ED6
ENCODING 7894
SWIDTH 690 0
DWIDTH 6 0
BBX 6 12 0 0
BITMAP
00B620
006C10
00AC10
039660
000000
06DE80
2E32D5
7A007A
89006B
7A007A
2E32D5
06DE80
ENDCHAR
STARTCHAR uni1ED7
ENCODING 7895
SWIDTH 569 0
DWIDTH 5 0
BBX 5 10 0 0
BITMAP
058600
067600
04E400
0B3B00
000000
1AEB10
7B1990
9705B0
7B1990
1AEB10
ENDCHAR
STARTCHAR uni1ED8
ENCODING 7896
SWIDTH 690 0
DWIDTH 6 0
BBX 6 12 0 -2
BITMAP
009C10
02A850
000000
06DE80
2E32D5
7A007A
89006B
7A007A
2E32D5
06DE80
000000
005800
ENDCHAR
STARTCHAR uni1ED9
ENCODING 7897
SWIDTH 569 0
DWIDTH 5 0
BBX 5 10 0 -2
BITMAP
03E400
0A5B00
000000
1AEB10
7B1990
9705B0
7B1990
1AEB10
000000
00D100
ENDCHAR
STARTCHAR uni1EDA
ENCODING 7898
SWIDTH 692 0
DWIDTH 6 0
BBX 7 10 0 0
BITMAP
000D5000
003A0000
00000110
06ED5A40
3E32DC00
89008700
98006A00
89008A00
3E32D600
06EE8000
ENDCHAR
STARTCHAR uni1EDB
ENCODING 7899
SWIDTH 577 0
DWIDTH 5 0
BBX 6 8 0 0
BITMAP
006C00
00A300
000000
1BE983
7B19D0
9705A0
7A19A0
1AEC20
ENDCHAR
STARTCHAR uni1EDC
ENCODING 7900
SWIDTH 692 0
DWIDTH 6 0
BBX 7 10 0 0
BITMAP
02E20000
00860000
00000110
06ED5A40
3E32DC00
89008700
98006A00
89008A00
3E32D600
06EE8000
ENDCHAR
STARTCHAR uni1EDD
ENCODING 7901
SWIDTH 577 0
DWIDTH 5 0
BBX 6 8 0 0
BITMAP
0A8000
02B000
000000
1BE983
7B19D0
9705A0
7A19A0
1AEC20
ENDCHAR
STARTCHAR uni1EDE
ENCODING 7902
SWIDTH 692 0
DWIDTH 6 0
BBX 7 10 0 0
BITMAP
006C1000
003B0000
00000110
06ED5A40
3E32DC00
89008700
98006A00
89008A00
3E32D600
06EE8000
ENDCHAR
STARTCHAR uni1EDF
ENCODING 7903
SWIDTH 577 0
DWIDTH 5 0
BBX 6 8 0 0
BITMAP
00D500
009500
000000
1BE983
7B19D0
9705A0
7A19A0
1AEC20
ENDCHAR
STARTCHAR uni1EE0
ENCODING 7904
SWIDTH 692 0
DWIDTH 6 0
BBX 7 10 0 0
BITMAP
03D39000
074C5000
00000110
06ED5A40
3E32DC00
89008700
98006A00
89008A00
3E32D600
06EE8000
ENDCHAR
STARTCHAR uni1EE1
ENCODING 7905
SWIDTH 577 0
DWIDTH 5 0
BBX 6 8 0 0
BITMAP
0A8920
0A7C00
000000
1BE983
7B19D0
9705A0
7A19A0
1AEC20
ENDCHAR
STARTCHAR uni1EE2
ENCODING 7906
SWIDTH 692 0
DWIDTH 6 0
BBX 7 10 0 -2
BITMAP
00000110
06ED5A40
3E32DC00
89008700
98006A00
89008A00
3E32D600
06EE8000
00000000
00770000
ENDCHAR
STARTCHAR uni1EE3
ENCODING 7907
SWIDTH 577 0
DWIDTH 5 0
BBX 6 7 0 -2
BITMAP
1BE983
7B19D0
9705A0
7A19A0
1AEC20
000000
00D100
ENDCHAR
STARTCHAR uni1EE4
ENCODING 7908
SWIDTH 651 0
DWIDTH 6 0
BBX 6 9 0 -2
BITMAP
7A00C5
7A00C5
7A00C5
7A00C5
7A00C5
4D22E2
08EE60
000000
008600
ENDCHAR
STARTCHAR uni1EE5
ENCODING 7909
SWIDTH 555 0
DWIDTH 5 0
BBX 5 7 0 -2
BITMAP
790970
790970
790970
7B1B70
2DEC70
000000
059000
ENDCHAR
STARTCHAR uni1EE6
ENCODING 7910
SWIDTH 651 0
DWIDTH 6 0
BBX 6 10 0 0
BITMAP
008B00
004A00
000000
7A00C5
7A00C5
7A00C5
7A00C5
7A00C5
4D22E2
08EE60
ENDCHAR
STARTCHAR uni1EE7
ENCODING 7911
SWIDTH 555 0
DWIDTH 5 0
BBX 5 8 0 0
BITMAP
00D500
00A400
000000
790970
790970
790970
7B1B70
2DEC70
ENDCHAR
STARTCHAR uni1EE8
ENCODING 7912
SWIDTH 705 0
DWIDTH 6 0
BBX 7 10 0 0
BITMAP
000D5000
003A0000
00000040
7A00C6C0
7A00CE60
7A00C500
7A00C500
7A00C500
4D22E200
08EE7000
ENDCHAR
STARTCHAR uni1EE9
ENCODING 7913
SWIDTH 618 0
DWIDTH 6 0
BBX 6 8 0 0
BITMAP
007B00
00A300
000000
79098A
7909E5
790970
7B1B70
2DED70
ENDCHAR
STARTCHAR uni1EEA
ENCODING 7914
SWIDTH 705 0
DWIDTH 6 0
BBX 7 10 0 0
BITMAP
02E20000
00860000
00000040
7A00C6C0
7A00CE60
7A00C500
7A00C500
7A00C500
4D22E200
08EE7000
ENDCHAR
STARTCHAR uni1EEB
ENCODING 7915
SWIDTH 618 0
DWIDTH 6 0
BBX 6 8 0 0
BITMAP
0A8000
02B000
000000
79098A
7909E5
790970
7B1B70
2DED70
ENDCHAR
STARTCHAR uni1EEC
ENCODING 7916
SWIDTH 705 0
DWIDTH 6 0
BBX 7 10 0 0
BITMAP
005C1000
003B0000
00000040
7A00C6C0
7A00CE60
7A00C500
7A00C500
7A00C500
4D22E200
08EE7000
ENDCHAR
STARTCHAR uni1EED
ENCODING 7917
SWIDTH 618 0
DWIDTH 6 0
BBX 6 8 0 0
BITMAP
00D500
00A400
000000
79098A
7909E5
790970
7B1B70
2DED70
ENDCHAR
STARTCHAR uni1EEE
ENCODING 7918
SWIDTH 705 0
DWIDTH 6 0
BBX 7 10 0 0
BITMAP
03D3A000
075C5000
00000040
7A00C6C0
7A00CE60
7A00C500
7A00C500
7A00C500
4D22E200
08EE7000
ENDCHAR
STARTCHAR uni1EEF
ENCODING 7919
SWIDTH 618 0
DWIDTH 6 0
BBX 6 8 0 0
BITMAP
0A8910
0A7B00
000000
79098A
7909E5
790970
7B1B70
2DED70
ENDCHAR
STARTCHAR uni1EF0
ENCODING 7920
SWIDTH 705 0
DWIDTH 6 0
BBX 7 10 0 -2
BITMAP
00000040
7A00C6C0
7A00CE60
7A00C500
7A00C500
7A00C500
4D22E200
08EE7000
00000000
00680000
ENDCHAR
STARTCHAR uni1EF1
ENCODING 7921
SWIDTH 618 0
DWIDTH 6 0
BBX 6 7 0 -2
BITMAP
79098A
7909E5
790970
7B1B70
2DED70
000000
01D000
ENDCHAR
STARTCHAR Ygrave
ENCODING 7922
SWIDTH 609 0
DWIDTH 5 0
BBX 6 10 0 0
BITMAP
07B000
00B200
000000
B701E3
4E07B0
0B6D30
04EB00
00D500
00C400
00C400
ENDCHAR
STARTCHAR ygrave
ENCODING 7923
SWIDTH 486 0
DWIDTH 4 0
BBX 5 10 0 -2
BITMAP
1E4000
068000
000000
C50E20
7A4C00
2E8700
0BE200
06C000
097000
8D1000
ENDCHAR
STARTCHAR uni1EF4
ENCODING 7924
SWIDTH 609 0
DWIDTH 5 0
BBX 6 9 0 -2
BITMAP
B701E3
4E07B0
0B6D30
04EB00
00D500
00C400
00C400
000000
00B300
ENDCHAR
STARTCHAR uni1EF5
ENCODING 7925
SWIDTH 486 0
DWIDTH 4 0
BBX 5 8 0 -3
BITMAP
C50E20
7A4C00
2E8700
0BE200
06C000
097000
8D1000
003B00
ENDCHAR
STARTCHAR uni1EF6
ENCODING 7926
SWIDTH 609 0
DWIDTH 5 0
BBX 6 10 0 0
BITMAP
00A800
006800
000000
B701E3
4E07B0
0B6D30
04EB00
00D500
00C400
00C400
ENDCHAR
STARTCHAR uni1EF7
ENCODING 7927
SWIDTH 486 0
DWIDTH 4 0
BBX 5 10 0 -2
BITMAP
03D200
01B200
000000
C50E20
7A4C00
2E8700
0BE200
06C000
097000
8D1000
ENDCHAR
STARTCHAR uni1EF8
ENCODING 7928
SWIDTH 609 0
DWIDTH 5 0
BBX 6 10 0 0
BITMAP
07A650
0A4D10
000000
B701E3
4E07B0
0B6D30
04EB00
00D500
00C400
00C400
ENDCHAR
STARTCHAR uni1EF9
ENCODING 7929
SWIDTH 486 0
DWIDTH 4 0
BBX 5 10 0 -2
BITMAP
1D4A00
46B700
000000
C50E20
7A4C00
2E8700
0BE200
06C000
097000
8D1000
ENDCHAR
STARTCHAR uni1F4D
ENCODING 8013
SWIDTH 724 0
DWIDTH 7 0
BBX 10 7 -3 0
BITMAP
1A763CEB10
0990D719A0
0002E002F0
0003D001F1
0002E002F0
0000D719A0
00003CFB10
ENDCHAR
STARTCHAR uni2000
ENCODING 8192
SWIDTH 509 0
DWIDTH 5 0
BBX 1 1 0 0
BITMAP
00
ENDCHAR
STARTCHAR uni2001
ENCODING 8193
SWIDTH 1020 0
DWIDTH 9 0
BBX 1 1 0 0
BITMAP
00
ENDCHAR
STARTCHAR uni2002
ENCODING 8194
SWIDTH 509 0
DWIDTH 5 0
BBX 1 1 0 0
BITMAP
00
ENDCHAR
STARTCHAR uni2003
ENCODING 8195
SWIDTH 1020 0
DWIDTH 9 0
BBX 1 1 0 0
BITMAP
00
ENDCHAR
STARTCHAR uni2004
ENCODING 8196
SWIDTH 340 0
DWIDTH 3 0
BBX 1 1 0 0
BITMAP
00
ENDCHAR
STARTCHAR uni2005
ENCODING 8197
SWIDTH 254 0
DWIDTH 2 0
BBX 1 1 0 0
BITMAP
00
ENDCHAR
STARTCHAR uni2006
ENCODING 8198
SWIDTH 169 0
DWIDTH 2 0
BBX 1 1 0 0
BITMAP
00
ENDCHAR
STARTCHAR uni2007
ENCODING 8199
SWIDTH 562 0
DWIDTH 5 0
BBX 1 1 0 0
BITMAP
00
ENDCHAR
STARTCHAR uni2008
ENCODING 8200
SWIDTH 273 0
DWIDTH 2 0
BBX 1 1 0 0
BITMAP
00
ENDCHAR
STARTCHAR uni2009
ENCODING 8201
SWIDTH 204 0
DWIDTH 2 0
BBX 1 1 0 0
BITMAP
00
ENDCHAR
STARTCHAR uni200A
ENCODING 8202
SWIDTH 102 0
DWIDTH 1 0
BBX 1 1 0 0
BITMAP
00
ENDCHAR
STARTCHAR uni200B
ENCODING 8203
SWIDTH 0 0
DWIDTH 0 0
BBX 1 1 0 0
BITMAP
00
ENDCHAR
STARTCHAR uni2010
ENCODING 8208
SWIDTH 328 0
DWIDTH 3 0
BBX 3 1 0 2
BITMAP
AF90
ENDCHAR
STARTCHAR uni2011
ENCODING 8209
SWIDTH 328 0
DWIDTH 3 0
BBX 3 1 0 2
BITMAP
AF90
ENDCHAR
STARTCHAR endash
ENCODING 8211
SWIDTH 645 0
DWIDTH 6 0
BBX 6 1 0 3
BITMAP
5FFFF3
ENDCHAR
STARTCHAR emdash
ENCODING 8212
SWIDTH 773 0
DWIDTH 7 0
BBX 7 1 0 3
BITMAP
7FFFFF80
ENDCHAR
STARTCHAR uni2015
ENCODING 8213
SWIDTH 773 0
DWIDTH 7 0
BBX 7 1 0 3
BITMAP
7FFFFF80
ENDCHAR
STARTCHAR underscoredbl
ENCODING 8215
SWIDTH 451 0
DWIDTH 4 0
BBX 4 3 0 -2
BITMAP
AAAA
0000
AAAA
ENDCHAR
STARTCHAR quoteleft
ENCODING 8216
SWIDTH 218 0
DWIDTH 2 0
BBX 2 2 0 5
BITMAP
38
86
ENDCHAR
STARTCHAR quoteright
ENCODING 8217
SWIDTH 216 0
DWIDTH 2 0
BBX 2 2 0 5
BITMAP
68
83
ENDCHAR
STARTCHAR quotesinglbase
ENCODING 8218
SWIDTH 225 0
DWIDTH 2 0
BBX 2 3 0 -2
BITMAP
68
94
10
ENDCHAR
STARTCHAR quotereversed
ENCODING 8219
SWIDTH 207 0
DWIDTH 2 0
BBX 2 2 0 5
BITMAP
A4
47
ENDCHAR
STARTCHAR quotedblleft
ENCODING 8220
SWIDTH 384 0
DWIDTH 3 0
BBX 4 2 0 5
BITMAP
2992
77D0
ENDCHAR
STARTCHAR quotedblright
ENCODING 8221
SWIDTH 388 0
DWIDTH 4 0
BBX 4 2 0 5
BITMAP
59D1
75A0
ENDCHAR
STARTCHAR quotedblbase
ENCODING 8222
SWIDTH 378 0
DWIDTH 3 0
BBX 3 4 0 -2
BITMAP
1120
68E0
87B0
3120
ENDCHAR
STARTCHAR dagger
ENCODING 8224
SWIDTH 545 0
DWIDTH 5 0
BBX 5 7 0 0
BITMAP
01F000
01F000
BFFF90
01F000
01F000
01F000
01F000
ENDCHAR
STARTCHAR daggerdbl
ENCODING 8225
SWIDTH 574 0
DWIDTH 5 0
BBX 5 9 0 -2
BITMAP
00F100
00F100
9FFFB0
00F100
00F100
00F100
9FFFB0
00F100
00F100
ENDCHAR
STARTCHAR bullet
ENCODING 8226
SWIDTH 349 0
DWIDTH 3 0
BBX 3 2 0 2
BITMAP
4E50
4E60
ENDCHAR
STARTCHAR twodotenleader
ENCODING 8229
SWIDTH 497 0
DWIDTH 4 0
BBX 4 2 0 0
BITMAP
0101
4B4B
ENDCHAR
STARTCHAR ellipsis
ENCODING 8230
SWIDTH 706 0
DWIDTH 6 0
BBX 6 2 0 0
BITMAP
010101
4B4B5A
ENDCHAR
STARTCHAR uni2027
ENCODING 8231
SWIDTH 222 0
DWIDTH 2 0
BBX 2 1 0 2
BITMAP
77
ENDCHAR
STARTCHAR perthousand
ENCODING 8240
SWIDTH 956 0
DWIDTH 9 0
BBX 9 7 0 0
BITMAP
5E90000000
A3C0900000
5E94700000
000B000000
0068DCDD10
01A6797940
0542DCDD10
ENDCHAR
STARTCHAR minute
ENCODING 8242
SWIDTH 168 0
DWIDTH 2 0
BBX 2 2 0 5
BITMAP
A2
A1
ENDCHAR
STARTCHAR second
ENCODING 8243
SWIDTH 324 0
DWIDTH 3 0
BBX 3 2 0 5
BITMAP
8680
8560
ENDCHAR
STARTCHAR guilsinglleft
ENCODING 8249
SWIDTH 305 0
DWIDTH 3 0
BBX 3 3 0 1
BITMAP
0A20
5900
0A20
ENDCHAR
STARTCHAR guilsinglright
ENCODING 8250
SWIDTH 301 0
DWIDTH 3 0
BBX 3 3 0 1
BITMAP
4800
0B30
4800
ENDCHAR
STARTCHAR exclamdbl
ENCODING 8252
SWIDTH 536 0
DWIDTH 5 0
BBX 5 7 0 0
BITMAP
5C0E30
5B0E20
4B0D20
4B0D20
4A0D10
010100
4B0C20
ENDCHAR
STARTCHAR fraction
ENCODING 8260
SWIDTH 451 0
DWIDTH 4 0
BBX 4 6 0 0
BITMAP
0018
0084
02A0
0920
3900
8100
ENDCHAR
STARTCHAR uni2074
ENCODING 8308
SWIDTH 370 0
DWIDTH 3 0
BBX 4 4 0 3
BITMAP
08A0
4AA0
BFF1
02A0
ENDCHAR
STARTCHAR uni207F
ENCODING 8319
SWIDTH 419 0
DWIDTH 4 0
BBX 4 4 0 3
BITMAP
8BE2
8695
8586
8586
ENDCHAR
STARTCHAR franc
ENCODING 8355
SWIDTH 549 0
DWIDTH 5 0
BBX 5 7 0 0
BITMAP
5FFFB0
5C0000
5C0000
5FFF50
5C0000
FFE000
5C0000
ENDCHAR
STARTCHAR lira
ENCODING 8356
SWIDTH 588 0
DWIDTH 5 0
BBX 6 7 0 0
BITMAP
06EE70
0E5370
9FF900
0D3000
9FF900
0E3000
8FFFF1
ENDCHAR
STARTCHAR uni20A6
ENCODING 8358
SWIDTH 804 0
DWIDTH 7 0
BBX 8 7 0 0
BITMAP
0E800E20
0EF30E20
DFFFFFF1
0E3E3E20
DFFFFFF1
0E31EF20
0E305F20
ENDCHAR
STARTCHAR peseta
ENCODING 8359
SWIDTH 839 0
DWIDTH 8 0
BBX 7 7 0 0
BITMAP
5FFA1000
5C0A6E20
5C0AFFF0
5FFD3E20
5C000E20
5C000E30
5C0009E0
ENDCHAR
STARTCHAR uni20A8
ENCODING 8360
SWIDTH 1071 0
DWIDTH 10 0
BBX 10 7 0 0
BITMAP
5FFE700000
5C02F20000
5C02F4CFC1
5FFF67B000
5C0C61AD80
5C05C001E3
5C00E9DFA0
ENDCHAR
STARTCHAR uni20A9
ENCODING 8361
SWIDTH 769 0
DWIDTH 7 0
BBX 7 7 0 0
BITMAP
881F0A70
6A3F2C40
DFFEFFC0
DFFFFFC0
0CD5DA00
09F1F700
06D0E500
ENDCHAR
STARTCHAR uni20AA
ENCODING 8362
SWIDTH 818 0
DWIDTH 7 0
BBX 7 5 0 0
BITMAP
7FFF84C0
7935F4C0
79A7F4C0
79A646B0
79AFFD40
ENDCHAR
STARTCHAR dong
ENCODING 8363
SWIDTH 579 0
DWIDTH 5 0
BBX 6 9 0 -2
BITMAP
00AFF4
000880
1CED80
8B1A80
970880
7A1A80
1CEC80
000000
5FFFB0
ENDCHAR
STARTCHAR Euro
ENCODING 8364
SWIDTH 568 0
DWIDTH 5 0
BBX 5 7 0 0
BITMAP
02BE90
0A8110
9FFD00
0C4000
9FFD00
0B8010
02CF90
ENDCHAR
STARTCHAR uni20B1
ENCODING 8369
SWIDTH 744 0
DWIDTH 7 0
BBX 7 7 0 0
BITMAP
1FFF9000
1F11E500
DFFFFF80
1F106B00
DFFFFF80
1FFFC300
1F100000
ENDCHAR
STARTCHAR uni20B9
ENCODING 8377
SWIDTH 525 0
DWIDTH 5 0
BBX 5 7 0 0
BITMAP
BFFE60
01B800
BFFF70
01B800
BFB100
2D4000
02D500
ENDCHAR
STARTCHAR uni20BA
ENCODING 8378
SWIDTH 579 0
DWIDTH 5 0
BBX 5 7 0 0
BITMAP
0D3000
0EC300
CF6000
1EC690
CF65B0
1D4B70
0DE900
ENDCHAR
STARTCHAR uni20BC
ENCODING 8380
SWIDTH 670 0
DWIDTH 6 0
BBX 6 5 0 0
BITMAP
008800
07EE80
4D99C5
978879
A6886A
ENDCHAR
STARTCHAR uni20BD
ENCODING 8381
SWIDTH 686 0
DWIDTH 6 0
BBX 6 7 0 0
BITMAP
0EFFC3
0E308B
0E307B
CFFFC3
0E3000
CFF900
0E3000
ENDCHAR
STARTCHAR uni2105
ENCODING 8453
SWIDTH 736 0
DWIDTH 7 0
BBX 7 7 0 0
BITMAP
3EB00000
75409000
3EB47000
000B1000
0068EC10
01A76A30
0543EC10
ENDCHAR
STARTCHAR uni2113
ENCODING 8467
SWIDTH 485 0
DWIDTH 4 0
BBX 4 7 0 0
BITMAP
05E9
0C6F
0C8D
0CF5
AF70
0B70
03D3
ENDCHAR
STARTCHAR uni2116
ENCODING 8470
SWIDTH 1022 0
DWIDTH 9 0
BBX 9 7 0 0
BITMAP
5E10F2CE50
5F70F693B0
5CD0F2CE50
5BA5F10000
5B3CF10000
5B0CF3FF80
5B05F10000
ENDCHAR
STARTCHAR trademark
ENCODING 8482
SWIDTH 629 0
DWIDTH 6 0
BBX 5 3 0 4
BITMAP
8FA4B0
0878B0
087880
ENDCHAR
STARTCHAR uni03A9.dup2
ENCODING 8486
SWIDTH 669 0
DWIDTH 6 0
BBX 6 7 0 0
BITMAP
07EE60
3E33F2
7B00C6
8A00B7
5B00C4
0C34C0
7FBCF6
ENDCHAR
STARTCHAR estimated
ENCODING 8494
SWIDTH 634 0
DWIDTH 6 0
BBX 6 5 0 0
BITMAP
05ED40
2C11B0
5FFFF2
2C1000
05ED50
ENDCHAR
STARTCHAR oneeighth
ENCODING 8539
SWIDTH 775 0
DWIDTH 7 0
BBX 7 7 0 0
BITMAP
2A100000
9E109000
0B165000
0B2BCE40
0084DF30
02A2C770
0720CE30
ENDCHAR
STARTCHAR threeeighths
ENCODING 8540
SWIDTH 857 0
DWIDTH 8 0
BBX 8 7 0 0
BITMAP
5EC00000
0BC02700
43C19200
5EB3CEC1
000A3FD0
005767B2
00903EC1
ENDCHAR
STARTCHAR fiveeighths
ENCODING 8541
SWIDTH 852 0
DWIDTH 8 0
BBX 8 7 0 0
BITMAP
5FD00000
7EB03600
33D0A100
4EA5AEC0
000B3FD0
007577C2
00903EC0
ENDCHAR
STARTCHAR seveneighths
ENCODING 8542
SWIDTH 829 0
DWIDTH 7 0
BBX 7 7 0 0
BITMAP
9FF20000
01B08100
07539000
1C0A9E80
00477F80
00B1B4C0
04507E80
ENDCHAR
STARTCHAR partialdiff
ENCODING 8706
SWIDTH 570 0
DWIDTH 5 0
BBX 5 7 0 0
BITMAP
0CE900
021C50
1AEBA0
6C18B0
8804B0
6C1980
0AEB10
ENDCHAR
STARTCHAR uni0394.dup3
ENCODING 8710
SWIDTH 718 0
DWIDTH 6 0
BBX 7 7 0 0
BITMAP
007E1000
00CD5000
03D6B000
0981E100
0E20A600
5C005C00
BFFFFF20
ENDCHAR
STARTCHAR product
ENCODING 8719
SWIDTH 698 0
DWIDTH 6 0
BBX 6 8 0 -1
BITMAP
4FFFF9
4C0089
4C0089
4C0089
4C0089
4C0089
4C0089
4C0089
ENDCHAR
STARTCHAR summation
ENCODING 8721
SWIDTH 605 0
DWIDTH 5 0
BBX 6 8 0 -1
BITMAP
BFFFF1
3D2000
05C100
008A00
008A00
05C100
3D2000
BFFFF5
ENDCHAR
STARTCHAR minus
ENCODING 8722
SWIDTH 563 0
DWIDTH 5 0
BBX 5 1 0 3
BITMAP
5FFF60
ENDCHAR
STARTCHAR radical
ENCODING 8730
SWIDTH 586 0
DWIDTH 5 0
BBX 5 7 0 0
BITMAP
0000D0
0004A0
000860
000D10
BF4B00
09D700
02F200
ENDCHAR
STARTCHAR infinity
ENCODING 8734
SWIDTH 1033 0
DWIDTH 9 0
BBX 9 5 0 0
BITMAP
0AEB19EC10
6C17DB18A0
9700F403D0
6B17DB18A0
09FB19EC10
ENDCHAR
STARTCHAR integral
ENCODING 8747
SWIDTH 271 0
DWIDTH 2 0
BBX 4 9 -1 -2
BITMAP
01CD
04D1
05C0
05C0
05C0
05C0
05C0
06B0
5E50
ENDCHAR
STARTCHAR approxequal
ENCODING 8776
SWIDTH 569 0
DWIDTH 5 0
BBX 5 4 0 1
BITMAP
5E8140
517E60
5E8140
517E60
ENDCHAR
STARTCHAR notequal
ENCODING 8800
SWIDTH 559 0
DWIDTH 5 0
BBX 5 5 0 0
BITMAP
000900
5FFF60
009000
5FFF60
080000
ENDCHAR
STARTCHAR lessequal
ENCODING 8804
SWIDTH 508 0
DWIDTH 5 0
BBX 4 6 0 0
BITMAP
0004
28D9
9D40
03AC
0001
BFFF
ENDCHAR
STARTCHAR greaterequal
ENCODING 8805
SWIDTH 520 0
DWIDTH 5 0
BBX 5 6 0 0
BITMAP
320000
3BB510
017E40
5D7100
100000
7FFF40
ENDCHAR
STARTCHAR lozenge
ENCODING 9674
SWIDTH 505 0
DWIDTH 5 0
BBX 5 7 0 0
BITMAP
06E100
0DB600
5A2D00
B50C40
5B2D00
0DB700
06E100
ENDCHAR
STARTCHAR uniEE01
ENCODING 60929
SWIDTH 294 0
DWIDTH 3 0
BBX 2 6 0 1
BITMAP
01
3C
00
00
01
3C
ENDCHAR
STARTCHAR uniEE02
ENCODING 60930
SWIDTH 324 0
DWIDTH 3 0
BBX 3 2 0 3
BITMAP
8480
8480
ENDCHAR
STARTCHAR uniF6C3
ENCODING 63171
SWIDTH 242 0
DWIDTH 2 0
BBX 2 2 0 -1
BITMAP
67
73
ENDCHAR
STARTCHAR uniFB01
ENCODING 64257
SWIDTH 582 0
DWIDTH 5 0
BBX 5 7 0 0
BITMAP
09ED00
2E1200
DFC790
3E0790
3E0790
3E0790
3E0790
ENDCHAR
STARTCHAR uniFB02
ENCODING 64258
SWIDTH 591 0
DWIDTH 5 0
BBX 5 7 0 0
BITMAP
09EE90
1F26A0
CFE6A0
1F06A0
1F06A0
1F06A0
1F06A0
ENDCHAR
STARTCHAR uniFB03
ENCODING 64259
SWIDTH 892 0
DWIDTH 8 0
BBX 8 7 0 0
BITMAP
09E3BEB0
1F25C120
CFFFF9A6
1F06A0A6
1F06A0A6
1F06A0A6
1F06A0A6
ENDCHAR
STARTCHAR uniFB04
ENCODING 64260
SWIDTH 892 0
DWIDTH 8 0
BBX 8 7 0 0
BITMAP
09E3CFE5
1F25C1A6
CFFFFAA6
1F06A0A6
1F06A0A6
1F06A0A6
1F06A0A6
ENDCHAR
STARTCHAR uniFEFF
ENCODING 65279
SWIDTH 0 0
DWIDTH 0 0
BBX 1 1 0 0
BITMAP
00
ENDCHAR
STARTCHAR uniFFFC
ENCODING 65532
SWIDTH 1023 0
DWIDTH 9 0
BBX 9 9 0 -2
BITMAP
9BB8E7F7E0
8000000070
0000000000
04E8FA3600
84E8F88A70
0000000000
8000000070
0000000000
9BB8E7F7E0
ENDCHAR
STARTCHAR uniFFFD
ENCODING 65533
SWIDTH 1025 0
DWIDTH 9 0
BBX 9 9 0 -1
BITMAP
0001B20000
001BFD2000
00BFFFD100
0AFA16FC10
5FFAC2FF90
0AFF5BFC10
00BF2FD100
001BFD2000
0001B20000
ENDCHAR
STARTCHAR .notdef
ENCODING -1
SWIDTH 443 0
DWIDTH 4 0
BBX 4 7 0 0
BITMAP
8FF7
3113
4324
4334
4324
3113
8FF7
ENDCHAR
STARTCHAR glyph369
ENCODING -1
SWIDTH 396 0
DWIDTH 4 0
BBX 4 2 0 5
BITMAP
84C1
3970
ENDCHAR
STARTCHAR uni2009.locl
ENCODING -1
SWIDTH 125 0
DWIDTH 1 0
BBX 1 1 0 0
BITMAP
00
ENDCHAR
STARTCHAR f_f.dlig
ENCODING -1
SWIDTH 638 0
DWIDTH 6 0
BBX 6 7 0 0
BITMAP
09E5DA
1F28A0
CFFFF8
1F0880
1F0880
1F0880
1F0880
ENDCHAR
STARTCHAR longs_t.dlig
ENCODING -1
SWIDTH 633 0
DWIDTH 6 0
BBX 6 7 0 0
BITMAP
09ED50
1F2880
CF4FF6
1F0880
1F0880
1F0890
1F04E6
ENDCHAR
STARTCHAR s_t.dlig
ENCODING -1
SWIDTH 839 0
DWIDTH 8 0
BBX 8 7 0 0
BITMAP
000AFC10
001E1B60
2CEF6FF4
7B182970
1AD80970
561E3980
2CEA05E4
ENDCHAR
STARTCHAR two.dnom
ENCODING -1
SWIDTH 370 0
DWIDTH 3 0
BBX 3 4 0 0
BITMAP
6E90
42C0
1B40
AFF0
ENDCHAR
STARTCHAR one.dnom
ENCODING -1
SWIDTH 370 0
DWIDTH 3 0
BBX 3 4 0 0
BITMAP
1940
6E40
0840
0840
ENDCHAR
STARTCHAR zero.dnom
ENCODING -1
SWIDTH 370 0
DWIDTH 3 0
BBX 3 4 0 0
BITMAP
5E90
A4D0
A4D0
5E90
ENDCHAR
STARTCHAR nine.c2sc
ENCODING -1
SWIDTH 514 0
DWIDTH 5 0
BBX 5 5 0 0
BITMAP
3DE800
992E10
4EDF20
006E00
0BC400
ENDCHAR
STARTCHAR eight.c2sc
ENCODING -1
SWIDTH 514 0
DWIDTH 5 0
BBX 5 5 0 0
BITMAP
2DE900
6B3F10
2EFA00
8A2E20
3DFB00
ENDCHAR
STARTCHAR seven.c2sc
ENCODING -1
SWIDTH 514 0
DWIDTH 5 0
BBX 5 5 0 0
BITMAP
BFFF40
002C00
00A500
04C000
0C4000
ENDCHAR
STARTCHAR six.c2sc
ENCODING -1
SWIDTH 513 0
DWIDTH 5 0
BBX 5 5 0 0
BITMAP
07D700
5D3000
8DEC10
7A2D40
1CEB10
ENDCHAR
STARTCHAR five.c2sc
ENCODING -1
SWIDTH 514 0
DWIDTH 5 0
BBX 5 5 0 0
BITMAP
2FFF00
4B0000
5EEB10
352E40
2CFB00
ENDCHAR
STARTCHAR four.c2sc
ENCODING -1
SWIDTH 514 0
DWIDTH 5 0
BBX 5 5 0 0
BITMAP
00BB00
07CB00
4A5B00
BFFF60
005B00
ENDCHAR
STARTCHAR three.c2sc
ENCODING -1
SWIDTH 514 0
DWIDTH 5 0
BBX 5 5 0 0
BITMAP
4DE900
333F10
06FA00
442E20
4DEA00
ENDCHAR
STARTCHAR two.c2sc
ENCODING -1
SWIDTH 514 0
DWIDTH 5 0
BBX 5 5 0 0
BITMAP
3DE900
662F10
009A00
1B8000
9FFF50
ENDCHAR
STARTCHAR one.c2sc
ENCODING -1
SWIDTH 514 0
DWIDTH 5 0
BBX 4 5 0 0
BITMAP
05C2
5BF2
00E2
00E2
00E2
ENDCHAR
STARTCHAR zero.c2sc
ENCODING -1
SWIDTH 514 0
DWIDTH 5 0
BBX 5 5 0 0
BITMAP
2CE900
8A1E20
970D30
892E20
2CE900
ENDCHAR
STARTCHAR Z.c2sc
ENCODING -1
SWIDTH 520 0
DWIDTH 5 0
BBX 5 5 0 0
BITMAP
BFFF50
006B00
04C100
2D2000
AFFF70
ENDCHAR
STARTCHAR Y.c2sc
ENCODING -1
SWIDTH 529 0
DWIDTH 5 0
BBX 5 5 0 0
BITMAP
B70B70
2E4D00
09E500
03E000
03D000
ENDCHAR
STARTCHAR X.c2sc
ENCODING -1
SWIDTH 545 0
DWIDTH 5 0
BBX 5 5 0 0
BITMAP
8A0C60
0DAB00
06F400
1DAC00
9A0B70
ENDCHAR
STARTCHAR W.c2sc
ENCODING -1
SWIDTH 753 0
DWIDTH 7 0
BBX 7 5 0 0
BITMAP
B53F0880
787E4B40
3BB68D00
0DC1DB00
0B90C800
ENDCHAR
STARTCHAR V.c2sc
ENCODING -1
SWIDTH 560 0
DWIDTH 5 0
BBX 5 5 0 0
BITMAP
B505C0
6A0A60
1E2E10
09BA00
03F400
ENDCHAR
STARTCHAR U.c2sc
ENCODING -1
SWIDTH 564 0
DWIDTH 5 0
BBX 5 5 0 0
BITMAP
880790
880790
880790
7A1990
1CFC20
ENDCHAR
STARTCHAR T.c2sc
ENCODING -1
SWIDTH 528 0
DWIDTH 5 0
BBX 5 5 0 0
BITMAP
DFFF90
03E000
03E000
03E000
03E000
ENDCHAR
STARTCHAR S.c2sc
ENCODING -1
SWIDTH 525 0
DWIDTH 5 0
BBX 5 5 0 0
BITMAP
2CFB10
7C3630
1AEB10
651C60
3CFC10
ENDCHAR
STARTCHAR R.c2sc
ENCODING -1
SWIDTH 544 0
DWIDTH 5 0
BBX 5 5 0 0
BITMAP
7FFC30
790B70
7FFC10
793E10
790A80
ENDCHAR
STARTCHAR Q.c2sc
ENCODING -1
SWIDTH 593 0
DWIDTH 5 0
BBX 5 6 0 -1
BITMAP
0AEC30
8A16C0
A601E0
8A16C0
1AFF50
000480
ENDCHAR
STARTCHAR P.c2sc
ENCODING -1
SWIDTH 553 0
DWIDTH 5 0
BBX 5 5 0 0
BITMAP
7FFD30
790990
7FFD40
790000
790000
ENDCHAR
STARTCHAR O.c2sc
ENCODING -1
SWIDTH 593 0
DWIDTH 5 0
BBX 5 5 0 0
BITMAP
1AEC30
7B16C0
A601E0
7B16C0
1AEC30
ENDCHAR
STARTCHAR N.c2sc
ENCODING -1
SWIDTH 607 0
DWIDTH 5 0
BBX 5 5 0 0
BITMAP
7D12E0
7E92E0
79C6E0
792EE0
7907E0
ENDCHAR
STARTCHAR M.c2sc
ENCODING -1
SWIDTH 752 0
DWIDTH 7 0
BBX 7 5 0 0
BITMAP
7F205F40
7D80BD40
79D3BB40
799D5C40
793E0C40
ENDCHAR
STARTCHAR L.c2sc
ENCODING -1
SWIDTH 465 0
DWIDTH 4 0
BBX 4 5 0 0
BITMAP
7900
7900
7900
7900
7FFF
ENDCHAR
STARTCHAR K.c2sc
ENCODING -1
SWIDTH 544 0
DWIDTH 5 0
BBX 5 5 0 0
BITMAP
791D60
79C800
7FF200
7B7C00
790A90
ENDCHAR
STARTCHAR J.c2sc
ENCODING -1
SWIDTH 479 0
DWIDTH 4 0
BBX 4 6 0 0
BITMAP
0014
004C
004C
004C
956B
5ED4
ENDCHAR
STARTCHAR I.c2sc
ENCODING -1
SWIDTH 248 0
DWIDTH 2 0
BBX 2 5 0 0
BITMAP
6A
6A
6A
6A
6A
ENDCHAR
STARTCHAR H.c2sc
ENCODING -1
SWIDTH 608 0
DWIDTH 5 0
BBX 5 5 0 0
BITMAP
7902E0
7902E0
7FFFE0
7902E0
7902E0
ENDCHAR
STARTCHAR G.c2sc
ENCODING -1
SWIDTH 581 0
DWIDTH 5 0
BBX 5 5 0 0
BITMAP
1AED40
7B1570
975FC0
7B15C0
1AED60
ENDCHAR
STARTCHAR F.c2sc
ENCODING -1
SWIDTH 471 0
DWIDTH 4 0
BBX 5 5 0 0
BITMAP
7FFF10
790000
7FFC00
790000
790000
ENDCHAR
STARTCHAR dollar.c2sc
ENCODING -1
SWIDTH 525 0
DWIDTH 5 0
BBX 5 7 0 -1
BITMAP
00A000
3DFB10
7C3630
1AEB10
751C60
3DFC10
00B000
ENDCHAR
STARTCHAR sterling.c2sc
ENCODING -1
SWIDTH 549 0
DWIDTH 5 0
BBX 5 5 0 0
BITMAP
09EC20
1F2740
BFFA00
2E0000
7FFF90
ENDCHAR
STARTCHAR yen.c2sc
ENCODING -1
SWIDTH 455 0
DWIDTH 4 0
BBX 4 5 0 0
BITMAP
A64B
2BA3
AFFB
AFFB
0880
ENDCHAR
STARTCHAR Gamma.c2sc
ENCODING -1
SWIDTH 465 0
DWIDTH 4 0
BBX 4 5 0 0
BITMAP
7FFF
7900
7900
7900
7900
ENDCHAR
STARTCHAR uni0394.c2sc
ENCODING -1
SWIDTH 560 0
DWIDTH 5 0
BBX 5 5 0 0
BITMAP
03F400
09BA00
1E1E10
6A0960
BFFFC0
ENDCHAR
STARTCHAR Theta.c2sc
ENCODING -1
SWIDTH 593 0
DWIDTH 5 0
BBX 5 5 0 0
BITMAP
1AEC30
7B16C0
AAFBE0
7B16C0
1AEC30
ENDCHAR
STARTCHAR Lambda.c2sc
ENCODING -1
SWIDTH 560 0
DWIDTH 5 0
BBX 5 5 0 0
BITMAP
03F400
09BA00
1E2E10
6A0A60
B505C0
ENDCHAR
STARTCHAR Xi.c2sc
ENCODING -1
SWIDTH 449 0
DWIDTH 4 0
BBX 4 5 0 0
BITMAP
BFFB
0000
6FF6
0000
BFFB
ENDCHAR
STARTCHAR Pi.c2sc
ENCODING -1
SWIDTH 605 0
DWIDTH 5 0
BBX 5 5 0 0
BITMAP
7FFFE0
7902E0
7902E0
7902E0
7902E0
ENDCHAR
STARTCHAR Sigma.c2sc
ENCODING -1
SWIDTH 512 0
DWIDTH 5 0
BBX 5 5 0 0
BITMAP
AFFF30
2D2000
08B000
3D2000
AFFF60
ENDCHAR
STARTCHAR Phi.c2sc
ENCODING -1
SWIDTH 701 0
DWIDTH 6 0
BBX 6 5 0 0
BITMAP
006B00
1AEFC4
8A6B5D
8A6B5D
1AEFC4
ENDCHAR
STARTCHAR Psi.c2sc
ENCODING -1
SWIDTH 666 0
DWIDTH 6 0
BBX 6 5 0 0
BITMAP
A6886A
978879
7B99B6
1AFF90
008800
ENDCHAR
STARTCHAR uni03A9.c2sc
ENCODING -1
SWIDTH 611 0
DWIDTH 6 0
BBX 6 5 0 0
BITMAP
1AFD40
7B14E0
8800F0
3C15A0
8F8FF1
ENDCHAR
STARTCHAR uni0402.c2sc
ENCODING -1
SWIDTH 695 0
DWIDTH 6 0
BBX 6 5 0 0
BITMAP
DFFF40
05B000
05EEE7
05C14E
05B2E8
ENDCHAR
STARTCHAR uni0404.c2sc
ENCODING -1
SWIDTH 562 0
DWIDTH 5 0
BBX 5 5 0 0
BITMAP
1AFC30
8A1670
AFF200
7A0570
1BEC30
ENDCHAR
STARTCHAR uni0409.c2sc
ENCODING -1
SWIDTH 916 0
DWIDTH 8 0
BBX 8 5 0 0
BITMAP
0CFFD000
0C43D000
0D33FFE7
2F13D05E
C903FFE6
ENDCHAR
STARTCHAR uni040A.c2sc
ENCODING -1
SWIDTH 917 0
DWIDTH 8 0
BBX 8 5 0 0
BITMAP
7903D000
7903D000
7FFFFFE6
7903D05E
7903FFE7
ENDCHAR
STARTCHAR uni040B.c2sc
ENCODING -1
SWIDTH 698 0
DWIDTH 6 0
BBX 6 5 0 0
BITMAP
DFFF40
05B000
05EEE7
05C13E
05B01F
ENDCHAR
STARTCHAR uni040F.c2sc
ENCODING -1
SWIDTH 604 0
DWIDTH 5 0
BBX 5 7 0 -2
BITMAP
7902E0
7902E0
7902E0
7902E0
7FFFE0
00C400
00C400
ENDCHAR
STARTCHAR uni0411.c2sc
ENCODING -1
SWIDTH 555 0
DWIDTH 5 0
BBX 5 5 0 0
BITMAP
7FFF20
790000
7FFD30
790990
7FFD30
ENDCHAR
STARTCHAR uni0414.c2sc
ENCODING -1
SWIDTH 668 0
DWIDTH 6 0
BBX 6 6 0 -1
BITMAP
09FFF1
0970F1
0B50F1
2E10F1
CFFFFB
C4005B
ENDCHAR
STARTCHAR uni0416.c2sc
ENCODING -1
SWIDTH 778 0
DWIDTH 7 0
BBX 7 5 0 0
BITMAP
7C0F0C70
0D5F5D00
08FFF700
1E5F5E10
9B0F0B90
ENDCHAR
STARTCHAR uni0417.c2sc
ENCODING -1
SWIDTH 534 0
DWIDTH 5 0
BBX 5 5 0 0
BITMAP
4DFB10
331E30
05FC00
441D50
4DFB10
ENDCHAR
STARTCHAR uni0418.c2sc
ENCODING -1
SWIDTH 611 0
DWIDTH 6 0
BBX 5 5 0 0
BITMAP
7906F0
792DF0
79B5F0
7E91F0
7D11F0
ENDCHAR
STARTCHAR uni041A.c2sc
ENCODING -1
SWIDTH 544 0
DWIDTH 5 0
BBX 5 5 0 0
BITMAP
791D40
79A800
7FF100
799A00
791D60
ENDCHAR
STARTCHAR uni041B.c2sc
ENCODING -1
SWIDTH 599 0
DWIDTH 5 0
BBX 5 5 0 0
BITMAP
0CFFD0
0C43D0
0D33D0
2F13D0
C803D0
ENDCHAR
STARTCHAR uni0423.c2sc
ENCODING -1
SWIDTH 534 0
DWIDTH 5 0
BBX 5 5 0 0
BITMAP
980980
2E2E10
09C900
03F200
1F8000
ENDCHAR
STARTCHAR uni0426.c2sc
ENCODING -1
SWIDTH 670 0
DWIDTH 6 0
BBX 6 6 0 -1
BITMAP
7902E0
7902E0
7902E0
7902E0
7FFFFB
00004B
ENDCHAR
STARTCHAR uni0427.c2sc
ENCODING -1
SWIDTH 568 0
DWIDTH 5 0
BBX 5 5 0 0
BITMAP
B50790
A80890
4DEE90
000790
000790
ENDCHAR
STARTCHAR uni0428.c2sc
ENCODING -1
SWIDTH 814 0
DWIDTH 7 0
BBX 7 5 0 0
BITMAP
790D34C0
790D34C0
790D34C0
790D34C0
7FFFFFC0
ENDCHAR
STARTCHAR uni0429.c2sc
ENCODING -1
SWIDTH 879 0
DWIDTH 8 0
BBX 8 6 0 -1
BITMAP
790D34C0
790D34C0
790D34C0
790D34C0
7FFFFFFA
00000069
ENDCHAR
STARTCHAR uni042A.c2sc
ENCODING -1
SWIDTH 668 0
DWIDTH 6 0
BBX 6 5 0 0
BITMAP
EFA000
06A000
06FFD4
06A08A
06FFD4
ENDCHAR
STARTCHAR uni042B.c2sc
ENCODING -1
SWIDTH 765 0
DWIDTH 7 0
BBX 7 5 0 0
BITMAP
79000B50
79000B50
7FFC3B50
79099B50
7FFD3B50
ENDCHAR
STARTCHAR uni042C.c2sc
ENCODING -1
SWIDTH 550 0
DWIDTH 5 0
BBX 5 5 0 0
BITMAP
790000
790000
7FFC30
790990
7FFD30
ENDCHAR
STARTCHAR uni042D.c2sc
ENCODING -1
SWIDTH 562 0
DWIDTH 5 0
BBX 5 5 0 0
BITMAP
2CEB10
761A80
01FFB0
761990
3CFB10
ENDCHAR
STARTCHAR uni042E.c2sc
ENCODING -1
SWIDTH 821 0
DWIDTH 7 0
BBX 7 5 0 0
BITMAP
790AED30
797B15D0
7FF701F0
797B15D0
791AED30
ENDCHAR
STARTCHAR uni042F.c2sc
ENCODING -1
SWIDTH 566 0
DWIDTH 5 0
BBX 5 5 0 0
BITMAP
2CFF90
5C1790
1BFF90
1E3790
7A0790
ENDCHAR
STARTCHAR uni0492.c2sc
ENCODING -1
SWIDTH 516 0
DWIDTH 5 0
BBX 5 5 0 0
BITMAP
0FFF80
0F1000
EFF000
0F1000
0F1000
ENDCHAR
STARTCHAR uni0496.c2sc
ENCODING -1
SWIDTH 821 0
DWIDTH 7 0
BBX 8 6 0 -1
BITMAP
7C0F0C70
0D5F5D00
08FFF800
1E5F5E20
9B0F0BF4
000000A4
ENDCHAR
STARTCHAR uni049A.c2sc
ENCODING -1
SWIDTH 576 0
DWIDTH 5 0
BBX 6 6 0 -1
BITMAP
791D40
79A800
7FF200
799B00
791DF1
0000D1
ENDCHAR
STARTCHAR uni049C.c2sc
ENCODING -1
SWIDTH 637 0
DWIDTH 6 0
BBX 6 5 0 0
BITMAP
7902E2
7A9C60
7FFE00
7A8B80
7902E4
ENDCHAR
STARTCHAR uni04A0.c2sc
ENCODING -1
SWIDTH 678 0
DWIDTH 6 0
BBX 6 5 0 0
BITMAP
DFC0B7
04C7B0
04FF40
04C6C1
04C0B9
ENDCHAR
STARTCHAR uni04A8.c2sc
ENCODING -1
SWIDTH 742 0
DWIDTH 7 0
BBX 7 5 0 0
BITMAP
1B8BE900
8A6B1E20
97690E20
6C3C4C00
08EFFF40
ENDCHAR
STARTCHAR uni04B0.c2sc
ENCODING -1
SWIDTH 543 0
DWIDTH 5 0
BBX 5 5 0 0
BITMAP
B70B70
2E4D00
1FFF00
03E000
03D000
ENDCHAR
STARTCHAR uni04B2.c2sc
ENCODING -1
SWIDTH 595 0
DWIDTH 5 0
BBX 6 6 0 -1
BITMAP
8A0C60
0DAA00
06F400
1DAD10
9A0BF2
0000C2
ENDCHAR
STARTCHAR uni04B4.c2sc
ENCODING -1
SWIDTH 822 0
DWIDTH 7 0
BBX 7 6 0 -1
BITMAP
DFFF4F10
05B00F10
05B00F10
05B00F10
05FFFFE0
000002D0
ENDCHAR
STARTCHAR uni04B8.c2sc
ENCODING -1
SWIDTH 568 0
DWIDTH 5 0
BBX 5 5 0 0
BITMAP
B51790
A8B890
4DFE90
00A790
000790
ENDCHAR
STARTCHAR uni04BA.c2sc
ENCODING -1
SWIDTH 568 0
DWIDTH 5 0
BBX 5 5 0 0
BITMAP
790000
790000
7EED50
7A06C0
7904C0
ENDCHAR
STARTCHAR uni04BC.c2sc
ENCODING -1
SWIDTH 749 0
DWIDTH 7 0
BBX 7 5 0 0
BITMAP
007DE800
D5D21D30
5EFFFF50
03D21200
007DE900
ENDCHAR
STARTCHAR uni04D8.c2sc
ENCODING -1
SWIDTH 602 0
DWIDTH 5 0
BBX 6 5 0 0
BITMAP
1DFC30
0204D0
AFFFF1
7904E0
1BED30
ENDCHAR
STARTCHAR uni04E0.c2sc
ENCODING -1
SWIDTH 534 0
DWIDTH 5 0
BBX 5 5 0 0
BITMAP
8FFF30
00A700
04FA10
441D50
4DFB10
ENDCHAR
STARTCHAR uni04E8.c2sc
ENCODING -1
SWIDTH 593 0
DWIDTH 5 0
BBX 5 5 0 0
BITMAP
1AEC30
7A16C0
AFFFE0
7B16C0
1AEC30
ENDCHAR
STARTCHAR lira.c2sc
ENCODING -1
SWIDTH 549 0
DWIDTH 5 0
BBX 5 5 0 0
BITMAP
08ED30
1F2100
FFFF00
3C0000
7FFF90
ENDCHAR
STARTCHAR Euro.c2sc
ENCODING -1
SWIDTH 495 0
DWIDTH 4 0
BBX 5 5 0 0
BITMAP
04DE10
0D5100
FFFF00
0D5100
04DE10
ENDCHAR
STARTCHAR uni2116.c2sc
ENCODING -1
SWIDTH 1026 0
DWIDTH 9 0
BBX 9 5 0 0
BITMAP
7D12E1CE60
7E92E493B0
79C6E1CE60
792EE00000
7907E0FF70
ENDCHAR
STARTCHAR uni20BD.c2sc
ENCODING -1
SWIDTH 614 0
DWIDTH 6 0
BBX 6 5 0 0
BITMAP
0EFEA0
0E22E3
CFFFA0
0E2000
CFF500
ENDCHAR
STARTCHAR three.dnom
ENCODING -1
SWIDTH 370 0
DWIDTH 3 0
BBX 3 4 0 0
BITMAP
7FB0
0CA0
52D0
6E90
ENDCHAR
STARTCHAR four.dnom
ENCODING -1
SWIDTH 370 0
DWIDTH 3 0
BBX 4 4 0 0
BITMAP
08A0
4AA0
BFF1
02A0
ENDCHAR
STARTCHAR five.dnom
ENCODING -1
SWIDTH 370 0
DWIDTH 3 0
BBX 3 4 0 0
BITMAP
6FC0
8EA0
43D0
5E90
ENDCHAR
STARTCHAR six.dnom
ENCODING -1
SWIDTH 370 0
DWIDTH 3 0
BBX 3 4 0 0
BITMAP
2C70
8EB0
95D0
4EA0
ENDCHAR
STARTCHAR seven.dnom
ENCODING -1
SWIDTH 370 0
DWIDTH 3 0
BBX 3 4 0 0
BITMAP
CFF0
0290
0930
2B00
ENDCHAR
STARTCHAR eight.dnom
ENCODING -1
SWIDTH 370 0
DWIDTH 3 0
BBX 3 4 0 0
BITMAP
6EA0
5FA0
95D0
5EA0
ENDCHAR
STARTCHAR nine.dnom
ENCODING -1
SWIDTH 370 0
DWIDTH 3 0
BBX 3 4 0 0
BITMAP
6E80
7EE0
03D0
1E50
ENDCHAR
STARTCHAR glyph550
ENCODING -1
SWIDTH 465 0
DWIDTH 4 0
BBX 4 1 0 3
BITMAP
5FF9
ENDCHAR
STARTCHAR glyph551
ENCODING -1
SWIDTH 336 0
DWIDTH 3 0
BBX 3 4 0 5
BITMAP
04B0
0830
2E20
3E20
ENDCHAR
STARTCHAR E.c2sc
ENCODING -1
SWIDTH 484 0
DWIDTH 4 0
BBX 5 5 0 0
BITMAP
7FFF20
790000
7FFC00
790000
7FFF30
ENDCHAR
STARTCHAR g.ss01
ENCODING -1
SWIDTH 528 0
DWIDTH 5 0
BBX 5 7 0 -2
BITMAP
4DFF90
A92E30
3EEA00
490000
4FFD30
D41A80
7EEA10
ENDCHAR
STARTCHAR alpha.ss02
ENCODING -1
SWIDTH 591 0
DWIDTH 5 0
BBX 5 5 0 0
BITMAP
1BE8C0
7B1B90
970770
7A1B90
1CE8C0
ENDCHAR
STARTCHAR R.ss03
ENCODING -1
SWIDTH 658 0
DWIDTH 6 0
BBX 6 7 0 0
BITMAP
5FFE90
5C02E3
5C01E3
5FFF90
5C02E1
5C00D4
5C00B6
ENDCHAR
STARTCHAR K.ss04
ENCODING -1
SWIDTH 644 0
DWIDTH 6 0
BBX 6 7 0 0
BITMAP
5C01E5
5C0AA0
5C4E10
5FF900
5C2E30
5C07C0
5C00C8
ENDCHAR
STARTCHAR k.ss04
ENCODING -1
SWIDTH 523 0
DWIDTH 5 0
BBX 5 7 0 0
BITMAP
790000
790000
791E30
799900
7FF200
798B00
790C60
ENDCHAR
STARTCHAR K.ss05
ENCODING -1
SWIDTH 652 0
DWIDTH 6 0
BBX 6 7 0 0
BITMAP
5C03E3
5C1D60
5CB900
5FF200
5CAB00
5C1C80
5C02E5
ENDCHAR
STARTCHAR k.ss05
ENCODING -1
SWIDTH 521 0
DWIDTH 5 0
BBX 5 7 0 0
BITMAP
790000
790000
794E20
7BE400
7FC000
7AC700
792E40
ENDCHAR
STARTCHAR D.c2sc
ENCODING -1
SWIDTH 559 0
DWIDTH 5 0
BBX 5 5 0 0
BITMAP
7FEA10
791A70
7906A0
791A80
7FEA10
ENDCHAR
STARTCHAR C.c2sc
ENCODING -1
SWIDTH 562 0
DWIDTH 5 0
BBX 5 5 0 0
BITMAP
1AFC30
8A1670
A70000
7A1570
1BEC30
ENDCHAR
STARTCHAR B.c2sc
ENCODING -1
SWIDTH 546 0
DWIDTH 5 0
BBX 5 5 0 0
BITMAP
7FFC20
791C50
7FFE10
790B70
7FFD30
ENDCHAR
STARTCHAR A.c2sc
ENCODING -1
SWIDTH 577 0
DWIDTH 5 0
BBX 5 5 0 0
BITMAP
02F400
08BB00
0D1D20
5FFF80
B502E0
ENDCHAR
STARTCHAR glyph564
ENCODING -1
SWIDTH 252 0
DWIDTH 2 0
BBX 2 2 0 5
BITMAP
19
59
ENDCHAR
STARTCHAR glyph565
ENCODING -1
SWIDTH 453 0
DWIDTH 4 0
BBX 4 4 0 5
BITMAP
0B00
0620
6785
1DC1
ENDCHAR
STARTCHAR glyph566
ENCODING -1
SWIDTH 0 0
DWIDTH 0 0
BBX 3 5 -4 5
BITMAP
0850
0A00
0000
8670
7860
ENDCHAR
STARTCHAR glyph567
ENCODING -1
SWIDTH 505 0
DWIDTH 5 0
BBX 5 3 0 6
BITMAP
0002D0
09D660
3B7700
ENDCHAR
STARTCHAR glyph568
ENCODING -1
SWIDTH 505 0
DWIDTH 5 0
BBX 5 3 -1 5
BITMAP
860000
299D10
03A770
ENDCHAR
STARTCHAR glyph569
ENCODING -1
SWIDTH 505 0
DWIDTH 5 0
BBX 5 3 0 6
BITMAP
000A50
0AC840
396700
ENDCHAR
STARTCHAR glyph570
ENCODING -1
SWIDTH 505 0
DWIDTH 5 0
BBX 4 4 0 6
BITMAP
0A63
06C1
09C1
3A67
ENDCHAR
STARTCHAR uni0490.c2sc
ENCODING -1
SWIDTH 465 0
DWIDTH 4 0
BBX 4 7 0 0
BITMAP
0005
000F
7FFF
7900
7900
7900
7900
ENDCHAR
STARTCHAR glyph572
ENCODING -1
SWIDTH 453 0
DWIDTH 4 0
BBX 4 4 0 5
BITMAP
01B0
0360
6785
1DC1
ENDCHAR
STARTCHAR glyph573
ENCODING -1
SWIDTH 453 0
DWIDTH 4 0
BBX 4 4 0 5
BITMAP
07A0
0490
6794
1DC0
ENDCHAR
STARTCHAR zero.numr
ENCODING -1
SWIDTH 370 0
DWIDTH 3 0
BBX 3 4 0 3
BITMAP
5E90
A4D0
A4D0
5E90
ENDCHAR
STARTCHAR four.numr
ENCODING -1
SWIDTH 370 0
DWIDTH 3 0
BBX 4 4 0 3
BITMAP
08A0
4AA0
BFF1
02A0
ENDCHAR
STARTCHAR five.numr
ENCODING -1
SWIDTH 370 0
DWIDTH 3 0
BBX 3 4 0 3
BITMAP
6FC0
8EA0
43D0
5E90
ENDCHAR
STARTCHAR six.numr
ENCODING -1
SWIDTH 370 0
DWIDTH 3 0
BBX 3 4 0 3
BITMAP
2C70
8EB0
95D0
4EA0
ENDCHAR
STARTCHAR seven.numr
ENCODING -1
SWIDTH 370 0
DWIDTH 3 0
BBX 3 4 0 3
BITMAP
CFF0
0290
0930
2B00
ENDCHAR
STARTCHAR eight.numr
ENCODING -1
SWIDTH 370 0
DWIDTH 3 0
BBX 3 4 0 3
BITMAP
6EA0
5FA0
95D0
5EA0
ENDCHAR
STARTCHAR nine.numr
ENCODING -1
SWIDTH 370 0
DWIDTH 3 0
BBX 3 4 0 3
BITMAP
6E80
7EE0
03D0
1E50
ENDCHAR
STARTCHAR C.ss06
ENCODING -1
SWIDTH 684 0
DWIDTH 6 0
BBX 6 7 0 0
BITMAP
05DEA1
2E41A8
6B0024
890000
7B0023
2E41A8
05DEA1
ENDCHAR
STARTCHAR G.ss06
ENCODING -1
SWIDTH 704 0
DWIDTH 6 0
BBX 6 7 0 0
BITMAP
04DEA1
2E51A9
6B0012
8909FC
6B005C
2E517C
04CFC4
ENDCHAR
STARTCHAR D.ss06
ENCODING -1
SWIDTH 690 0
DWIDTH 6 0
BBX 6 7 0 0
BITMAP
5FFD50
5C04E3
5C0089
5C006B
5C0089
5C04E3
5FFD50
ENDCHAR
STARTCHAR O.ss06
ENCODING -1
SWIDTH 734 0
DWIDTH 7 0
BBX 7 7 0 0
BITMAP
04CEA100
1E51AA00
6B002F00
89000F20
6B002F00
1E51AA00
04DEA100
ENDCHAR
STARTCHAR Q.ss06
ENCODING -1
SWIDTH 735 0
DWIDTH 7 0
BBX 7 8 0 -1
BITMAP
04DEA100
1E51AA00
6B002F00
89000F20
6B002F00
1E51AA00
04DFF200
00007900
ENDCHAR
STARTCHAR one.oldstyle.pnum
ENCODING -1
SWIDTH 513 0
DWIDTH 5 0
BBX 4 5 0 0
BITMAP
05B4
5BD4
00C4
00C4
00C4
ENDCHAR
STARTCHAR two.oldstyle.pnum
ENCODING -1
SWIDTH 563 0
DWIDTH 5 0
BBX 5 5 0 0
BITMAP
1AEC20
581B60
004D10
08B100
6FFFA0
ENDCHAR
STARTCHAR three.oldstyle.pnum
ENCODING -1
SWIDTH 542 0
DWIDTH 5 0
BBX 5 7 0 -2
BITMAP
9FFF40
009600
07F900
002D40
000B60
313E30
9EE600
ENDCHAR
STARTCHAR four.oldstyle.pnum
ENCODING -1
SWIDTH 592 0
DWIDTH 5 0
BBX 6 6 0 -1
BITMAP
002F50
00CE50
087B50
4B0B50
BFFFF2
000B50
ENDCHAR
STARTCHAR five.oldstyle.pnum
ENCODING -1
SWIDTH 552 0
DWIDTH 5 0
BBX 5 7 0 -2
BITMAP
1FFF80
3B0000
4EEB10
361B70
000790
221C60
4DEA00
ENDCHAR
STARTCHAR seven.oldstyle.pnum
ENCODING -1
SWIDTH 522 0
DWIDTH 5 0
BBX 5 6 0 -1
BITMAP
BFFF80
000C30
005A00
00C300
05B000
0C4000
ENDCHAR
STARTCHAR glyph592
ENCODING -1
SWIDTH 453 0
DWIDTH 4 0
BBX 4 4 0 5
BITMAP
1C62
35C0
6794
1DC0
ENDCHAR
STARTCHAR glyph593
ENCODING -1
SWIDTH 212 0
DWIDTH 2 0
BBX 2 2 0 -1
BITMAP
97
97
ENDCHAR
STARTCHAR OE.c2sc
ENCODING -1
SWIDTH 824 0
DWIDTH 7 0
BBX 8 5 0 0
BITMAP
1AFFFFF3
7B17A000
A606FFD0
7B16A000
1AEFFFF4
ENDCHAR
STARTCHAR nine.oldstyle.pnum
ENCODING -1
SWIDTH 587 0
DWIDTH 5 0
BBX 5 6 0 -1
BITMAP
0AEC30
6C17B0
6B15D0
1BEDC0
021A90
0CEA10
ENDCHAR
STARTCHAR glyph596
ENCODING -1
SWIDTH 257 0
DWIDTH 2 0
BBX 3 3 -1 -2
BITMAP
05B0
06B0
5E50
ENDCHAR
STARTCHAR three.oldstyle
ENCODING -1
SWIDTH 568 0
DWIDTH 5 0
BBX 5 7 0 -2
BITMAP
6FFF60
007800
04FB10
001C70
000890
212D60
7EE800
ENDCHAR
STARTCHAR five.oldstyle
ENCODING -1
SWIDTH 568 0
DWIDTH 5 0
BBX 5 7 0 -2
BITMAP
1FFF80
3C0000
4EEB10
361B70
000790
221C60
4DEA00
ENDCHAR
STARTCHAR four.oldstyle
ENCODING -1
SWIDTH 568 0
DWIDTH 5 0
BBX 6 6 0 -1
BITMAP
003F40
01CE40
096C40
4A0C40
CFFFF1
000C40
ENDCHAR
STARTCHAR two.oldstyle
ENCODING -1
SWIDTH 568 0
DWIDTH 5 0
BBX 5 5 0 0
BITMAP
1BEC10
581B50
005C10
08A100
6FFFA0
ENDCHAR
STARTCHAR seven.oldstyle
ENCODING -1
SWIDTH 568 0
DWIDTH 5 0
BBX 5 6 0 -1
BITMAP
8FFFA0
000A50
003C00
00A500
03D000
0A6000
ENDCHAR
STARTCHAR zero.oldstyle
ENCODING -1
SWIDTH 568 0
DWIDTH 5 0
BBX 5 5 0 0
BITMAP
1BEC20
9918B0
B503D0
9918A0
1BFC20
ENDCHAR
STARTCHAR six.oldstyle
ENCODING -1
SWIDTH 568 0
DWIDTH 5 0
BBX 5 7 0 0
BITMAP
03CB00
1D5000
5DEC20
7C1A80
7906A0
4D1A80
09EB10
ENDCHAR
STARTCHAR nine.oldstyle
ENCODING -1
SWIDTH 568 0
DWIDTH 5 0
BBX 5 6 0 -1
BITMAP
1BEB20
8A1890
8A17B0
2CEDB0
021B70
0DE900
ENDCHAR
STARTCHAR eight.oldstyle
ENCODING -1
SWIDTH 568 0
DWIDTH 5 0
BBX 5 7 0 0
BITMAP
0AEB10
5D1B70
4D1B50
0CFD00
6B1980
7B1990
1BEC20
ENDCHAR
STARTCHAR one.oldstyle
ENCODING -1
SWIDTH 568 0
DWIDTH 5 0
BBX 3 5 1 0
BITMAP
3990
CB90
0790
0790
0790
ENDCHAR
STARTCHAR glyph607
ENCODING -1
SWIDTH 268 0
DWIDTH 2 0
BBX 3 7 -1 -2
BITMAP
04C0
04C0
04C0
04C0
04C0
06B0
4E50
ENDCHAR
STARTCHAR glyph608
ENCODING -1
SWIDTH 268 0
DWIDTH 2 0
BBX 3 7 -1 -2
BITMAP
04C0
04C0
04C0
04C0
04C0
06B0
4E50
ENDCHAR
STARTCHAR glyph609
ENCODING -1
SWIDTH 263 0
DWIDTH 2 0
BBX 2 5 0 0
BITMAP
6B
6B
6B
6B
6B
ENDCHAR
STARTCHAR glyph610
ENCODING -1
SWIDTH 263 0
DWIDTH 2 0
BBX 2 7 0 -2
BITMAP
6B
6B
6B
6B
8D
C1
B8
ENDCHAR
STARTCHAR glyph611
ENCODING -1
SWIDTH 263 0
DWIDTH 2 0
BBX 2 5 0 0
BITMAP
6B
6B
6B
6B
6B
ENDCHAR
STARTCHAR germandbls.sc
ENCODING -1
SWIDTH 546 0
DWIDTH 5 0
BBX 5 5 0 0
BITMAP
2CEA10
7B7900
78DD30
782A80
79ED30
ENDCHAR
STARTCHAR zero.oldstyle.pnum
ENCODING -1
SWIDTH 614 0
DWIDTH 6 0
BBX 6 5 0 0
BITMAP
09ED40
6C15E0
8800F1
6C15D0
09ED40
ENDCHAR
STARTCHAR seven.pnum
ENCODING -1
SWIDTH 524 0
DWIDTH 5 0
BBX 5 7 0 0
BITMAP
BFFF60
000D20
004B00
00A500
02D000
088000
0D2000
ENDCHAR
STARTCHAR b.ss06
ENCODING -1
SWIDTH 566 0
DWIDTH 5 0
BBX 5 7 0 0
BITMAP
790000
790000
7DEC20
7B19A0
7904C0
7B19A0
7CEC20
ENDCHAR
STARTCHAR c.ss06
ENCODING -1
SWIDTH 529 0
DWIDTH 5 0
BBX 5 5 0 0
BITMAP
1BEB10
7A1950
970000
7A1840
1BEB10
ENDCHAR
STARTCHAR d.ss06
ENCODING -1
SWIDTH 574 0
DWIDTH 5 0
BBX 5 7 0 0
BITMAP
000790
000790
1BEC90
7B1990
970790
7B1990
1BEB90
ENDCHAR
STARTCHAR g.ss06
ENCODING -1
SWIDTH 571 0
DWIDTH 5 0
BBX 5 7 0 -2
BITMAP
1BEB90
7B1990
970790
7B1990
1BED90
031B70
0CEB10
ENDCHAR
STARTCHAR o.ss06
ENCODING -1
SWIDTH 578 0
DWIDTH 5 0
BBX 5 5 0 0
BITMAP
0AEC20
7B18A0
A603D0
7B18A0
1AEC10
ENDCHAR
STARTCHAR p.ss06
ENCODING -1
SWIDTH 572 0
DWIDTH 5 0
BBX 5 7 0 -2
BITMAP
7CEC20
7B19A0
7904C0
7B1990
7DED20
790000
790000
ENDCHAR
STARTCHAR q.ss06
ENCODING -1
SWIDTH 577 0
DWIDTH 5 0
BBX 5 7 0 -2
BITMAP
1CEC90
7B1990
970790
7B1990
1BED90
000790
000790
ENDCHAR
STARTCHAR e.ss07
ENCODING -1
SWIDTH 536 0
DWIDTH 5 0
BBX 5 5 0 0
BITMAP
0AEB10
7B1A60
9FFF80
7B1210
0AED30
ENDCHAR
STARTCHAR g.ss07
ENCODING -1
SWIDTH 566 0
DWIDTH 5 0
BBX 5 7 0 -2
BITMAP
1CEC80
7A1A80
970880
7A1A80
1CED80
021C60
0CEA00
ENDCHAR
STARTCHAR one.pnum
ENCODING -1
SWIDTH 455 0
DWIDTH 4 0
BBX 3 7 0 0
BITMAP
17D0
89F0
00F0
00F0
00F0
00F0
00F0
ENDCHAR
STARTCHAR ampersand.c2sc
ENCODING -1
SWIDTH 626 0
DWIDTH 6 0
BBX 6 5 0 0
BITMAP
1CE700
2D7A00
1CE270
8A5CB0
4DFCB1
ENDCHAR
STARTCHAR Lslash.c2sc
ENCODING -1
SWIDTH 470 0
DWIDTH 4 0
BBX 5 5 0 0
BITMAP
790000
7B4000
CB2000
790000
7FFF10
ENDCHAR
STARTCHAR AE.c2sc
ENCODING -1
SWIDTH 784 0
DWIDTH 7 0
BBX 7 5 0 0
BITMAP
009FFF80
03CCFF40
0B5B5000
4FFF6000
C60AFFC0
ENDCHAR
STARTCHAR Thorn.c2sc
ENCODING -1
SWIDTH 504 0
DWIDTH 5 0
BBX 5 5 0 0
BITMAP
790000
7FEA00
791E40
7FFA10
790000
ENDCHAR
STARTCHAR Oslash.c2sc
ENCODING -1
SWIDTH 593 0
DWIDTH 5 0
BBX 5 7 0 -1
BITMAP
000010
1AFD80
7B2CC0
A693E0
7D56C0
3DFC30
100000
ENDCHAR
STARTCHAR Hbar.c2sc
ENCODING -1
SWIDTH 629 0
DWIDTH 6 0
BBX 6 5 0 0
BITMAP
CFFFF7
6A00F1
6FFFF1
6A00F1
6A00F1
ENDCHAR
STARTCHAR Eng.c2sc
ENCODING -1
SWIDTH 607 0
DWIDTH 5 0
BBX 5 7 0 -2
BITMAP
7D12E0
7E92E0
79C5E0
792DE0
7907E0
0003E0
002E80
ENDCHAR
STARTCHAR Dcroat.c2sc
ENCODING -1
SWIDTH 559 0
DWIDTH 5 0
BBX 6 5 -1 0
BITMAP
07FEA1
0791A7
6FF86A
0791A8
07FEA1
ENDCHAR
STARTCHAR Eth.c2sc
ENCODING -1
SWIDTH 559 0
DWIDTH 5 0
BBX 6 5 -1 0
BITMAP
07FEA1
0791A7
6FF86A
0791A8
07FEA1
ENDCHAR
STARTCHAR Tbar.c2sc
ENCODING -1
SWIDTH 528 0
DWIDTH 5 0
BBX 5 5 0 0
BITMAP
DFFF90
03E000
2FFC00
03E000
03E000
ENDCHAR
STARTCHAR Agrave.c2sc
ENCODING -1
SWIDTH 577 0
DWIDTH 5 0
BBX 5 8 0 0
BITMAP
099000
01C000
000000
02F400
08BB00
0D1D20
5FFF80
B502E0
ENDCHAR
STARTCHAR Aacute.c2sc
ENCODING -1
SWIDTH 577 0
DWIDTH 5 0
BBX 5 8 0 0
BITMAP
005C00
00A300
000000
02F400
08BB00
0D1D20
5FFF80
B502E0
ENDCHAR
STARTCHAR Acircumflex.c2sc
ENCODING -1
SWIDTH 577 0
DWIDTH 5 0
BBX 5 8 0 0
BITMAP
03E500
095B00
000000
02F400
08BB00
0D1D20
5FFF80
B502E0
ENDCHAR
STARTCHAR Atilde.c2sc
ENCODING -1
SWIDTH 577 0
DWIDTH 5 0
BBX 5 8 0 0
BITMAP
099830
0A6C00
000000
02F400
08BB00
0D1D20
5FFF80
B502E0
ENDCHAR
STARTCHAR Adieresis.c2sc
ENCODING -1
SWIDTH 577 0
DWIDTH 5 0
BBX 5 7 0 0
BITMAP
0C1B10
000000
02F400
08BB00
0D1D20
5FFF80
B502E0
ENDCHAR
STARTCHAR Aring.c2sc
ENCODING -1
SWIDTH 577 0
DWIDTH 5 0
BBX 5 8 0 0
BITMAP
03E500
03E600
000000
02F400
08BB00
0D1D20
5FFF80
B502E0
ENDCHAR
STARTCHAR Aringacute.c2sc
ENCODING -1
SWIDTH 577 0
DWIDTH 5 0
BBX 5 9 0 0
BITMAP
002C00
006400
01E300
01E400
02F400
08BB00
0D1D20
5FFF80
B502E0
ENDCHAR
STARTCHAR Ccedilla.c2sc
ENCODING -1
SWIDTH 562 0
DWIDTH 5 0
BBX 5 7 0 -2
BITMAP
1AFC30
8A1670
A70000
7A1570
1BEC30
009500
00C500
ENDCHAR
STARTCHAR Egrave.c2sc
ENCODING -1
SWIDTH 484 0
DWIDTH 4 0
BBX 5 8 0 0
BITMAP
0C6000
04A000
000000
7FFF20
790000
7FFC00
790000
7FFF30
ENDCHAR
STARTCHAR Eacute.c2sc
ENCODING -1
SWIDTH 484 0
DWIDTH 4 0
BBX 5 8 0 0
BITMAP
009900
00B100
000000
7FFF20
790000
7FFC00
790000
7FFF30
ENDCHAR
STARTCHAR Ecircumflex.c2sc
ENCODING -1
SWIDTH 484 0
DWIDTH 4 0
BBX 5 8 0 0
BITMAP
05E300
0B5900
000000
7FFF20
790000
7FFC00
790000
7FFF30
ENDCHAR
STARTCHAR Edieresis.c2sc
ENCODING -1
SWIDTH 484 0
DWIDTH 4 0
BBX 5 7 0 0
BITMAP
1B1B00
000000
7FFF20
790000
7FFC00
790000
7FFF30
ENDCHAR
STARTCHAR Igrave.c2sc
ENCODING -1
SWIDTH 248 0
DWIDTH 2 0
BBX 3 8 -1 0
BITMAP
2E20
0760
0000
06A0
06A0
06A0
06A0
06A0
ENDCHAR
STARTCHAR Iacute.c2sc
ENCODING -1
SWIDTH 248 0
DWIDTH 2 0
BBX 3 8 0 0
BITMAP
0D50
3A00
0000
6A00
6A00
6A00
6A00
6A00
ENDCHAR
STARTCHAR Icircumflex.c2sc
ENCODING -1
SWIDTH 248 0
DWIDTH 2 0
BBX 4 8 -1 0
BITMAP
09C1
2B85
0000
06A0
06A0
06A0
06A0
06A0
ENDCHAR
STARTCHAR Idieresis.c2sc
ENCODING -1
SWIDTH 248 0
DWIDTH 2 0
BBX 4 7 -1 0
BITMAP
5848
0000
06A0
06A0
06A0
06A0
06A0
ENDCHAR
STARTCHAR Ntilde.c2sc
ENCODING -1
SWIDTH 607 0
DWIDTH 5 0
BBX 5 8 0 0
BITMAP
07A640
0A4D10
000000
7D12E0
7E92E0
79C6E0
792EE0
7907E0
ENDCHAR
STARTCHAR Ograve.c2sc
ENCODING -1
SWIDTH 593 0
DWIDTH 5 0
BBX 5 8 0 0
BITMAP
08A000
01C100
000000
1AEC30
7B16C0
A601E0
7B16C0
1AEC30
ENDCHAR
STARTCHAR Oacute.c2sc
ENCODING -1
SWIDTH 593 0
DWIDTH 5 0
BBX 5 8 0 0
BITMAP
004D00
009400
000000
1AEC30
7B16C0
A601E0
7B16C0
1AEC30
ENDCHAR
STARTCHAR Ocircumflex.c2sc
ENCODING -1
SWIDTH 593 0
DWIDTH 5 0
BBX 5 8 0 0
BITMAP
02E600
086B10
000000
1AEC30
7B16C0
A601E0
7B16C0
1AEC30
ENDCHAR
STARTCHAR Otilde.c2sc
ENCODING -1
SWIDTH 593 0
DWIDTH 5 0
BBX 5 8 0 0
BITMAP
089730
0A5D00
000000
1AEC30
7B16C0
A601E0
7B16C0
1AEC30
ENDCHAR
STARTCHAR Odieresis.c2sc
ENCODING -1
SWIDTH 593 0
DWIDTH 5 0
BBX 5 7 0 0
BITMAP
0B2B20
000000
1AEC30
7B16C0
A601E0
7B16C0
1AEC30
ENDCHAR
STARTCHAR Ugrave.c2sc
ENCODING -1
SWIDTH 564 0
DWIDTH 5 0
BBX 5 8 0 0
BITMAP
0A8000
02B000
000000
880790
880790
880790
7A1990
1CFC20
ENDCHAR
STARTCHAR Uacute.c2sc
ENCODING -1
SWIDTH 564 0
DWIDTH 5 0
BBX 5 8 0 0
BITMAP
007B00
00A300
000000
880790
880790
880790
7A1990
1CFC20
ENDCHAR
STARTCHAR Ucircumflex.c2sc
ENCODING -1
SWIDTH 564 0
DWIDTH 5 0
BBX 5 8 0 0
BITMAP
03E400
0A5B00
000000
880790
880790
880790
7A1990
1CFC20
ENDCHAR
STARTCHAR Udieresis.c2sc
ENCODING -1
SWIDTH 564 0
DWIDTH 5 0
BBX 5 7 0 0
BITMAP
0C0C00
000000
880790
880790
880790
7A1990
1CFC20
ENDCHAR
STARTCHAR Yacute.c2sc
ENCODING -1
SWIDTH 529 0
DWIDTH 5 0
BBX 5 8 0 0
BITMAP
009900
01C100
000000
B70B70
2E4D00
09E500
03E000
03D000
ENDCHAR
STARTCHAR Amacron.c2sc
ENCODING -1
SWIDTH 577 0
DWIDTH 5 0
BBX 5 7 0 0
BITMAP
0DFF20
000000
02F400
08BB00
0D1D20
5FFF80
B502E0
ENDCHAR
STARTCHAR Abreve.c2sc
ENCODING -1
SWIDTH 577 0
DWIDTH 5 0
BBX 5 8 0 0
BITMAP
0B2D00
05E800
000000
02F400
08BB00
0D1D20
5FFF80
B502E0
ENDCHAR
STARTCHAR Aogonek.c2sc
ENCODING -1
SWIDTH 577 0
DWIDTH 5 0
BBX 5 7 0 -2
BITMAP
02F400
08BB00
0D1D20
5FFF80
B502E0
000670
0006D0
ENDCHAR
STARTCHAR Cacute.c2sc
ENCODING -1
SWIDTH 562 0
DWIDTH 5 0
BBX 5 8 0 0
BITMAP
006C00
00A300
000000
1AFC30
8A1670
A70000
7A1570
1BEC30
ENDCHAR
STARTCHAR Ccircumflex.c2sc
ENCODING -1
SWIDTH 562 0
DWIDTH 5 0
BBX 5 8 0 0
BITMAP
03E500
095B00
000000
1AFC30
8A1670
A70000
7A1570
1BEC30
ENDCHAR
STARTCHAR Cdotaccent.c2sc
ENCODING -1
SWIDTH 562 0
DWIDTH 5 0
BBX 5 7 0 0
BITMAP
00C100
000000
1AFC30
8A1670
A70000
7A1570
1BEC30
ENDCHAR
STARTCHAR Ccaron.c2sc
ENCODING -1
SWIDTH 562 0
DWIDTH 5 0
BBX 5 8 0 0
BITMAP
0A5C00
02E400
000000
1AFC30
8A1670
A70000
7A1570
1BEC30
ENDCHAR
STARTCHAR Dcaron.c2sc
ENCODING -1
SWIDTH 559 0
DWIDTH 5 0
BBX 5 8 0 0
BITMAP
4AA400
09A000
000000
7FEA10
791A70
7906A0
791A80
7FEA10
ENDCHAR
STARTCHAR Emacron.c2sc
ENCODING -1
SWIDTH 484 0
DWIDTH 4 0
BBX 5 7 0 0
BITMAP
1FFE00
000000
7FFF20
790000
7FFC00
790000
7FFF30
ENDCHAR
STARTCHAR Ebreve.c2sc
ENCODING -1
SWIDTH 484 0
DWIDTH 4 0
BBX 5 8 0 0
BITMAP
0D2B00
08E500
000000
7FFF20
790000
7FFC00
790000
7FFF30
ENDCHAR
STARTCHAR Edotaccent.c2sc
ENCODING -1
SWIDTH 484 0
DWIDTH 4 0
BBX 5 7 0 0
BITMAP
01C000
000000
7FFF20
790000
7FFC00
790000
7FFF30
ENDCHAR
STARTCHAR Eogonek.c2sc
ENCODING -1
SWIDTH 484 0
DWIDTH 4 0
BBX 5 7 0 -2
BITMAP
7FFF20
790000
7FFC00
790000
7FFF30
009400
009B00
ENDCHAR
STARTCHAR Ecaron.c2sc
ENCODING -1
SWIDTH 484 0
DWIDTH 4 0
BBX 5 8 0 0
BITMAP
0C5A00
04E100
000000
7FFF20
790000
7FFC00
790000
7FFF30
ENDCHAR
STARTCHAR Gcircumflex.c2sc
ENCODING -1
SWIDTH 581 0
DWIDTH 5 0
BBX 5 8 0 0
BITMAP
03E500
095B00
000000
1AED40
7B1570
975FC0
7B15C0
1AED60
ENDCHAR
STARTCHAR Gbreve.c2sc
ENCODING -1
SWIDTH 581 0
DWIDTH 5 0
BBX 5 8 0 0
BITMAP
0B2D00
05E800
000000
1AED40
7B1570
975FC0
7B15C0
1AED60
ENDCHAR
STARTCHAR Gdotaccent.c2sc
ENCODING -1
SWIDTH 581 0
DWIDTH 5 0
BBX 5 7 0 0
BITMAP
00C100
000000
1AED40
7B1570
975FC0
7B15C0
1AED60
ENDCHAR
STARTCHAR uni0122.c2sc
ENCODING -1
SWIDTH 581 0
DWIDTH 5 0
BBX 5 8 0 -3
BITMAP
1AED40
7B1570
975FC0
7B15C0
1AED60
000000
00C100
00A000
ENDCHAR
STARTCHAR Hcircumflex.c2sc
ENCODING -1
SWIDTH 608 0
DWIDTH 5 0
BBX 5 8 0 0
BITMAP
02E700
086B10
000000
7902E0
7902E0
7FFFE0
7902E0
7902E0
ENDCHAR
STARTCHAR Itilde.c2sc
ENCODING -1
SWIDTH 248 0
DWIDTH 2 0
BBX 4 8 -1 0
BITMAP
2D3A
75C5
0000
06A0
06A0
06A0
06A0
06A0
ENDCHAR
STARTCHAR Imacron.c2sc
ENCODING -1
SWIDTH 248 0
DWIDTH 2 0
BBX 4 7 -1 0
BITMAP
6FFA
0000
06A0
06A0
06A0
06A0
06A0
ENDCHAR
STARTCHAR Ibreve.c2sc
ENCODING -1
SWIDTH 248 0
DWIDTH 2 0
BBX 4 8 -1 0
BITMAP
3A67
0BD2
0000
06A0
06A0
06A0
06A0
06A0
ENDCHAR
STARTCHAR Iogonek.c2sc
ENCODING -1
SWIDTH 248 0
DWIDTH 2 0
BBX 2 7 0 -2
BITMAP
6A
6A
6A
6A
8C
C2
AA
ENDCHAR
STARTCHAR Idotaccent.c2sc
ENCODING -1
SWIDTH 248 0
DWIDTH 2 0
BBX 2 7 0 0
BITMAP
58
00
6A
6A
6A
6A
6A
ENDCHAR
STARTCHAR Jcircumflex.c2sc
ENCODING -1
SWIDTH 479 0
DWIDTH 4 0
BBX 5 9 0 -1
BITMAP
007D10
01B770
000000
004C00
004C00
004C00
524C00
8DD700
044000
ENDCHAR
STARTCHAR uni0136.c2sc
ENCODING -1
SWIDTH 544 0
DWIDTH 5 0
BBX 5 8 0 -3
BITMAP
791D60
79C800
7FF200
7B7C00
790A90
000000
03A000
056000
ENDCHAR
STARTCHAR Lacute.c2sc
ENCODING -1
SWIDTH 465 0
DWIDTH 4 0
BBX 4 8 0 0
BITMAP
0D50
3A00
0000
7900
7900
7900
7900
7FFF
ENDCHAR
STARTCHAR uni013B.c2sc
ENCODING -1
SWIDTH 465 0
DWIDTH 4 0
BBX 4 8 0 -3
BITMAP
7900
7900
7900
7900
7FFF
0000
03A0
0560
ENDCHAR
STARTCHAR Lcaron.c2sc
ENCODING -1
SWIDTH 465 0
DWIDTH 4 0
BBX 4 5 0 0
BITMAP
7994
7991
7900
7900
7FFF
ENDCHAR
STARTCHAR Ldot.c2sc
ENCODING -1
SWIDTH 465 0
DWIDTH 4 0
BBX 4 5 0 0
BITMAP
7900
79A3
7900
7900
7FFF
ENDCHAR
STARTCHAR Nacute.c2sc
ENCODING -1
SWIDTH 607 0
DWIDTH 5 0
BBX 5 8 0 0
BITMAP
004E10
008500
000000
7D12E0
7E92E0
79C6E0
792EE0
7907E0
ENDCHAR
STARTCHAR uni0145.c2sc
ENCODING -1
SWIDTH 607 0
DWIDTH 5 0
BBX 5 8 0 -3
BITMAP
7D12E0
7E92E0
79C6E0
792EE0
7907E0
000000
00B200
00A000
ENDCHAR
STARTCHAR Ncaron.c2sc
ENCODING -1
SWIDTH 607 0
DWIDTH 5 0
BBX 5 8 0 0
BITMAP
086C10
01D600
000000
7D12E0
7E92E0
79C6E0
792EE0
7907E0
ENDCHAR
STARTCHAR Omacron.c2sc
ENCODING -1
SWIDTH 593 0
DWIDTH 5 0
BBX 5 7 0 0
BITMAP
0CFF30
000000
1AEC30
7B16C0
A601E0
7B16C0
1AEC30
ENDCHAR
STARTCHAR Obreve.c2sc
ENCODING -1
SWIDTH 593 0
DWIDTH 5 0
BBX 5 8 0 0
BITMAP
0A3D10
04E900
000000
1AEC30
7B16C0
A601E0
7B16C0
1AEC30
ENDCHAR
STARTCHAR Ohungarumlaut.c2sc
ENCODING -1
SWIDTH 593 0
DWIDTH 5 0
BBX 5 8 0 0
BITMAP
01D890
058B10
000000
1AEC30
7B16C0
A601E0
7B16C0
1AEC30
ENDCHAR
STARTCHAR Racute.c2sc
ENCODING -1
SWIDTH 544 0
DWIDTH 5 0
BBX 5 8 0 0
BITMAP
00B700
01B000
000000
7FFC30
790B70
7FFC10
793E10
790A80
ENDCHAR
STARTCHAR uni0156.c2sc
ENCODING -1
SWIDTH 544 0
DWIDTH 5 0
BBX 5 8 0 -3
BITMAP
7FFC30
790B70
7FFC10
793E10
790A80
000000
02B000
046000
ENDCHAR
STARTCHAR Rcaron.c2sc
ENCODING -1
SWIDTH 544 0
DWIDTH 5 0
BBX 5 8 0 0
BITMAP
1C7800
06D100
000000
7FFC30
790B70
7FFC10
793E10
790A80
ENDCHAR
STARTCHAR Sacute.c2sc
ENCODING -1
SWIDTH 525 0
DWIDTH 5 0
BBX 5 8 0 0
BITMAP
008A00
00B200
000000
2CFB10
7C3630
1AEB10
651C60
3CFC10
ENDCHAR
STARTCHAR Scircumflex.c2sc
ENCODING -1
SWIDTH 525 0
DWIDTH 5 0
BBX 5 8 0 0
BITMAP
04E300
0B5A00
000000
2CFB10
7C3630
1AEB10
651C60
3CFC10
ENDCHAR
STARTCHAR Scedilla.c2sc
ENCODING -1
SWIDTH 525 0
DWIDTH 5 0
BBX 5 7 0 -2
BITMAP
2CFB10
7C3630
1AEB10
651C60
3CFC10
00A400
00D400
ENDCHAR
STARTCHAR Scaron.c2sc
ENCODING -1
SWIDTH 525 0
DWIDTH 5 0
BBX 5 8 0 0
BITMAP
0C5B00
03E200
000000
2CFB10
7C3630
1AEB10
651C60
3CFC10
ENDCHAR
STARTCHAR uni021A.c2sc
ENCODING -1
SWIDTH 528 0
DWIDTH 5 0
BBX 5 8 0 -3
BITMAP
DFFF90
03E000
03E000
03E000
03E000
000000
01B000
047000
ENDCHAR
STARTCHAR Tcaron.c2sc
ENCODING -1
SWIDTH 528 0
DWIDTH 5 0
BBX 5 8 0 0
BITMAP
1C6A00
04E100
000000
DFFF90
03E000
03E000
03E000
03E000
ENDCHAR
STARTCHAR uni0162.c2sc
ENCODING -1
SWIDTH 528 0
DWIDTH 5 0
BBX 5 7 0 -2
BITMAP
DFFF90
03E000
03E000
03E000
03E000
00B300
01E300
ENDCHAR
STARTCHAR Utilde.c2sc
ENCODING -1
SWIDTH 564 0
DWIDTH 5 0
BBX 5 8 0 0
BITMAP
0B7910
1A7B00
000000
880790
880790
880790
7A1990
1CFC20
ENDCHAR
STARTCHAR Umacron.c2sc
ENCODING -1
SWIDTH 564 0
DWIDTH 5 0
BBX 5 7 0 0
BITMAP
0EFF10
000000
880790
880790
880790
7A1990
1CFC20
ENDCHAR
STARTCHAR Ubreve.c2sc
ENCODING -1
SWIDTH 564 0
DWIDTH 5 0
BBX 5 8 0 0
BITMAP
0C2D00
06E700
000000
880790
880790
880790
7A1990
1CFC20
ENDCHAR
STARTCHAR Uring.c2sc
ENCODING -1
SWIDTH 564 0
DWIDTH 5 0
BBX 5 8 0 0
BITMAP
04E400
04E500
000000
880790
880790
880790
7A1990
1CFC20
ENDCHAR
STARTCHAR Uhungarumlaut.c2sc
ENCODING -1
SWIDTH 564 0
DWIDTH 5 0
BBX 5 8 0 0
BITMAP
03CA60
077B00
000000
880790
880790
880790
7A1990
1CFC20
ENDCHAR
STARTCHAR Uogonek.c2sc
ENCODING -1
SWIDTH 564 0
DWIDTH 5 0
BBX 5 7 0 -2
BITMAP
880790
880790
880790
7A1990
1CFD20
00C200
009A00
ENDCHAR
STARTCHAR Wcircumflex.c2sc
ENCODING -1
SWIDTH 753 0
DWIDTH 7 0
BBX 7 8 0 0
BITMAP
005E3000
00B59000
00000000
B53F0880
787E4B40
3BB68D00
0DC1DB00
0B90C800
ENDCHAR
STARTCHAR Ycircumflex.c2sc
ENCODING -1
SWIDTH 529 0
DWIDTH 5 0
BBX 5 8 0 0
BITMAP
06E200
0B6900
000000
B70B70
2E4D00
09E500
03E000
03D000
ENDCHAR
STARTCHAR Ydieresis.c2sc
ENCODING -1
SWIDTH 529 0
DWIDTH 5 0
BBX 5 7 0 0
BITMAP
1B1B00
000000
B70B70
2E4D00
09E500
03E000
03D000
ENDCHAR
STARTCHAR Zacute.c2sc
ENCODING -1
SWIDTH 520 0
DWIDTH 5 0
BBX 5 8 0 0
BITMAP
009900
00C100
000000
BFFF50
006B00
04C100
2D2000
AFFF70
ENDCHAR
STARTCHAR Zdotaccent.c2sc
ENCODING -1
SWIDTH 520 0
DWIDTH 5 0
BBX 5 7 0 0
BITMAP
02C000
000000
BFFF50
006B00
04C100
2D2000
AFFF70
ENDCHAR
STARTCHAR Zcaron.c2sc
ENCODING -1
SWIDTH 520 0
DWIDTH 5 0
BBX 5 8 0 0
BITMAP
1C6A00
04E100
000000
BFFF50
006B00
04C100
2D2000
AFFF70
ENDCHAR
STARTCHAR two.pnum
ENCODING -1
SWIDTH 568 0
DWIDTH 5 0
BBX 5 7 0 0
BITMAP
1AEB10
8A1B70
210A60
004D10
02D300
1C4000
7FFFC0
ENDCHAR
STARTCHAR three.pnum
ENCODING -1
SWIDTH 568 0
DWIDTH 5 0
BBX 5 7 0 0
BITMAP
1BEB10
791B60
001B50
04FD00
000A70
891A80
1BEB10
ENDCHAR
STARTCHAR four.pnum
ENCODING -1
SWIDTH 568 0
DWIDTH 5 0
BBX 5 7 0 0
BITMAP
005F10
01DF10
0A6F10
4A0F10
BFFFD0
000F10
000F10
ENDCHAR
STARTCHAR five.pnum
ENCODING -1
SWIDTH 568 0
DWIDTH 5 0
BBX 5 7 0 0
BITMAP
0EFF80
1E0000
2EEC20
151990
1105B0
4D1990
09EC20
ENDCHAR
STARTCHAR six.pnum
ENCODING -1
SWIDTH 578 0
DWIDTH 5 0
BBX 5 7 0 0
BITMAP
02BD00
0C6100
3EDD30
5D28A0
5B04C0
2E28A0
07EC20
ENDCHAR
STARTCHAR eight.pnum
ENCODING -1
SWIDTH 587 0
DWIDTH 5 0
BBX 5 7 0 0
BITMAP
09EC20
3E1A80
2E1A70
0AFE10
5C1890
6C18A0
0AEC30
ENDCHAR
STARTCHAR nine.pnum
ENCODING -1
SWIDTH 578 0
DWIDTH 5 0
BBX 5 7 0 0
BITMAP
1BE900
7A1B50
8A1A80
2CED80
000A60
005E10
09C400
ENDCHAR
STARTCHAR zero.pnum
ENCODING -1
SWIDTH 587 0
DWIDTH 5 0
BBX 5 7 0 0
BITMAP
09EC10
3D1980
6A05B0
7905B0
6A05B0
3D1980
09EC10
ENDCHAR
STARTCHAR G_acutecomb.ccmp
ENCODING -1
SWIDTH 680 0
DWIDTH 6 0
BBX 6 10 0 0
BITMAP
001E30
004900
000000
06DE90
2E31C5
7A0011
890DF8
7A0088
2E41A8
05DFB2
ENDCHAR
STARTCHAR g_acutecomb.ccmp
ENCODING -1
SWIDTH 566 0
DWIDTH 5 0
BBX 5 10 0 -2
BITMAP
008A00
00B200
000000
1BEC80
7B1A80
970880
7B1A80
1BED80
151B60
1BEB10
ENDCHAR
STARTCHAR N_gravecomb.ccmp
ENCODING -1
SWIDTH 709 0
DWIDTH 6 0
BBX 6 10 0 0
BITMAP
01E300
006700
000000
5E106B
5F906B
5CE36B
5C6C6B
5C0CBB
5C04FB
5C00AB
ENDCHAR
STARTCHAR n_gravecomb.ccmp
ENCODING -1
SWIDTH 556 0
DWIDTH 5 0
BBX 5 8 0 0
BITMAP
0B8000
02B000
000000
7CDD20
7B1B60
790970
790970
790970
ENDCHAR
STARTCHAR A_uni030F.ccmp
ENCODING -1
SWIDTH 665 0
DWIDTH 6 0
BBX 6 10 0 0
BITMAP
2EA800
078B00
000000
00AA00
01EE10
069950
0B44B0
1FFFF1
6900A6
B5006B
ENDCHAR
STARTCHAR a_uni030F.ccmp
ENCODING -1
SWIDTH 541 0
DWIDTH 5 0
BBX 5 8 0 0
BITMAP
9AE100
1C9500
000000
3CEA00
001D40
3CFF40
8A1D40
3DDD60
ENDCHAR
STARTCHAR E_uni030F.ccmp
ENCODING -1
SWIDTH 565 0
DWIDTH 5 0
BBX 5 10 0 0
BITMAP
5CC500
0A8900
000000
5FFFC0
5C0000
5C0000
5FFF60
5C0000
5C0000
5FFFC0
ENDCHAR
STARTCHAR e_uni030F.ccmp
ENCODING -1
SWIDTH 536 0
DWIDTH 5 0
BBX 5 8 0 0
BITMAP
AAE100
1C9500
000000
0AEA00
7B1B60
9FFF80
7A1310
1AEC20
ENDCHAR
STARTCHAR I_uni030F.ccmp
ENCODING -1
SWIDTH 282 0
DWIDTH 3 0
BBX 4 10 -1 0
BITMAP
C9C0
3BA3
0000
04C0
04C0
04C0
04C0
04C0
04C0
04C0
ENDCHAR
STARTCHAR dotlessi_uni030F.ccmp
ENCODING -1
SWIDTH 262 0
DWIDTH 2 0
BBX 5 8 -2 0
BITMAP
1D9B00
04AB20
000000
006B00
006B00
006B00
006B00
006B00
ENDCHAR
STARTCHAR O_uni030F.ccmp
ENCODING -1
SWIDTH 690 0
DWIDTH 6 0
BBX 6 10 0 0
BITMAP
1DAA00
059B10
000000
06DE80
2E32D5
7A007A
89006B
7A007A
2E32D5
06DE80
ENDCHAR
STARTCHAR o_uni030F.ccmp
ENCODING -1
SWIDTH 569 0
DWIDTH 5 0
BBX 5 8 0 0
BITMAP
9AE200
1C8600
000000
1AEB10
7B1990
9705B0
7B1990
1AEB10
ENDCHAR
STARTCHAR R_uni030F.ccmp
ENCODING -1
SWIDTH 624 0
DWIDTH 6 0
BBX 6 10 0 0
BITMAP
7BD300
0B8700
000000
5FFE70
5C02F2
5C02F2
5FFF60
5C0C60
5C05C0
5C00E4
ENDCHAR
STARTCHAR r_uni030F.ccmp
ENCODING -1
SWIDTH 351 0
DWIDTH 3 0
BBX 5 8 -1 0
BITMAP
5DC500
098A00
000000
07CE10
07B100
079000
079000
079000
ENDCHAR
STARTCHAR U_uni030F.ccmp
ENCODING -1
SWIDTH 651 0
DWIDTH 6 0
BBX 6 10 0 0
BITMAP
3DB700
088B00
000000
7A00C5
7A00C5
7A00C5
7A00C5
7A00C5
4D22E2
08EE60
ENDCHAR
STARTCHAR u_uni030F.ccmp
ENCODING -1
SWIDTH 555 0
DWIDTH 5 0
BBX 5 8 0 0
BITMAP
9AE200
1C9500
000000
790970
790970
790970
7B1B70
2DEC70
ENDCHAR
STARTCHAR Upsilon1_acutecomb.ccmp
ENCODING -1
SWIDTH 608 0
DWIDTH 5 0
BBX 8 8 -2 0
BITMAP
59000000
549B00C8
000C45B0
0006AB50
0001ED00
0000A800
00009800
00009800
ENDCHAR
STARTCHAR B_dotbelowcomb.ccmp
ENCODING -1
SWIDTH 630 0
DWIDTH 6 0
BBX 6 9 0 -2
BITMAP
5FFE60
5C04F0
5C04E0
5FFF70
5C02E2
5C03F2
5FFE80
000000
00C200
ENDCHAR
STARTCHAR b_dotbelowcomb.ccmp
ENCODING -1
SWIDTH 562 0
DWIDTH 5 0
BBX 5 9 0 -2
BITMAP
790000
790000
7DEC20
7B1980
7906A0
7B1980
7CEC20
000000
00B300
ENDCHAR
STARTCHAR D_dotbelowcomb.ccmp
ENCODING -1
SWIDTH 653 0
DWIDTH 6 0
BBX 6 9 0 -2
BITMAP
5FFC30
5C05E1
5C00C5
5C00B6
5C00C5
5C06E1
5FFC30
000000
00D000
ENDCHAR
STARTCHAR d_dotbelowcomb.ccmp
ENCODING -1
SWIDTH 564 0
DWIDTH 5 0
BBX 5 9 0 -2
BITMAP
000880
000880
1CED80
8B1A80
970880
7A1A80
1CEC80
000000
00C200
ENDCHAR
STARTCHAR D_uniF6C3.ccmp
ENCODING -1
SWIDTH 653 0
DWIDTH 6 0
BBX 6 10 0 -3
BITMAP
5FFC30
5C05E1
5C00C5
5C00B6
5C00C5
5C06E1
5FFC30
000000
00D000
029000
ENDCHAR
STARTCHAR d_uniF6C3.ccmp
ENCODING -1
SWIDTH 564 0
DWIDTH 5 0
BBX 5 10 0 -3
BITMAP
000880
000880
1CED80
8B1A80
970880
7A1A80
1CEC80
000000
00C100
00A000
ENDCHAR
STARTCHAR H_dotbelowcomb.ccmp
ENCODING -1
SWIDTH 710 0
DWIDTH 6 0
BBX 6 9 0 -2
BITMAP
5C006B
5C006B
5C006B
5FFFFB
5C006B
5C006B
5C006B
000000
005900
ENDCHAR
STARTCHAR h_dotbelowcomb.ccmp
ENCODING -1
SWIDTH 555 0
DWIDTH 5 0
BBX 5 9 0 -2
BITMAP
790000
790000
7CED20
7B1B60
790970
790970
790970
000000
00D100
ENDCHAR
STARTCHAR K_acutecomb.ccmp
ENCODING -1
SWIDTH 630 0
DWIDTH 6 0
BBX 6 10 0 0
BITMAP
005D00
009400
000000
5C03E3
5C1D70
5CAA00
5FF700
5E5E20
5C08B0
5C01D6
ENDCHAR
STARTCHAR k_acutecomb.ccmp
ENCODING -1
SWIDTH 521 0
DWIDTH 5 0
BBX 5 10 0 0
BITMAP
005C00
009400
000000
790000
790000
793E30
7BD400
7FE200
7A7B00
790C60
ENDCHAR
STARTCHAR K_dotbelowcomb.ccmp
ENCODING -1
SWIDTH 630 0
DWIDTH 6 0
BBX 6 9 0 -2
BITMAP
5C03E3
5C1D70
5CAA00
5FF700
5E5E20
5C08B0
5C01D6
000000
009500
ENDCHAR
STARTCHAR k_dotbelowcomb.ccmp
ENCODING -1
SWIDTH 521 0
DWIDTH 5 0
BBX 5 9 0 -2
BITMAP
790000
790000
793E30
7BD400
7FE200
7A7B00
790C60
000000
02C000
ENDCHAR
STARTCHAR L_dotbelowcomb.ccmp
ENCODING -1
SWIDTH 541 0
DWIDTH 5 0
BBX 5 9 0 -2
BITMAP
5C0000
5C0000
5C0000
5C0000
5C0000
5C0000
5FFFA0
000000
00C200
ENDCHAR
STARTCHAR l_dotbelowcomb.ccmp
ENCODING -1
SWIDTH 255 0
DWIDTH 2 0
BBX 2 9 0 -2
BITMAP
6A
6A
6A
6A
6A
6A
6A
00
59
ENDCHAR
STARTCHAR M_dotbelowcomb.ccmp
ENCODING -1
SWIDTH 875 0
DWIDTH 8 0
BBX 8 9 0 -2
BITMAP
5F4006F3
5F900BF3
5BE01DC3
5BB468D3
5B5AC3D3
5C1ED0D3
5C0A80D3
00000000
00086000
ENDCHAR
STARTCHAR m_dotbelowcomb.ccmp
ENCODING -1
SWIDTH 870 0
DWIDTH 8 0
BBX 8 7 0 -2
BITMAP
7CED8EB0
7B1C91D4
790970C4
790970C4
790970C4
00000000
00086000
ENDCHAR
STARTCHAR N_dotbelowcomb.ccmp
ENCODING -1
SWIDTH 709 0
DWIDTH 6 0
BBX 6 9 0 -2
BITMAP
5E106B
5F906B
5CE36B
5C6C6B
5C0CBB
5C04FB
5C00AB
000000
005900
ENDCHAR
STARTCHAR n_dotbelowcomb.ccmp
ENCODING -1
SWIDTH 556 0
DWIDTH 5 0
BBX 5 7 0 -2
BITMAP
7CDD20
7B1B60
790970
790970
790970
000000
01D000
ENDCHAR
STARTCHAR O_tildecomb_acutecomb.ccmp
ENCODING -1
SWIDTH 690 0
DWIDTH 6 0
BBX 6 11 0 0
BITMAP
000C00
002800
000000
00C540
07FF90
2E32D5
7A007A
89006B
7A007A
2E32D5
06DE80
ENDCHAR
STARTCHAR P_acutecomb.ccmp
ENCODING -1
SWIDTH 639 0
DWIDTH 6 0
BBX 6 10 0 0
BITMAP
005D00
009400
000000
5FFE90
5C01D5
5C01D5
5FFEA0
5C0000
5C0000
5C0000
ENDCHAR
STARTCHAR p_acutecomb.ccmp
ENCODING -1
SWIDTH 562 0
DWIDTH 5 0
BBX 5 10 0 -2
BITMAP
002E20
006700
000000
7CEC20
7B1A80
7906A0
7B1A80
7DEC20
790000
790000
ENDCHAR
STARTCHAR R_dotbelowcomb.ccmp
ENCODING -1
SWIDTH 624 0
DWIDTH 6 0
BBX 6 9 0 -2
BITMAP
5FFE70
5C02F2
5C02F2
5FFF60
5C0C60
5C05C0
5C00E4
000000
00C200
ENDCHAR
STARTCHAR r_dotbelowcomb.ccmp
ENCODING -1
SWIDTH 351 0
DWIDTH 3 0
BBX 4 7 0 -2
BITMAP
7CE1
7B10
7900
7900
7900
0000
5800
ENDCHAR
STARTCHAR S_dotbelowcomb.ccmp
ENCODING -1
SWIDTH 603 0
DWIDTH 5 0
BBX 6 9 0 -2
BITMAP
0AED40
6C14E0
5D3010
07EC30
2106E0
8A13F1
1AEE60
000000
00A400
ENDCHAR
STARTCHAR s_dotbelowcomb.ccmp
ENCODING -1
SWIDTH 516 0
DWIDTH 5 0
BBX 5 7 0 -2
BITMAP
2CFC10
7B0000
1AD800
001E30
5DFA00
000000
01C000
ENDCHAR
STARTCHAR T_dotbelowcomb.ccmp
ENCODING -1
SWIDTH 606 0
DWIDTH 5 0
BBX 6 9 0 -2
BITMAP
CFFFF4
00C400
00C400
00C400
00C400
00C400
00C400
000000
00B300
ENDCHAR
STARTCHAR t_dotbelowcomb.ccmp
ENCODING -1
SWIDTH 332 0
DWIDTH 3 0
BBX 3 8 0 -2
BITMAP
3D00
FFB0
3D00
3D00
3E00
1DB0
0000
0860
ENDCHAR
STARTCHAR U_tildecomb_acutecomb.ccmp
ENCODING -1
SWIDTH 651 0
DWIDTH 6 0
BBX 6 11 0 0
BITMAP
001B00
005600
000000
02C610
7E5CC5
7A00C5
7A00C5
7A00C5
7A00C5
4D22E2
08EE60
ENDCHAR
STARTCHAR V_tildecomb.ccmp
ENCODING -1
SWIDTH 646 0
DWIDTH 6 0
BBX 6 10 0 0
BITMAP
05C470
093D30
000000
B70099
6B00E4
2F13E0
0C5890
079C40
02EE00
00C900
ENDCHAR
STARTCHAR v_tildecomb.ccmp
ENCODING -1
SWIDTH 494 0
DWIDTH 4 0
BBX 5 8 0 0
BITMAP
1D4A00
46B700
000000
B50E20
693D00
1D7800
0BE300
06D000
ENDCHAR
STARTCHAR V_dotbelowcomb.ccmp
ENCODING -1
SWIDTH 646 0
DWIDTH 6 0
BBX 6 9 0 -2
BITMAP
B70099
6B00E4
2F13E0
0C5890
079C40
02EE00
00C900
000000
008500
ENDCHAR
STARTCHAR v_dotbelowcomb.ccmp
ENCODING -1
SWIDTH 494 0
DWIDTH 4 0
BBX 5 7 0 -2
BITMAP
B50E20
693D00
1D7800
0BE300
06D000
000000
04A000
ENDCHAR
STARTCHAR W_dotbelowcomb.ccmp
ENCODING -1
SWIDTH 879 0
DWIDTH 8 0
BBX 8 9 0 -2
BITMAP
A609907A
790CC097
4C1DD1C3
1E4994E0
0DA56AC0
09F22F90
06D00E60
00000000
00077000
ENDCHAR
STARTCHAR w_dotbelowcomb.ccmp
ENCODING -1
SWIDTH 743 0
DWIDTH 7 0
BBX 7 7 0 -2
BITMAP
B43D0960
787E2D20
3BC78D00
0DB2E900
0A70C500
00000000
002B0000
ENDCHAR
STARTCHAR Z_dotbelowcomb.ccmp
ENCODING -1
SWIDTH 602 0
DWIDTH 5 0
BBX 6 9 0 -2
BITMAP
9FFFF0
000A80
004D10
01D400
09A000
3E1000
9FFFF2
000000
00B300
ENDCHAR
STARTCHAR z_dotbelowcomb.ccmp
ENCODING -1
SWIDTH 502 0
DWIDTH 5 0
BBX 5 7 0 -2
BITMAP
9FFF20
009900
06C000
2D2000
9FFF30
000000
03B000
ENDCHAR
STARTCHAR Alphatonos.c2sc
ENCODING -1
SWIDTH 577 0
DWIDTH 5 0
BBX 5 7 0 0
BITMAP
850000
810000
02F400
08BB00
0D1D20
5FFF80
B502E0
ENDCHAR
STARTCHAR Epsilontonos.c2sc
ENCODING -1
SWIDTH 513 0
DWIDTH 5 0
BBX 6 7 -1 0
BITMAP
B20000
900000
03FFF6
03D000
03FFF1
03D000
03FFF7
ENDCHAR
STARTCHAR Etatonos.c2sc
ENCODING -1
SWIDTH 637 0
DWIDTH 6 0
BBX 7 7 -1 0
BITMAP
B3000000
90000000
03D00D30
03D00D30
03FFFF30
03D00D30
03D00D30
ENDCHAR
STARTCHAR Iotatonos.c2sc
ENCODING -1
SWIDTH 277 0
DWIDTH 3 0
BBX 3 7 -1 0
BITMAP
B300
9000
02E0
02E0
02E0
02E0
02E0
ENDCHAR
STARTCHAR Omicrontonos.c2sc
ENCODING -1
SWIDTH 598 0
DWIDTH 5 0
BBX 6 7 -1 0
BITMAP
490000
550000
00AED3
07B15D
09701F
06B15D
00AED3
ENDCHAR
STARTCHAR Upsilontonos.c2sc
ENCODING -1
SWIDTH 558 0
DWIDTH 5 0
BBX 7 7 -2 0
BITMAP
1D000000
27000000
007B07B0
000D4D20
0005E900
0000E300
0000E200
ENDCHAR
STARTCHAR Omegatonos.c2sc
ENCODING -1
SWIDTH 616 0
DWIDTH 6 0
BBX 7 7 -1 0
BITMAP
3A000000
45000000
009ED500
06C14E00
07800E10
02C24A00
07F8EF10
ENDCHAR
STARTCHAR Alpha.c2sc
ENCODING -1
SWIDTH 577 0
DWIDTH 5 0
BBX 5 5 0 0
BITMAP
02F400
08BB00
0D1D20
5FFF80
B502E0
ENDCHAR
STARTCHAR Beta.c2sc
ENCODING -1
SWIDTH 546 0
DWIDTH 5 0
BBX 5 5 0 0
BITMAP
7FFC20
791C50
7FFE10
790B70
7FFD30
ENDCHAR
STARTCHAR Epsilon.c2sc
ENCODING -1
SWIDTH 484 0
DWIDTH 4 0
BBX 5 5 0 0
BITMAP
7FFF20
790000
7FFC00
790000
7FFF30
ENDCHAR
STARTCHAR Zeta.c2sc
ENCODING -1
SWIDTH 520 0
DWIDTH 5 0
BBX 5 5 0 0
BITMAP
BFFF50
006B00
04C100
2D2000
AFFF70
ENDCHAR
STARTCHAR Eta.c2sc
ENCODING -1
SWIDTH 608 0
DWIDTH 5 0
BBX 5 5 0 0
BITMAP
7902E0
7902E0
7FFFE0
7902E0
7902E0
ENDCHAR
STARTCHAR Iota.c2sc
ENCODING -1
SWIDTH 248 0
DWIDTH 2 0
BBX 2 5 0 0
BITMAP
6A
6A
6A
6A
6A
ENDCHAR
STARTCHAR Kappa.c2sc
ENCODING -1
SWIDTH 544 0
DWIDTH 5 0
BBX 5 5 0 0
BITMAP
791D60
79C800
7FF200
7B7C00
790A90
ENDCHAR
STARTCHAR Mu.c2sc
ENCODING -1
SWIDTH 752 0
DWIDTH 7 0
BBX 7 5 0 0
BITMAP
7F205F40
7D80BD40
79D3BB40
799D5C40
793E0C40
ENDCHAR
STARTCHAR Nu.c2sc
ENCODING -1
SWIDTH 607 0
DWIDTH 5 0
BBX 5 5 0 0
BITMAP
7D12E0
7E92E0
79C6E0
792EE0
7907E0
ENDCHAR
STARTCHAR Omicron.c2sc
ENCODING -1
SWIDTH 593 0
DWIDTH 5 0
BBX 5 5 0 0
BITMAP
1AEC30
7B16C0
A601E0
7B16C0
1AEC30
ENDCHAR
STARTCHAR Rho.c2sc
ENCODING -1
SWIDTH 553 0
DWIDTH 5 0
BBX 5 5 0 0
BITMAP
7FFD30
790990
7FFD40
790000
790000
ENDCHAR
STARTCHAR Tau.c2sc
ENCODING -1
SWIDTH 528 0
DWIDTH 5 0
BBX 5 5 0 0
BITMAP
DFFF90
03E000
03E000
03E000
03E000
ENDCHAR
STARTCHAR Upsilon.c2sc
ENCODING -1
SWIDTH 529 0
DWIDTH 5 0
BBX 5 5 0 0
BITMAP
B70B70
2E4D00
09E500
03E000
03D000
ENDCHAR
STARTCHAR Chi.c2sc
ENCODING -1
SWIDTH 545 0
DWIDTH 5 0
BBX 5 5 0 0
BITMAP
8A0C60
0DAB00
06F400
1DAC00
9A0B70
ENDCHAR
STARTCHAR Iotadieresis.c2sc
ENCODING -1
SWIDTH 248 0
DWIDTH 2 0
BBX 4 7 -1 0
BITMAP
5848
0000
06A0
06A0
06A0
06A0
06A0
ENDCHAR
STARTCHAR Upsilondieresis.c2sc
ENCODING -1
SWIDTH 529 0
DWIDTH 5 0
BBX 5 7 0 0
BITMAP
1B1B00
000000
B70B70
2E4D00
09E500
03E000
03D000
ENDCHAR
STARTCHAR uni0401.c2sc
ENCODING -1
SWIDTH 484 0
DWIDTH 4 0
BBX 5 7 0 0
BITMAP
1B1B00
000000
7FFF20
790000
7FFC00
790000
7FFF30
ENDCHAR
STARTCHAR uni0403.c2sc
ENCODING -1
SWIDTH 465 0
DWIDTH 4 0
BBX 4 8 0 0
BITMAP
00A8
01C1
0000
7FFF
7900
7900
7900
7900
ENDCHAR
STARTCHAR uni0405.c2sc
ENCODING -1
SWIDTH 525 0
DWIDTH 5 0
BBX 5 5 0 0
BITMAP
2CFB10
7C3630
1AEB10
651C60
3CFC10
ENDCHAR
STARTCHAR uni0406.c2sc
ENCODING -1
SWIDTH 248 0
DWIDTH 2 0
BBX 2 5 0 0
BITMAP
6A
6A
6A
6A
6A
ENDCHAR
STARTCHAR uni0407.c2sc
ENCODING -1
SWIDTH 248 0
DWIDTH 2 0
BBX 4 7 -1 0
BITMAP
5848
0000
06A0
06A0
06A0
06A0
06A0
ENDCHAR
STARTCHAR uni0408.c2sc
ENCODING -1
SWIDTH 479 0
DWIDTH 4 0
BBX 4 6 0 0
BITMAP
0014
004C
004C
004C
956B
5ED4
ENDCHAR
STARTCHAR uni040C.c2sc
ENCODING -1
SWIDTH 544 0
DWIDTH 5 0
BBX 5 8 0 0
BITMAP
00B700
01B000
000000
791D60
79C800
7FF200
7B7C00
790A90
ENDCHAR
STARTCHAR uni040E.c2sc
ENCODING -1
SWIDTH 534 0
DWIDTH 5 0
BBX 5 8 0 0
BITMAP
0D2C00
07E600
000000
980980
2E2E10
09C900
03F200
1F8000
ENDCHAR
STARTCHAR uni0410.c2sc
ENCODING -1
SWIDTH 577 0
DWIDTH 5 0
BBX 5 5 0 0
BITMAP
02F400
08BB00
0D1D20
5FFF80
B502E0
ENDCHAR
STARTCHAR uni0412.c2sc
ENCODING -1
SWIDTH 546 0
DWIDTH 5 0
BBX 5 5 0 0
BITMAP
7FFC20
791C50
7FFE10
790B70
7FFD30
ENDCHAR
STARTCHAR uni0413.c2sc
ENCODING -1
SWIDTH 465 0
DWIDTH 4 0
BBX 4 5 0 0
BITMAP
7FFF
7900
7900
7900
7900
ENDCHAR
STARTCHAR uni0415.c2sc
ENCODING -1
SWIDTH 484 0
DWIDTH 4 0
BBX 5 5 0 0
BITMAP
7FFF20
790000
7FFC00
790000
7FFF30
ENDCHAR
STARTCHAR uni0419.c2sc
ENCODING -1
SWIDTH 611 0
DWIDTH 6 0
BBX 5 8 0 0
BITMAP
094C20
03EA00
000000
7906F0
792DF0
79B5F0
7E91F0
7D11F0
ENDCHAR
STARTCHAR uni041C.c2sc
ENCODING -1
SWIDTH 752 0
DWIDTH 7 0
BBX 7 5 0 0
BITMAP
7F205F40
7D80BD40
79D3BB40
799D5C40
793E0C40
ENDCHAR
STARTCHAR uni041D.c2sc
ENCODING -1
SWIDTH 608 0
DWIDTH 5 0
BBX 5 5 0 0
BITMAP
7902E0
7902E0
7FFFE0
7902E0
7902E0
ENDCHAR
STARTCHAR uni041E.c2sc
ENCODING -1
SWIDTH 593 0
DWIDTH 5 0
BBX 5 5 0 0
BITMAP
1AEC30
7B16C0
A601E0
7B16C0
1AEC30
ENDCHAR
STARTCHAR uni041F.c2sc
ENCODING -1
SWIDTH 605 0
DWIDTH 5 0
BBX 5 5 0 0
BITMAP
7FFFE0
7902E0
7902E0
7902E0
7902E0
ENDCHAR
STARTCHAR uni0420.c2sc
ENCODING -1
SWIDTH 553 0
DWIDTH 5 0
BBX 5 5 0 0
BITMAP
7FFD30
790990
7FFD40
790000
790000
ENDCHAR
STARTCHAR uni0421.c2sc
ENCODING -1
SWIDTH 562 0
DWIDTH 5 0
BBX 5 5 0 0
BITMAP
1AFC30
8A1670
A70000
7A1570
1BEC30
ENDCHAR
STARTCHAR uni0422.c2sc
ENCODING -1
SWIDTH 528 0
DWIDTH 5 0
BBX 5 5 0 0
BITMAP
DFFF90
03E000
03E000
03E000
03E000
ENDCHAR
STARTCHAR uni0425.c2sc
ENCODING -1
SWIDTH 545 0
DWIDTH 5 0
BBX 5 5 0 0
BITMAP
8A0C60
0DAB00
06F400
1DAC00
9A0B70
ENDCHAR
STARTCHAR uni0498.c2sc
ENCODING -1
SWIDTH 534 0
DWIDTH 5 0
BBX 5 7 0 -2
BITMAP
4DFB10
341E30
05FC00
431D50
5EFC10
04C000
04C000
ENDCHAR
STARTCHAR uni04A2.c2sc
ENCODING -1
SWIDTH 608 0
DWIDTH 5 0
BBX 6 7 0 -2
BITMAP
7902E0
7902E0
7FFFE0
7902E0
7902FC
00004C
00004C
ENDCHAR
STARTCHAR uni04AA.c2sc
ENCODING -1
SWIDTH 562 0
DWIDTH 5 0
BBX 5 7 0 -2
BITMAP
1BFC30
7A1680
A70000
8A1570
1BFD40
00E200
00E200
ENDCHAR
STARTCHAR uni04AE.c2sc
ENCODING -1
SWIDTH 529 0
DWIDTH 5 0
BBX 5 5 0 0
BITMAP
B70B70
2E4D00
09E500
03E000
03D000
ENDCHAR
STARTCHAR uni04BE.c2sc
ENCODING -1
SWIDTH 749 0
DWIDTH 7 0
BBX 7 6 0 -1
BITMAP
007DE800
D5D21D30
5EFFFF50
03D21200
007FF900
0005B000
ENDCHAR
STARTCHAR uni04E2.c2sc
ENCODING -1
SWIDTH 611 0
DWIDTH 6 0
BBX 5 7 0 0
BITMAP
0BFF40
000000
7906F0
792DF0
79B5F0
7E91F0
7D11F0
ENDCHAR
STARTCHAR uni04EE.c2sc
ENCODING -1
SWIDTH 534 0
DWIDTH 5 0
BBX 5 7 0 0
BITMAP
0FFF00
000000
980980
2E2E10
09C900
03F200
1F8000
ENDCHAR
STARTCHAR uni0424.c2sc
ENCODING -1
SWIDTH 701 0
DWIDTH 6 0
BBX 6 5 0 0
BITMAP
006B00
1AEFC4
8A6B5D
8A6B5D
1AEFC4
ENDCHAR
STARTCHAR IJ.c2sc
ENCODING -1
SWIDTH 727 0
DWIDTH 7 0
BBX 7 6 0 0
BITMAP
00000500
6A000F10
6A000F10
6A000F10
6A673F00
6A2CE600
ENDCHAR
STARTCHAR AEacute.c2sc
ENCODING -1
SWIDTH 784 0
DWIDTH 7 0
BBX 7 8 0 0
BITMAP
0002E200
00067000
00000000
009FFF80
03CCFF40
0B5B5000
4FFF6000
C60AFFC0
ENDCHAR
STARTCHAR Oslashacute.c2sc
ENCODING -1
SWIDTH 593 0
DWIDTH 5 0
BBX 5 9 0 -1
BITMAP
004D00
009400
000010
1AFD80
7B2CC0
A693E0
7D56C0
3DFC30
100000
ENDCHAR
STARTCHAR uni0218.c2sc
ENCODING -1
SWIDTH 525 0
DWIDTH 5 0
BBX 5 8 0 -3
BITMAP
2CFB10
7C3630
1AEB10
651C60
3CFC10
000000
00D000
028000
ENDCHAR
STARTCHAR Wgrave.c2sc
ENCODING -1
SWIDTH 753 0
DWIDTH 7 0
BBX 7 8 0 0
BITMAP
00C60000
004A0000
00000000
B53F0880
787E4B40
3BB68D00
0DC1DB00
0B90C800
ENDCHAR
STARTCHAR Wacute.c2sc
ENCODING -1
SWIDTH 753 0
DWIDTH 7 0
BBX 7 8 0 0
BITMAP
00099000
000B1000
00000000
B53F0880
787E4B40
3BB68D00
0DC1DB00
0B90C800
ENDCHAR
STARTCHAR Wdieresis.c2sc
ENCODING -1
SWIDTH 753 0
DWIDTH 7 0
BBX 7 7 0 0
BITMAP
01B1B000
00000000
B53F0880
787E4B40
3BB68D00
0DC1DB00
0B90C800
ENDCHAR
STARTCHAR Ygrave.c2sc
ENCODING -1
SWIDTH 529 0
DWIDTH 5 0
BBX 5 8 0 0
BITMAP
0D5000
049000
000000
B70B70
2E4D00
09E500
03E000
03D000
ENDCHAR
STARTCHAR Aogonek.locl
ENCODING -1
SWIDTH 665 0
DWIDTH 6 0
BBX 6 9 0 -2
BITMAP
00AA00
01EE10
069950
0B44B0
1FFFF1
6900A6
B5326B
01C100
00D700
ENDCHAR
STARTCHAR aogonek.locl
ENCODING -1
SWIDTH 541 0
DWIDTH 5 0
BBX 5 7 0 -2
BITMAP
3CEA00
001D40
3CFF40
8A1D40
3FFD60
0C1000
0B8000
ENDCHAR
STARTCHAR Eogonek.locl
ENCODING -1
SWIDTH 565 0
DWIDTH 5 0
BBX 5 9 0 -2
BITMAP
5FFFC0
5C0000
5C0000
5FFF60
5C0000
5C0000
5FFFC0
049000
03E200
ENDCHAR
STARTCHAR eogonek.locl
ENCODING -1
SWIDTH 536 0
DWIDTH 5 0
BBX 5 7 0 -2
BITMAP
0AEA00
7B1B60
9FFF80
7A1310
1BFC20
085000
06D000
ENDCHAR
STARTCHAR Aogonek.c2sc.locl
ENCODING -1
SWIDTH 577 0
DWIDTH 5 0
BBX 5 7 0 -2
BITMAP
02F400
08BB00
0D1D20
5FFF80
B542E0
067000
04E100
ENDCHAR
STARTCHAR Eogonek.c2sc.locl
ENCODING -1
SWIDTH 484 0
DWIDTH 4 0
BBX 5 7 0 -2
BITMAP
7FFF20
790000
7FFC00
790000
7FFF30
0A4000
08C000
ENDCHAR
STARTCHAR glyph1293
ENCODING -1
SWIDTH 262 0
DWIDTH 2 0
BBX 2 7 0 -2
BITMAP
6B
6B
6B
6B
6B
00
59
ENDCHAR
ENDFONT
